<mxfile host="app.diagrams.net" modified="2024-08-08T05:59:37.430Z" agent="Mozilla/5.0 (Windows NT 10.0; Win64; x64) AppleWebKit/537.36 (KHTML, like Gecko) Chrome/127.0.0.0 Safari/537.36" etag="BzjcWEcuCf7AT9D-dEnk" version="24.6.4" type="device">
  <diagram name="Halaman-1" id="3XLhO4mPJqw_z4zeKkE_">
    <mxGraphModel dx="1173" dy="624" grid="1" gridSize="10" guides="1" tooltips="1" connect="1" arrows="1" fold="1" page="1" pageScale="1" pageWidth="827" pageHeight="1169" math="0" shadow="0">
      <root>
        <mxCell id="0" />
        <mxCell id="1" parent="0" />
        <mxCell id="9bB9l0TLLNUMmVkwr5hN-5" style="rounded=0;orthogonalLoop=1;jettySize=auto;html=1;" edge="1" parent="1" target="9bB9l0TLLNUMmVkwr5hN-18">
          <mxGeometry relative="1" as="geometry">
            <mxPoint x="282" y="120" as="sourcePoint" />
            <mxPoint x="375" y="160" as="targetPoint" />
          </mxGeometry>
        </mxCell>
        <mxCell id="9bB9l0TLLNUMmVkwr5hN-1" value="&lt;div&gt;Admin&lt;/div&gt;" style="shape=umlActor;verticalLabelPosition=bottom;verticalAlign=top;html=1;outlineConnect=0;" vertex="1" parent="1">
          <mxGeometry x="266.88" y="40" width="30" height="60" as="geometry" />
        </mxCell>
        <mxCell id="9bB9l0TLLNUMmVkwr5hN-11" style="rounded=0;orthogonalLoop=1;jettySize=auto;html=1;entryX=0.501;entryY=-0.004;entryDx=0;entryDy=0;entryPerimeter=0;" edge="1" parent="1" source="9bB9l0TLLNUMmVkwr5hN-18" target="9bB9l0TLLNUMmVkwr5hN-6">
          <mxGeometry relative="1" as="geometry">
            <mxPoint x="374.9" y="230" as="sourcePoint" />
            <mxPoint x="375" y="260" as="targetPoint" />
          </mxGeometry>
        </mxCell>
        <mxCell id="9bB9l0TLLNUMmVkwr5hN-47" style="rounded=0;orthogonalLoop=1;jettySize=auto;html=1;entryX=0;entryY=0.5;entryDx=0;entryDy=0;" edge="1" parent="1" source="9bB9l0TLLNUMmVkwr5hN-6" target="9bB9l0TLLNUMmVkwr5hN-20">
          <mxGeometry relative="1" as="geometry" />
        </mxCell>
        <mxCell id="9bB9l0TLLNUMmVkwr5hN-6" value="&lt;i&gt;Unity Engine&lt;/i&gt;" style="swimlane;whiteSpace=wrap;html=1;startSize=30;" vertex="1" parent="1">
          <mxGeometry x="90" y="280" width="383.75" height="340" as="geometry" />
        </mxCell>
        <mxCell id="9bB9l0TLLNUMmVkwr5hN-24" value="Kebutuhan" style="swimlane;fontStyle=0;childLayout=stackLayout;horizontal=1;startSize=30;horizontalStack=0;resizeParent=1;resizeParentMax=0;resizeLast=0;collapsible=1;marginBottom=0;whiteSpace=wrap;html=1;" vertex="1" parent="9bB9l0TLLNUMmVkwr5hN-6">
          <mxGeometry x="10" y="40" width="166.25" height="180" as="geometry" />
        </mxCell>
        <mxCell id="9bB9l0TLLNUMmVkwr5hN-25" value="Perangkat Keras (Laptop)" style="text;strokeColor=none;fillColor=none;align=left;verticalAlign=middle;spacingLeft=4;spacingRight=4;overflow=hidden;points=[[0,0.5],[1,0.5]];portConstraint=eastwest;rotatable=0;whiteSpace=wrap;html=1;" vertex="1" parent="9bB9l0TLLNUMmVkwr5hN-24">
          <mxGeometry y="30" width="166.25" height="30" as="geometry" />
        </mxCell>
        <mxCell id="9bB9l0TLLNUMmVkwr5hN-26" value="Sistem Operasi (&lt;i&gt;Windows&lt;/i&gt;)" style="text;strokeColor=none;fillColor=none;align=left;verticalAlign=middle;spacingLeft=4;spacingRight=4;overflow=hidden;points=[[0,0.5],[1,0.5]];portConstraint=eastwest;rotatable=0;whiteSpace=wrap;html=1;" vertex="1" parent="9bB9l0TLLNUMmVkwr5hN-24">
          <mxGeometry y="60" width="166.25" height="30" as="geometry" />
        </mxCell>
        <mxCell id="9bB9l0TLLNUMmVkwr5hN-27" value="Bahasa Pemrograman (&lt;i&gt;C#&lt;/i&gt;)" style="text;strokeColor=none;fillColor=none;align=left;verticalAlign=middle;spacingLeft=4;spacingRight=4;overflow=hidden;points=[[0,0.5],[1,0.5]];portConstraint=eastwest;rotatable=0;whiteSpace=wrap;html=1;" vertex="1" parent="9bB9l0TLLNUMmVkwr5hN-24">
          <mxGeometry y="90" width="166.25" height="30" as="geometry" />
        </mxCell>
        <mxCell id="9bB9l0TLLNUMmVkwr5hN-29" value="Aset 3D dan Aset 2D" style="text;strokeColor=none;fillColor=none;align=left;verticalAlign=middle;spacingLeft=4;spacingRight=4;overflow=hidden;points=[[0,0.5],[1,0.5]];portConstraint=eastwest;rotatable=0;whiteSpace=wrap;html=1;" vertex="1" parent="9bB9l0TLLNUMmVkwr5hN-24">
          <mxGeometry y="120" width="166.25" height="30" as="geometry" />
        </mxCell>
        <mxCell id="9bB9l0TLLNUMmVkwr5hN-44" value="IDE (&lt;i&gt;Microsoft Visual Studio&lt;/i&gt;)" style="text;strokeColor=none;fillColor=none;align=left;verticalAlign=middle;spacingLeft=4;spacingRight=4;overflow=hidden;points=[[0,0.5],[1,0.5]];portConstraint=eastwest;rotatable=0;whiteSpace=wrap;html=1;" vertex="1" parent="9bB9l0TLLNUMmVkwr5hN-24">
          <mxGeometry y="150" width="166.25" height="30" as="geometry" />
        </mxCell>
        <mxCell id="9bB9l0TLLNUMmVkwr5hN-30" value="Sistem Utama" style="swimlane;fontStyle=0;childLayout=stackLayout;horizontal=1;startSize=30;horizontalStack=0;resizeParent=1;resizeParentMax=0;resizeLast=0;collapsible=1;marginBottom=0;whiteSpace=wrap;html=1;" vertex="1" parent="9bB9l0TLLNUMmVkwr5hN-6">
          <mxGeometry x="190" y="40" width="186.25" height="150" as="geometry" />
        </mxCell>
        <mxCell id="9bB9l0TLLNUMmVkwr5hN-31" value="Membuat Animasi" style="text;strokeColor=none;fillColor=none;align=left;verticalAlign=middle;spacingLeft=4;spacingRight=4;overflow=hidden;points=[[0,0.5],[1,0.5]];portConstraint=eastwest;rotatable=0;whiteSpace=wrap;html=1;" vertex="1" parent="9bB9l0TLLNUMmVkwr5hN-30">
          <mxGeometry y="30" width="186.25" height="30" as="geometry" />
        </mxCell>
        <mxCell id="9bB9l0TLLNUMmVkwr5hN-32" value="Menulis Kode&lt;span style=&quot;background-color: initial;&quot;&gt;&amp;nbsp;(Koding)&lt;/span&gt;" style="text;strokeColor=none;fillColor=none;align=left;verticalAlign=middle;spacingLeft=4;spacingRight=4;overflow=hidden;points=[[0,0.5],[1,0.5]];portConstraint=eastwest;rotatable=0;whiteSpace=wrap;html=1;" vertex="1" parent="9bB9l0TLLNUMmVkwr5hN-30">
          <mxGeometry y="60" width="186.25" height="30" as="geometry" />
        </mxCell>
        <mxCell id="9bB9l0TLLNUMmVkwr5hN-33" value="&lt;i&gt;Debugging&lt;/i&gt;" style="text;strokeColor=none;fillColor=none;align=left;verticalAlign=middle;spacingLeft=4;spacingRight=4;overflow=hidden;points=[[0,0.5],[1,0.5]];portConstraint=eastwest;rotatable=0;whiteSpace=wrap;html=1;" vertex="1" parent="9bB9l0TLLNUMmVkwr5hN-30">
          <mxGeometry y="90" width="186.25" height="30" as="geometry" />
        </mxCell>
        <mxCell id="9bB9l0TLLNUMmVkwr5hN-34" value="&lt;i&gt;Build .aab&amp;nbsp;&lt;/i&gt;untuk&amp;nbsp;&lt;i&gt;Play Console&lt;/i&gt;" style="text;strokeColor=none;fillColor=none;align=left;verticalAlign=middle;spacingLeft=4;spacingRight=4;overflow=hidden;points=[[0,0.5],[1,0.5]];portConstraint=eastwest;rotatable=0;whiteSpace=wrap;html=1;" vertex="1" parent="9bB9l0TLLNUMmVkwr5hN-30">
          <mxGeometry y="120" width="186.25" height="30" as="geometry" />
        </mxCell>
        <mxCell id="9bB9l0TLLNUMmVkwr5hN-35" value="Fungsi Tambahan" style="swimlane;fontStyle=0;childLayout=stackLayout;horizontal=1;startSize=30;horizontalStack=0;resizeParent=1;resizeParentMax=0;resizeLast=0;collapsible=1;marginBottom=0;whiteSpace=wrap;html=1;" vertex="1" parent="9bB9l0TLLNUMmVkwr5hN-6">
          <mxGeometry x="200" y="210" width="166.25" height="120" as="geometry" />
        </mxCell>
        <mxCell id="9bB9l0TLLNUMmVkwr5hN-36" value="Kamera, Audio, Video Sistem" style="text;strokeColor=none;fillColor=none;align=left;verticalAlign=middle;spacingLeft=4;spacingRight=4;overflow=hidden;points=[[0,0.5],[1,0.5]];portConstraint=eastwest;rotatable=0;whiteSpace=wrap;html=1;" vertex="1" parent="9bB9l0TLLNUMmVkwr5hN-35">
          <mxGeometry y="30" width="166.25" height="30" as="geometry" />
        </mxCell>
        <mxCell id="9bB9l0TLLNUMmVkwr5hN-37" value="&lt;i&gt;GUI&lt;/i&gt;" style="text;strokeColor=none;fillColor=none;align=left;verticalAlign=middle;spacingLeft=4;spacingRight=4;overflow=hidden;points=[[0,0.5],[1,0.5]];portConstraint=eastwest;rotatable=0;whiteSpace=wrap;html=1;" vertex="1" parent="9bB9l0TLLNUMmVkwr5hN-35">
          <mxGeometry y="60" width="166.25" height="30" as="geometry" />
        </mxCell>
        <mxCell id="9bB9l0TLLNUMmVkwr5hN-38" value="&lt;i&gt;Unity Asset Store&lt;/i&gt;" style="text;strokeColor=none;fillColor=none;align=left;verticalAlign=middle;spacingLeft=4;spacingRight=4;overflow=hidden;points=[[0,0.5],[1,0.5]];portConstraint=eastwest;rotatable=0;whiteSpace=wrap;html=1;" vertex="1" parent="9bB9l0TLLNUMmVkwr5hN-35">
          <mxGeometry y="90" width="166.25" height="30" as="geometry" />
        </mxCell>
        <mxCell id="9bB9l0TLLNUMmVkwr5hN-40" value="Basis Data Lokal" style="swimlane;fontStyle=0;childLayout=stackLayout;horizontal=1;startSize=30;horizontalStack=0;resizeParent=1;resizeParentMax=0;resizeLast=0;collapsible=1;marginBottom=0;whiteSpace=wrap;html=1;" vertex="1" parent="9bB9l0TLLNUMmVkwr5hN-6">
          <mxGeometry x="13.129999999999999" y="240" width="160" height="60" as="geometry" />
        </mxCell>
        <mxCell id="9bB9l0TLLNUMmVkwr5hN-41" value="&lt;i&gt;PlayerPrefs Unity&lt;/i&gt;" style="text;strokeColor=none;fillColor=none;align=left;verticalAlign=middle;spacingLeft=4;spacingRight=4;overflow=hidden;points=[[0,0.5],[1,0.5]];portConstraint=eastwest;rotatable=0;whiteSpace=wrap;html=1;" vertex="1" parent="9bB9l0TLLNUMmVkwr5hN-40">
          <mxGeometry y="30" width="160" height="30" as="geometry" />
        </mxCell>
        <mxCell id="9bB9l0TLLNUMmVkwr5hN-18" value="" style="sketch=0;pointerEvents=1;shadow=0;dashed=0;html=1;strokeColor=none;fillColor=#000000;labelPosition=center;verticalLabelPosition=bottom;verticalAlign=top;outlineConnect=0;align=center;shape=mxgraph.office.devices.laptop;" vertex="1" parent="1">
          <mxGeometry x="231.23000000000002" y="160.62" width="101.29" height="59.38" as="geometry" />
        </mxCell>
        <mxCell id="9bB9l0TLLNUMmVkwr5hN-50" style="rounded=0;orthogonalLoop=1;jettySize=auto;html=1;exitX=0.5;exitY=0;exitDx=0;exitDy=0;" edge="1" parent="1" source="9bB9l0TLLNUMmVkwr5hN-20" target="9bB9l0TLLNUMmVkwr5hN-23">
          <mxGeometry relative="1" as="geometry" />
        </mxCell>
        <mxCell id="9bB9l0TLLNUMmVkwr5hN-20" value="" style="strokeColor=#dddddd;shadow=1;strokeWidth=1;rounded=1;absoluteArcSize=1;arcSize=2;" vertex="1" parent="1">
          <mxGeometry x="515" y="420" width="180" height="60" as="geometry" />
        </mxCell>
        <mxCell id="9bB9l0TLLNUMmVkwr5hN-21" value="&lt;font color=&quot;#000000&quot;&gt;&lt;b&gt;JepangCita.aab&lt;/b&gt;&lt;/font&gt;" style="editableCssRules=.*;html=1;fontColor=#999999;shape=image;verticalLabelPosition=middle;verticalAlign=middle;labelPosition=right;align=left;spacingLeft=20;part=1;points=[];imageAspect=0;image=data:image/png,iVBORw0KGgoAAAANSUhEUgAAAgAAAAIACAYAAAD0eNT6AAAABHNCSVQICAgIfAhkiAAAAAlwSFlzAAAOwwAADsMBx2+oZAAAABl0RVh0U29mdHdhcmUAd3d3Lmlua3NjYXBlLm9yZ5vuPBoAACAASURBVHic7d15nFxlnff97+9UdfaBBEggoIIroLIGBXEhjBrMUumuDt3ggtsoKo7r3DPOOI9jHG9n9GZ8XOYRxRnHBVFMk67urizCcJOog4CsIg47uCCENQGydarq/J4/CI4KhF7q1FWnrs/79fIv09f1LbrrXN+zm4AWKg+W59WkbpcWJEn6LEkFlx6yNLnRCo2LRpaPXC+Th84JNFvfqr4pO7tqK1xaLOl4k/Z3aZqk30m62cxHVEhXV0vVBwNHRSQsdADEoTRSem7aKHzGpH5Jhaf7dy5drTRZuXbF4NoWxgMyVar0vN2llZIOfoZ/utXczp5WL5490D+wowXREDEKADJXqvSc4eZfl9u0sf6MS9/YtmX2X258x7d2ZpkNyFLfqr7pO7pq50o6Yzw/59LVhSTtHukeuSejaAAFANlaOtT9MXP7Z03sb+3ynbWuxZf0DzzS7FxA1hZdtGjmlO0z1ko6aYJD/DpJ0uNHukfua2Yu4AlJ6ADoXKVKT88kFn9JesW0Kbt++LpVfXs3MxeQtSYs/pJ0cJomP1i4YWGxWbmAP0QBQCaWrlk6x6X/0GSPMrmdQAlAnjRp8X/CSTO3zH5nE8YBnoQCgGzUi38laU5TxqIEICeavPhLkkz6+IJzz+xq1njAEygAaD6XJW7N3WtxO2FaV+3/Ll2ztDmlAmiyUrU0Y+q2mVU1cfHf7eD58+5/ZZPHBCgAaL4lI8sXuDQ/g6EXWL24bvG6xXtlMDYwYYsuWjTT64V1bn5yVlNkNC4iRgFA0xXS5KWZDe52QmF06qUcCUC7yHDP/3+4vTCzsREtCgCazqV5GU+xwGpdazkSgNBasOcvSTJp3yzHR5woAGg+t3oLZnkFRwIQUkv2/Hdz861Zz4H4UACQhVY9uIQjAQiiVXv+T3Dpt62YB3GhAKDpGuZXtHA6jgSgpVq55/97bj9p2VyIBgUATbe+PHSHpFtbOCVHAtASrd7z3210tF5c38L5EAkKADJh5l9q8ZSvKIxO/SElAFkJsucvyaSv8j4MZIECgExM2zXl3yXd3uJpKQHIRKA9f0l6SMXGZ1o8JyJBAUAmBvoHdiVJukLS9hZPTQlAUwXc86+ZW3+1VH2wlfMiHhQAZGake+QGk94qqRW3Bf4hSgCaIuCefyrpL6q9lUtbPC8iMrk3tQFjsGyo+1Rz+55LrX6hyeWNqaNvWL9k/aMtnhcdoFQtzfB6oSrpz1s8depu71zbW/l2i+dFZCgAaIllQ92nyu37klr9bnNKAMaNxR8xoACgZUqVnn6XzlfrS8BPG1NHF8dQAhZdtGjm1F1T99Wurv3SQmOu0mQvmc+RJJOmuPlMSTK3WebWJUluXnviSXPmts2lXXr8/9isJH00aRQe0JTag6NTRh+6+JSLtwX6aC2TxSt9xyiV+TvW9Ax/p8XzIlIUALRUyBKQJOkbRrpHHmvxvE1zyqq+faYUGocoSZ+bSoeY+XNNOsTT5NmS9lWS7iu3aZmGMN+pNHlI0kOWpL916Vfudlci/UppcteuRuFXF/UPPJxphgwFXPwbMn8niz9aiQKAlqME7Fl5sLxvXToqNT/SpCMkHWXSC1zaO3S2MXpU0m1yu8HNbzDpF11u11d6Kw+FDrYnLP6IDQUAQSwb6j5Nbt9V5CWgPFjet5akJ0o60aSjPU2OkPlBoXNl5B4zv8Gl69388iTxn7bLLW67F/81kha2eGoWfwRDAUAwMV4YuHx4+YGNRuGVlqSvktsrJR2juG/HvVPSZS79V1JoXFYtVf9bJm9lgIAX/LH4IygKAIIKdSTAzS8rmC/O+kjA0jVL51i9uEhpssTMX+/S/CznyzuT7nXpEndbV68XL876eoKQe/4mvaNaHjqvxfMCv0cBQHABjwRkcnfA0tUrnmdJoyRpmUknBXj+QadoSLre3C6RtKZarlzWzKMD7PkjdhQAtIU8HwlYuXJlctXR173SpNPkVpZ0YBMjYjeT7pU01EjSC15+3bH/tXLlynSiY7HnD1AA0EbydiSgNFJ6iTcKfZLOkPS8bKLhKbn9Tkm62tJkYLxHBtjzBx5HAUBbWTpYPt3Mz1ObHglYMlh+UcH8LS6dLumFLYqHPTDpjtT8goL5eSPdI7fs6d+y5w/8DwoA2k7IIwFPdYtg36q+wo4pu5bI7YOSXiu+N+3sGpe+PqPWdd5A/8COP/w/2PMH/hgbMrSlpYPlPjP/ngKWgGXVZQd5o/AWc3u/pGe3OAcmZ7PMz2u4fXl9eegOFn/gySgAaFu7Twd8V1KhpRObX2HSFndbpLjv0e8EqaRL3HymPf7chVZquPT2teWh77Z4XmBMKABoawGPBACTwTl/tD0KANoeJQA5w+KPXKAAIBcoAcgJFn/kBgUAuUEJQJtj8UeuUACQK5QAtCkWf+QOBQC5QwlAm2HxRy5RAJBLlAC0CRZ/5BYFALlFCUBgLP7INR5ygtxa21sZMOnNkuqhsyA6LP7IPY4AIPdKlZ5+l84XRwLQGjzhDx2BIwDIPUvSH5l0U+gciINJ/z3F7eLQOYDJogAg10qVnkWeJte5dEToLIiDS0fUzG9cNtRdCp0FmAxOASCX+lb1Td8xZddn5fYB8XeMcM7bNWP7+y4+5eJtoYMA48WGE7mzZKj7iILb+ez1oy2Y32yNwpurKwavDR0FGA9OASBXlg2WP5q4Xc3ij7bhdpgn6eVLKz0fDh0FGA+OACAXFn7z7dNmzt7yVZPeHjoL8HRc+n5SbLyrWqpuD50FeCYUALS9ZdVlB6lerEh6WegswBhcl6ZJed2KwV+HDgLsCacA0NaWr+59pRqFq8Xij/w4JknSq5cOLz85dBBgTygAaFtLKz3v8yTdILcDQmcBxmk/S5Mfloa63xM6CPB0KABoPy5bVulZadI5LnWFjgNM0BR3+1ppsPxZOadb0X74o0Rb6VvVV9gxZddX5fbu0FmAZjHp24/N3vKujSdv5L0VaBsUALSNxesWTy3snPZdmZ8aOgvQbC4Nz6h1vXGgf2BH6CyARAFAm+hb1TdrR1etIul1obMAGfrRzlpX9yX9A4+EDgJQABDc4lV9cwtdtf+UdFToLEALXGfFxqJqqfpg6CCIGxcBIqjXrerbu9BVWy8Wf8TjGK8XLjllVd8+oYMgbhwBQDCL1y3eqzA69T8lvTx0FqDVTLrSkvT1I90jj4XOgjhxBABBlKqlGYXRqSNi8UekXDo+TZMf9q3qmxU6C+JEAUDLLV63eKoayWpJJ4XOAgR24o6u2tDCb759WuggiA8FAC21cMPCYmF06qC7vSF0FqBNvHbW7C0DCzcsLIYOgrhQANBSM7fM/pKkJaFzAG1m2azNc74aOgTiQgFAy5SGuv+XSWeFzgG0JfN3La30fDh0DMSDuwDQEktX9y61JB2WVAidBWhjqbn1Vnsrw6GDoPNRAJC50ureYz1JfyxpZugsQA5stzRZWF0xeFXoIOhsFABkqnuo+9mp25UuzQ+dBciRu5MkPX6ke+Se0EHQubgGAJlZcO6ZXQ23C1j8gXF7Vuq2esG5Z/I6bGSGAoDMzJ93/2clnRg6B5BLbifM3/++fwwdA52LUwDIxO6L/qribwyYDPck7VnbPTISOgg6DxtnNF33UPezG27XSdo3dBagAzycpsmx61YM/jp0EHQWTgGgqZ447y8Wf6BZ9ikk6Q+4HgDNRgFAUx0494FPi/P+QFO5dPwB+9/3ydA50Fk4BYCmWTLUfXzidpl42A+QhbqlyYk8HwDNwhEANMXidYunJmnyDbH4A1kpKkm/0beqb0roIOgMFAA0RXHntH+Q+UtC5wA6mUtH7OiqfTx0DnQGTgFg0pYNlo8y86tc4iIlIHt1S5PjqysGrw0dBPnGEQBMysINC4sy/w8Wf6Blip6k3+CuAEwWBQCTMmvL7I9KOjZ0DiAyR8+f+8AHQodAvnEKABNWHizPq5vf6tLeobMAEXo0rXUduq5/YFPoIMgnjgBgwnaZ/xOLPxDMXlasrwwdAvnFEQBMyJJKz9GJdLW47Q8IKXXp5WvLQ9eEDoL84QgAJiSRvigWfyC0xKR/CR0C+UQBwLgtHSz3STopdA4AkqSFSwfLvaFDIH84BYBxWbhhYXHWltk3SXpB6CxZm9k1Q0fs+1LNnT5Pe0/dS7sau/TAjgd108M3a9N2rrtqJ/NnHqDD5xyu/abvqymFKXpk9FHdv/1+/eKhG7W9vj10vFa4bXqt6/CB/oFG6CDIj2LoAMiXmZvnvFnmHb34H7LXwXrji07TMXOPVjF56q/Ibx77rSp3DOvH9/xE7t7ihJAkM9PCg16jnucv17NnPfsp/009reu6B67X9275gX79WEe/TfeF27tqb5T03dBBkB8cAcCY9a3qK+zoqv1S0qGhs2ShYAW97fAztPSQxTIb21fj9kfu0NnXfF4P7Hgw43T4Q3Onz9XHFvwvPW/v547p37u71vxqrb5z0/lqeMfuJN+2dfaWF288eWM9dBDkAxdxYcye/6YXvUXSu0PnyMKUQpf+/ri/1WsOetWYF39J2mfaPnrNga/SjQ/9UptHN2eYEE94/t7P06dP+JTmzzxgzD9jZjp0zov0otkv1OWbrlDD0wwTBrPv1NGpt9x6wS2/CB0E+UABwJj0reor1ArpBZL2C52l2UymDxz1fh1/wMsm9PPTitN03LwFuuzen2pHfUeT0+EP7TNtjj51wic1Z9rsCf38ATMP0Nzp83Tlpp81OVm7sBe/6fDTv7px40bOS+EZcRcAxmT3+cWOPPT/moNerdcc9KpJjbHPtDl63xHvbVIiPJ2/PPIs7Tttn0mNcdJBr9ZJB726SYnazuFXH31dX+gQyAcKAJ6ZyyT9XegYWZhS6NKbDj29KWMdO+9oHbnfEU0ZC0921H5H6ui5RzVlrDcderq6kg59l06a8LpgjAkFAM9o6XD3a016cegcWTh27rGaO715ZzXecPCipo2FP7b4kFOaNtbc6XN17NxjmjZeWzE/sjRY5jkdeEYUADwjc3t/6AxZefkBxzV1vKP3O0pTCh26ZxnQlMKUph9dafbvvq0k3rHfWTQPBQB7VKqWniOpFDpHVp631/OaOt604jTNnzG/qWNCOmjmgZpWmNbUMcd6C2Eeuau8eHXvs0LnQHujAGCPvJG8Tx18t8icqXOaPua+0yd3kRqebJ9JXvj3VLL43beRYjFJzwwdAu2NAoCntXjd4qlye2foHFkqJM3/CiSd25eCsQyeWVawzn4QqkvvXbxu8dTQOdC+KAB4WsXRqf2S5oXOkaXNO7c0fcyHdj7c9DFjt3m0+b+nzaMd/3uaWxydykuC8LQoAHhaLr0tdIas3b3t7qaOV08bum/7fU0dE9Km7ZtUT5v7CN+7t/6uqeO1JfO3ho6A9kUBwFM6ZXXvfEkLQ+fI2lWbrmnqeL986JexvH2upbbVtummh29q6pg/23R1U8drR+72uuXDy/cPnQPtiQKAp1RM0tPUwRf/PeFn912lbbVtTRtvw+82Nm0s/LFL797YtLG21rbqqvs7vwBIKqaNwqmhQ6A9UQDwlEx6Y+gMrbC1tlWVO4ebMtavH/u1fnLPZU0ZC0/243t+orsevaspYw3eMdTU4tfOPEmj+C5j/CgAeJLFlZ7nS5rYm3FyqHrnWt28+ZZJjTHaGNWXrz9H7ryDJSvurq/c8DWNNkYnNc7ND9+iNXeta1Kq9mduJ/ZUeg4JnQPthwKAJym6vVnK4L6rNlVLa/o/13xem7ZvmtDP19OGvnT9/9e0vVM8vTsfuUtfvv4rE74gcNP2Tfo/135e9bTe5GRtzRpuzXnhBToKBQBP4tKK0BlabcvoFn3ssr/XLx66cVw/9+iuR/Wpn31aV2y6MqNk+FOXb7pCn/7ZZ/TYrsfG9XM3PPgLfeyyj2tLBrcUtjs35zoAPEk0e3kYm1NW987vStLfKdK/DTPTaw58td506GmaO33u0/67XY2aLvrNRbrw9sq4FyI0x15T9tKKF5T1hoMX7fHNfg/seEDfu+UC/fie/4r5FI3X0uSgi1YM3hs6CNpHlBt5PL1SpecvXPr30DlCMzO9aPYLdczco7X/jP01e8re2tHYqYd2PKT/fvgmXf/gz7WjviN0TEiaXpyuY+YepcPnHK59p++r6YVp2rJri+7bdr+uffA63bbl9pgX/v9h/rY1PcPfCR0D7aOzn4WJ8TOdIraVcnfdsvlW3bL51tBR8Ax21Hfop/deoZ/ee0XoKG3N3d4giQKA3+MIAH6vb1VfYUdX7X5JvM0G6DwPT691zRvoH2juIxWRW1wEiN8bLTROEIs/0Kn22TZl13GhQ6B9UADwe56kp4TOACA7idvi0BnQPigA+D2P4Nn/QOROCh0A7YMCAEnSwg0Li5KODZ0DQKZetvu7DlAA8Li9Ht3rCEkzQ+cAkKmZez2614tDh0B7oABAktRIkxNCZwCQvbRROD50BrQHCgAkSYnERgGIgJvzXYckCgB2Y6MAxMHcONoHSTwICJJ6Kj2z69JDohACMUiTJJ090j3CSywixwYfqrsdLv4WgFgkaZocHjoEwmOjD5n5oaEzAGgdk/jOgwIAySkAQFRSvvMQBQCSlCZsDICIGN95iAIAcQQAiA2n/SBRAKLXt6qvYNLzQ+cA0Dpu/sK+VX2F0DkQFgUgctsL6cGSpobOAaCF3KbVumrPDh0DYVEAYleoHxQ6AoDWq5kfGDoDwqIARM6k/UNnANB6fPdBAYhdmrARAGLEdz96FIDImTkbASBGfPejRwEAGwEgQpwCAAUgcikbASBWfPcjRwGInElzQ2cA0HouzQudAWFRADAjdAAAQfDdjxwFADwECIiRG9/9yFEAImfSlNAZAARgTgGIHAUgcs4RACBWlP/IUQDARgCIE+U/chSAyBkbASBWfPcjRwGInEvF0BkABMHRv8hRAGLntiV0BABBPBw6AMKiAMTO/J7QEQAEcW/oAAiLAhA788tDRwDQeiZdFjoDwqIARM7Nh0JnANB6Lg2HzoCwKACRW7t8ZKOka0LnANBS1x/386N/HDoEwqIAxM7k5vY3kjx0FAAt4ZI+snLlyjR0EIRFAYCqvZVLJf1j6BwAsmduK9eUhzaGzoHwLHQAtAmXLRvq+bKkvwwdBUA2TPrXas/Qh2Qc8QNHAPAEk68pD31AbmdK4tkAQGfZYtK7quWhD7L44wkcAcCTlAfL+9alv07NTzPpkNB5AEzYXTL/QW3XlLMv6h/gwT/4IxQA7NHSwfLhifR8me+fSoXQeQDsWSI15Haf0uT26qmrbw6dBwAAAAAAAAAAAAAAAAAAAAAAAAAAAAAAAAAAAAAAAAAAAAAAAAAAAAAAAAAAAAAAAAAAAAAAAAAAAAAAoNUsdIB2tmRV3wHeVZuZSLMTt1ly254UGttqjcK2mY3CvQP9A7tCZ8zawm++fdrMvR47MLH0wDRJp4XOA2DPkjTZmXpyz7ZH/+yeje/41s7QebK2eN3iqVNHp8538xlpozBT5jNS862ptKUrSbeOdI/cFzpju6IA7Fa6cMVhaaFxciKdmEqHmXSopD/bw480JN1l5re423XmtmFavXj5QP/AjhZFzszCDQuLMzfPeXOSpKe728mSpobOBGDcRiVdKvMLpu+acv5A/0AjdKDJ6lvVN31HV+1ESQslHWvSoS4dIqmwhx971KVbTbpJbj9NCo0NI90jt7Qib7uLugAsrfQsMOkMSX2SDpz0gOY75bbBpPOm1bqG8lgGlg4vP9nczpHbYaGzAGiam8ztfdXeyo9CBxmvUrU0w2vFsiXpW5q2Q+L2O5lfaGnyneqKwWsnnzKfoisAC849s2v+/ve9RW4flfTSDKd6VNJ3rNg4u1qq/ibDeZqmNNR9lrt9SVIxdBYATVd36YNry0NfDR1kLJas7j04KTT+Wm5v1Z6Pxk7WjSZ9/p77551/zXu+XstwnrYTTQHoW9VX2FGsv1vmfyvp4BZOvUvSdxtp8sn1KwbvbuG847JsqPutcvt26BwAsmXSu6rloW+EzvF0StXSc9J64VOJ9GaXulo1r0u/kvTPM2pd3+iE0yVjEUUB2H2o/xxJLw8YY7uks6fXuv6p3S4eXDZYPkrmV4pz/UAMRlPzl63rGf5F6CB/aMG5Z3bNn3f/WZI+rWz3+J/J9XI7a01v5fKAGVqiowtA36q+KduL9c+a+YckJaHzSJLcbnDp9LW9lZtCR3nC0krPxSa9PnQOAC1z0Zry0BtCh3hCaaT0Em8ULlC2p2XHIzXpC/fcP+/vOvm0QMcWgFK19ByvFy6Q9IrQWZ7CDrl9aE1v5d9CB9l9dOTq0DkAtJalyYJ2uABu9+nHcyTNDJ3lT7l0tdLCaWtXrL4zdJYstMdecZOVVvee4PXCtWrPxV+Spsv866VKz7/Iw5awxK035PwAwvAkLYcNICtVer6w+9qjtlv8Jcmk4yxpXLms0hPy9HFmOq4ALKv0vNaT9GJJ+4bO8kxc+qvSUM93Fpx7ZssudHlSBvOFoeYGENTCYBNvWFhcNtTz7y59OFSGcdhP0qWlSs/i0EGaraMKQKnSs9ik9Qp7Acm4uPSWA/e///yVK1eG+l08K9C8AMJ6dohJ+1b1FWZtmX2BpHeGmH+CZro0tGSw3DbXTTRDxxSAZZWel7u0qpW3jTSLu/quOvLn5wSafr9A8wIIa16ISXd21b4gaUWIuSdpSmK+eulQ94mhgzRLRxSApatXPE/SOkmzQmeZKDN/z7JKz9+0fmLviL8BAOPW8u9+abD89y59oNXzNtEMcxvuqfQcEjpIM+R+47/g3DO7rFA/Xzk45z8Gn1k61P3q0CEAoNlKg+WT3PxToXM0wX51aVXfqr4poYNMVu4LwPx5958ttxNC52iSoqXJ90vVEoflAXSM8mB5nsy/rz2/tCdPXrajq/bPoUNMVq4LwO5zMR8MnaOpzA9SvfAvoWMAQLPUzL/g0vzQOZrsw8sGy+16q/mY5LYA9K3qK5jbV9SBDzNy6a3LKj0LQ+cAgMlaMrz8NZLeGDpHBhJJX1u4YWFuX56W2wKwo1h/r6SjQ+fIiMntSwFvDQSASetb1VdIGoVz1IE7apIk8yNnbZ7zrtAxJiqXC8yCc8/sknnrr5hvJfMjrzry5z2hYwDARO3sqq2Q+UtC58iU+cfzekFgLgvA/LkPvF3Sc0LnyJqZfyL0o4IBYKJc+ljoDC3w7O3F+ltCh5iIXBYAJelHQ0dokaNLlfLJoUMAwHgtHep+naRjQ+doCfO/Ch1hInJXAEqre0+Q22Ghc7SM+VtDRwCA8Urc3hY6Q6uY9OIlw8uPC51jvHJXANIkPSN0hlZy6dS+VX25fcIhgPgsumjRTJeiuoYpccvd2pSvAuAyk04NHaPFZu7sqp0SOgQAjNXU7TOWKsePZp8Ic+vL2zVbuSoAS4a7X6pAL7AIyc25DgBAnrw2dIBWc2n+0ko5V6enc1UAErc/D50hkOi+TADyy6Uod1pMytUalasC4FLHvIZxXNwO4/0AAPKgPFieJ+mFoXMEkaSvCh1hPHJVABLp8NAZQrFdXYeGzgAAz2S00MjVYfCmytkdarkpACtXrkxcekHoHKE0zCkAANpe0ijEvK16UZ4e4Z6boFceccOBkqaHzhGKmUdbfgDkh0nPD50hoBlXL7g6N289zE0BSMxnh84QkklRf34A+ZBGvq0qNAp7h84wVrkpACb9WegMgcX++QHkgCVpVPf//6lajrbVuSkAnqQzQ2cIKc3RHxWAeLlb1AUgTzur+SkAaVIMnSEkkwqhMwDAM4l9W5WntSo3BQAAADQPBQAAgAhRAAAAiBAFAACACFEAAACIEAUAAIAIUQAAAIgQBQAAgAhRAAAAiBAFAACACFEAAACIEAUAAIAIUQAAAIgQBQAAgAhRAAAAiBAFAACACFEAAACIEAUAAIAIUQAAAIgQBQAAgAhRAAAAiBAFAACACFEAAACIEAUAAIAIUQAAAIgQBQAAgAhRAAAAiBAFAACACFEAAACIEAUAAIAIUQAAAIgQBQAAgAhRAAAAiBAFAACACFEAAACIEAUAAIAIUQAAAIgQBQAAgAhRAAAAiBAFAACACFEAAACIEAUAAIAIUQAAAIgQBQAAgAhRAAAAiBAFAACACFEAAACIEAUAAIAIUQAAAIgQBQAAgAhRAAAAiBAFAACACFEAAACIEAUAAIAIUQAAAIgQBQAAgAhRAAAAiBAFAACACFEAAACIEAUAAIAIUQAAAIgQBQAAgAhRAAAAiBAFAACACFEAAACIEAUAAIAIUQAAAIgQBQAAgAhRAAAAiBAFAACACFEAAACIEAUAAIAIUQAAAIgQBQAAgAhRAAAAiBAFAACACFEAAACIEAUAAIAIUQAAAIgQBQAAgAhRAAAAiBAFAACACFEAAACIEAUAAIAIUQAAAIgQBQAAgAhRAAAAiBAFAACACFEAAACIEAUAAIAIUQAAAIgQBQAAgAhRAAAAiBAFAACACFEAAACIEAUAAIAIUQAAAIgQBQAAgAhRAAAAiBAFAACACFEAAACIEAUAAIAIUQAAAIgQBQAAgAhRAAAAiBAFAACACFEAAACIEAUAAIAIUQAAAIgQBQAAgAhRAAAAiBAFAACACFEAAACIEAUAAIAIUQAAAIgQBQAAgAhRAAAAiBAFAACACFEAAACIEAUAAIAIUQAAAIgQBQAAgAhRAAAAiBAFAACACFEAAACIEAUAAIAIUQAAAIgQBQAAgAhRAAAAiBAFAACACFEAAACIEAUAAIAIUQAAAIgQBQAAgAhRAAAAiBAFAACACFEAAACIEAUAAIAIUQAAAIgQBQAAgAhRAAAAiBAFAACACFEAAACIEAUAAIAIUQAAAIgQBQAAgAhRAAAAiBAFAACACOWmABSkXaEzhGRZfX63WibjAmh32Xz3I9+m+xjJEQAAEZlJREFU5Gmtyk0BcPOtoTME9lhG427PaFwA7Sy7bWpW26pcaBQaj4bOMFb5KQBuUf9ReXZfqm0ZjQugnbllUgBi31kr5qgA5aYATJEeCp0hsEw+v1EAgFhl8t1PIt9We+K5+fy5KQCV3sr9kraEzhGKSbdkMa5LUbd1IFZZ7amn0q1ZjJsTD1dL1QdDhxir3BQAKbtFMBfSJJvP7va7TMYF0NbM7e4sxk2y2lblw82hA4xHrgqAS78MnSGQ+uisrdl8qczvzGRcAO0uk+++Fes3S2pkMXbbc/vv0BHGI18FwO3HoTMEYX71xadcnM25ere7MhkXQHvL6Ls/0j3ymEvXZTF2u3PzH4XOMB65KgDFJL00dIYQLE0y+9zGEQAgThl+902Kc1tdrG8InWE8clUAhnuGf6sIrwNIC41Lshq7Eff5OiBaBfPMLtZL3DLbZrUtt1+uKa3J1TVVuSoAu10QOkCL3TNjdGpmpz7WrRj8taR7shofQFu6Z/cOVSYenbN5g8w3ZTV+OzLp+6EzjFfuCkBR+pYkD52jZczPH+gfyPqCmp9lPD6AduL20yyH33jyxrrcvpflHG3GVazn7vPmrgAMlYd+JSlXF1pMgluSfjv7SfyKrOcA0FYuz3oCd/um4tlZ21BdXs3dBdW5KwCSlLp9LnSGVnBppLq8mvmtj26e+cYAQPvwJM289K/trdxo5uuynqcdJG6fDZ1hInJZANb1Vn7o0tWhc2QtSZPPtGKe+zYdcLmkza2YC0BwD2/b+5GWnPZrSJ9uxTyB/Wykt/KfoUNMRC4LgCQl0j+EzpAll4arKwavasVc17zn6zVJ61sxF4CwTKpuPHljvRVzresZvtLM17ZirlBM+kToDBOV2wJQLQ+tlzQUOkdGdiSFxkdaOaG7dep/SwB/wM2HWzlf3e1DMt/Zyjlbxu3Canno4tAxJiq3BUCSrNj4kDrwbXbm9plWX1Ayo15c37FfUgBP2LFr+o6WLljry0N3KKfnyJ/B1kKSfjR0iMnIdQGolqq/MfMPh87RZD+bVi+e3epJB/oHtipN1rR6XgCt41I1s8eK78G998/7J7XgzoNWMukDWT5LoRVyXQAkqdoz/O+Szgudo0k2F6XTBvoHdoWY3KSvhpgXQGskbueEmPea93y9ZsXG6ZIeDjF/s7n0/Wp56Fuhc0xW7guAJE2vdZ0l6eehc0xSPXV70+7nHARR7a1c6lKu3mYFYMxuqpYrwV6oVi1Vf2Nub1P+3xR4bW3G9neHDtEMHVEABvoHtjZqXa+XdFvoLBPk7vaedb2VH4YOIunfQgcAkIlzZGEfzFPtrawx6R3K7wOC7kxrXUtDnEbJQkcUAEla3z/wQJKkS0y6N3SWcXP72Nreyn+EjiFJ6qp9W9KjoWMAaKotO2tdbXGqtFoeOs/N/y50jgm4J0nSU9b1D3TMOw46pgBI0kj3yO0F6UTl542BDbm9b01vpeUX/T2dtcvWbpb0hdA5ADTV5y/pH3gkdIgnrO0Z/pyZv19SGjrLGN2ZJOlJI90jt4cO0kwdVQCkx98V0OX2GrX/C262y7xvTW/la6GD/Kmdta4vqEMu1gGghxpTR78cOsSfqvYMnyPz0yTtCJ1lj8yvaNS6Tui0xV/qwAIgSZXeyv333j/vVfb4OwPa71yT+c2p+QlreoYroaM8lUv6Bx5x88+HzgGgCdw+t37J+rY8rbemZ/hCd1sg6cbQWZ6KSV+fvmvKSev7Bx4InSULFjpA1pYOlnvN/BxJ+4fOIslN+rfRGds/2u4XkfSt6pu1o1i/WeYHhc4CYMJ+a8XGYdVSdXvoIHvSt6pv1vau2hdNeqfaYV0y32Ru76uWhzr6Canh/0O3QE+lZ3bd/FNye7+kQqAYP3fzs9b2DGf6Hu5mKlV6Vrh0YegcACbG3HqqvZWWPvp3MkqD5Ve59BWZHxkoQirp/C63j1R6Kw8FytAyURSAJywfXn6ke/L/uGuFWnf641aT/vmx2Vu+26oXcDTTssHysMyXh84BYHxMGqyWh1aEzjFeCzcsLM7cPOet9vidAi9o0bSppAF3+99reytteToiC1EVgCeULlxxWJqkH7bHL0CZncEUqaSfuNvXZtSLAwP9A7l98EWpWnqO1wu/lDQrdBYAY/ZYI01evH7F4N2hg0xU36q+ws6uWr/c3uvmr1Y269Vmmf8gMf/iSPdIXu4ea5ooC8ATFn7z7dNmzdm8TG6nSjpZ0ryJjmVSLTX/mbmttWLj/Gqp+pvmJQ2rNNT9Hndru7sVADw1M3/37sekd4SeSs8hDbc3p0m62NyOl1ScxHD3S9pg0kB96uia9UvWjzYpZu5EXQD+iMuWDHe/NEmTV8r8MEmHSXqupH1kPktu0/T4HQVbJD22+4FDN7t0i0nXT6t1/WSgf2BrwE+QqWVD3d+V25tD5wDwjH6wpjx0eugQWelb1Tdrx5Rdr5HbUXI7bPf2er4eP0o5R5JkvlNuW/X47cx3SbpZbjenSXrZuu7hG0M/EbFdUAAwJru/dFfJ7bDQWQA8rdsbU0cXtOttf2gvHfkcADTfQP/A1sT8TWr3h3YA8doht1NZ/DFWFACM2Uj3yHW7n9yV24sagQ7VcLe3rOmt5P2tqGghCgDGZU3PcHX3M7wBtAmXPrK2tzIYOgfyhQKAcav2DJ8r88+GzgFAkvS/15aH/jV0COQPFwFiYlxWGur5kksfCB0FiJVJX6z2DH2Uq9oxERwBwMSYvFoe+qCb/23oKECMzO1z1fLQR1j8MVGhnouPDnHbBbdc9sI3HrrTZK8LnQWIhbl9stpb+UToHMg3TgGgKUqVnr9w6SuSpobOAnSwUZPeWy0PfSt0EOQfBQBNU1rde6wnaUXSc0JnATqO2+/M7dTqisErQkdBZ+AaADRNdcXgtY1a13GSNobOAnQSN78srRePY/FHM1EA0FTr+wce2Dp7y+t3Xxy4K3QeIOfq5va5Gbum/Pm6/oFNocOgs3AKAJlZPrz8yDRNviXpmNBZgBy60aW3ry0PXRM6CDoTRwCQmZHukRum17pOMOnT4h0CwFhtl/Sp6bWuBSz+yBJHANASy6rLDrJ68R9c+gtx+ynwVFIzrS64/maoPPSr0GHQ+SgAaKnlw8uPSdPks5IWhc4CtAsz/6Gnyd/yMh+0EgUAQSwbLB9l5me5+VvlNi10HiCAXWYaViM5u7pi8KrQYRAfCgCCWj68/MA0Tf5S0hmSnhU6D9ACv3Xz79Qbha9ctGLw3tBhEC8KANrCypUrk2uO/PmJnqR9kvrldkDoTEATPSxprZt/52XXH3PpypUr09CBAAoA2s7CDQuLMx/Z+xVJmpwsaaGbnyBpeuhcwDjsMLcrJG1Mk3TDtr0fuXzjyRvroUMBf4gCgLa3eN3iqcVdUz7gbmeHzgI8EzP/6/qUXf+6fsn60dBZgD0phg4APJP1S9aPlio9t4fOEZT5FZ4m/2/oGGNhSfpRuZ0QOkcwbrez+CMPKABAHqTJ3Wt7KwOhY4zFssFyv4xX1APtjicBAgAQIQoAAAARogAAABAhCgAAABGiAAAAECEKAAAAEaIAAAAQIQoAAAARogAAABAhCgAAABGiAAAAECEKAAAAEaIAAAAQIQoAAAARogAAABAhCgAAABGiAAAAECEKAAAAEaIAAAAQIQoAAAARogAAABAhCgAAABGiAAAAECEKAAAAEaIAAAAQIQoAAAARogAAABAhCgAAABGiAAAAECEKAAAAEaIAAAAQIQoAAAARogAAABAhCgAAABGiAAAAECEKAAAAEaIAAAAQIQoAAAARogAAABAhCgAAABGiAAAAECEKAAAAEaIAAAAQIQoAAAARogAAABAhCgAAABGiAAAAECEKAAAAEaIAAAAQIQoAAAARogAAABAhCgAAABGiAAAAECEKAAAAEaIAAAAQIQoAAAARogAAABAhCgAAABGiAAAAECEKAAAAEaIAAAAQIQoAAAARogAAABAhCgAAABGiAAAAECEKAAAAEaIAAAAQIQoAAAARogAAABAhCgAAABGiAAAAECEKAAAAEaIAAAAQIQoAcsHNd4XOEFSSjoaOMFZuXgudIbDc/K4QNwoAcsGlx0JnCCw3nz/JUdYsWJo8GjoDMBYUAORCwXxr6AyB5WlRzVPW5ivW4/78yA0KAHLB3B4MnSEklx4KnWGs8pQ1C2mSRv35kR8UAOTCcPfw3ZK2hc4RSuJ2S+gMY2XSraEzBLRtzbI194QOAYwFBQD5YHJJt4WOEUqaowKQp6wZuHn33yrQ9igAyA2TbgydIQjznTPqxTtCxxirdNrO2xTrlfBuvwwdARgrCgByw91+HDpDEG4/HegfyM1tkOuXrB81tytD5wjBpR+FzgCMFQUAuZEUGhtCZwjB3C4NnWG83DzK31WXee5+V4gXBQC5MdI9cruku0LnaDU3/8/QGcbLzS8OnSGA24bKQ78KHQIYKwoAcsXNvxc6QyuZdMeanqGrQucYr7Xdw5dLujN0jhaL6m8T+UcBQK5YvfhtKZ6rrF06L5dXlZvcpPNDx2il1I0CgFyhACBX1py6+jZJl4XO0SINKzS+EzrERNWlb0tqhM7RCub243W9lZiff4AcogAgd8ztc6EztIT5BdXl1dxe87C+PHSHpAtD52gJ88+GjgCMFwUAuVPtrayRdG3oHBlzT5PcLypWaHxaUho6R8aur/YM/TB0CGC8KADIJXP7ZOgMmTL/3treSu4ffFRdXv2lpIHQObJk0sdzeZ0GokcBQC7tPgpQDZ0jI48m5n8TOkSzpLWuD5v0SOgcmXCrVMtD60PHACaCAoDcKkoflLQ9dI5mM7dPjHSPdMwLZdb1D2xyt38MnSMD21K3j4QOAUwUBQC5NVQe+pVLHbUBNrcN0+rFr4TO0WzH3XDUFyVdEjpHM7nbB9etGPx16BzARFnoAMBklSo957n0ltA5muC+Wpocc9GKwXtDB8nC8uHl+3uaXOfS/NBZJs38gjU9w28MHQOYDI4AIPcsSc+S9PPQOSbFfKeb93Xq4i9JI90j97n0JuX/TYHX7Zq+412hQwCTRQFA7o10jzzW5bZI0m2hs0xQKumMtT3DPwkdJGtrykMbTTpd+X1A0J1prWvJxadcvC10EGCyKADoCJXeyv1qFJaalLc96NSl963pGY7jgTmSquWhIZc+oPw90vmeJElPWdc/sCl0EKAZKADoGGtOXX1bQTpR0i2hs4zRLjM/Y2156Ouhg7Ta2vLQV+V2hkm10FnGwqQ7kiQ9afcbKYGOwEWA6DiLV/XNLXbVqi4dHzrL0zHpEXPrG+mt5O5Vv820ZLD8hsT8B5L2Cp1lDy63YmN5tVR9MHQQoJk4AoCOs75/4IHHZm951e53BrTjYeZr69KC2Bd/SVrXW/lhmiZHmnRl6CxPwWX+5em1roUs/uhEHAFARytVenokndMmt57VTfpSfero369fsj7vV8I31eJ1i6cWR6d+dve1AYXQeSTd40n6vrXdIyOhgwBZoQCg4y26aNHMqdtmfsLN/0pSMUQGl65O0uSs6orBq0LMnxfLBstHyfwcPX4tRwh1mZ/TmLLrE+uXrH80UAagJSgAiEZppPQSbxQ+Luk0tW4v83qZf2ZN9/BqXhgzNitXrkyuPvq6PqXJx2V+ZIumbcj8Ak+Tz6ztrdzUojmBoCgAiM6yC1e8UIXGByW9UdK+GUxRN/OLlCZfq5Yra1n4J8hly4a7l8ntvZIWKZujNw9KuiBJ0i9xhT9iQwFAtPpW9U3ZWawvdvMVkl4r6cBJDLfdpctMWtvl9v1Kb+X+JsWEpCWr+g6wrtrpkpaY9EpJMyY8mNvvJP1fLzRWb9p0wPpr3vP1XNyKCDQbBQDYrXThisPSJD3RzA916VCTXiRp1u7/zdbjbx7catJWuf3Gk/QWd7vFk/Ra76pdyYV9rbF43eKpVus6vuC2IE2TQxPpRTJ/jv/P72qGpC2Stkra6tKtJt0i85sT85+OdI/k5TkRQKb+fwirXAhqXDBIAAAAAElFTkSuQmCC;" vertex="1" parent="9bB9l0TLLNUMmVkwr5hN-20">
          <mxGeometry width="30" height="30" relative="1" as="geometry">
            <mxPoint x="15" y="15" as="offset" />
          </mxGeometry>
        </mxCell>
        <mxCell id="9bB9l0TLLNUMmVkwr5hN-54" style="rounded=0;orthogonalLoop=1;jettySize=auto;html=1;entryX=0.5;entryY=0;entryDx=0;entryDy=0;" edge="1" parent="1" source="9bB9l0TLLNUMmVkwr5hN-23" target="9bB9l0TLLNUMmVkwr5hN-51">
          <mxGeometry relative="1" as="geometry" />
        </mxCell>
        <mxCell id="9bB9l0TLLNUMmVkwr5hN-65" style="rounded=0;orthogonalLoop=1;jettySize=auto;html=1;strokeColor=#0066CC;" edge="1" parent="1" source="9bB9l0TLLNUMmVkwr5hN-23" target="9bB9l0TLLNUMmVkwr5hN-55">
          <mxGeometry relative="1" as="geometry" />
        </mxCell>
        <mxCell id="9bB9l0TLLNUMmVkwr5hN-23" value="Internet" style="ellipse;shape=cloud;whiteSpace=wrap;html=1;" vertex="1" parent="1">
          <mxGeometry x="620" y="300" width="120" height="80" as="geometry" />
        </mxCell>
        <mxCell id="9bB9l0TLLNUMmVkwr5hN-57" style="rounded=0;orthogonalLoop=1;jettySize=auto;html=1;entryX=0.5;entryY=1;entryDx=0;entryDy=0;exitX=0.595;exitY=-0.013;exitDx=0;exitDy=0;exitPerimeter=0;" edge="1" parent="1" source="9bB9l0TLLNUMmVkwr5hN-51" target="9bB9l0TLLNUMmVkwr5hN-55">
          <mxGeometry relative="1" as="geometry" />
        </mxCell>
        <mxCell id="9bB9l0TLLNUMmVkwr5hN-51" value="" style="strokeColor=#dddddd;shadow=1;strokeWidth=1;rounded=1;absoluteArcSize=1;arcSize=2;" vertex="1" parent="1">
          <mxGeometry x="728.75" y="420" width="200" height="60" as="geometry" />
        </mxCell>
        <mxCell id="9bB9l0TLLNUMmVkwr5hN-52" value="&lt;font color=&quot;#000000&quot;&gt;&lt;b&gt;Google Play Console&lt;/b&gt;&lt;/font&gt;" style="editableCssRules=.*;html=1;fontColor=#999999;shape=image;verticalLabelPosition=middle;verticalAlign=middle;labelPosition=right;align=left;spacingLeft=20;part=1;points=[];imageAspect=0;image=data:image/png,iVBORw0KGgoAAAANSUhEUgAAANIAAADiCAYAAAA745nvAAAAAXNSR0IArs4c6QAAAARnQU1BAACxjwv8YQUAAAAJcEhZcwAAFxEAABcRAcom8z8AACAoSURBVHhe7V0JmBTVtb5xN25JjBqNRpMYjXtiTEyiaGJe4p5EjYnPGH36jPo0xBUZgenqBgZBRRCjkU2NIiiK4gIIoqKgILjhgooLiuAGAtNVvcz0ct/5T92GEQuYpZdb1ef/vv/rmRG7u26dv8655557rhIIBAKBQCAQCAQCgUAgEAgEAoFAIBAIBAKBQCAQCAQCgUAgEAgEAoFAIBAIBALr0fvz3ZSTPELFvLOU4zUox+2r4m6/NUwRkw79/R/KSZ2s+no/Vt2Lm5v/WyCoYzQ0b68ak91ULHk+iWU4iWQGvX6s+rVqNUh/kdcQrybG3Qz9uzeJE1XcI2GRqJyVe5h3FAjqCCyg1KEkhEbifNWvxRdJ/7xWfbNaJVIkGC+YiYxmoTUVfYHFvZXE4SrhHa+c5buqU/XG5lMEgojCeXIT8iQ7UgjXR8XcpWoACQGiiK9HOBsihMWeyktRWHgnvf9RJKhtzScKBBHDDTSfSaR/QaHZcywceJ4gYXSW8GJNBfwMDzVYOav2VI7ezHy6QBABDC5uSXOZ85TjLf+C8VeKjlukz1pCc6/e7AUFgtDj8o+3IhFdSJ6oJdDoK0ITKjpumgT1mnLSp5F3EkEJQoqeK7YjAV1MdFVfmst8yeArzES69PMyEtVk1ZjuZr6ZQBAiJFKncIiFbNzaRl41kndCQsNx88SF9H2G8RqUQGA39Ff4pbH5UDLaGSYBUHvCOyFL6Id7M4hXKmfFd/i7CgRWwln1DeUkh/prQqvDKwvoFvk7+YJK0u+30eufeV1LILAOTvJcMtDFtQ3pNsC+LX663PE+oe86gFPzlxa3NFcgENQYPZZtQ4Z6Dz/1gwzYNsJD+aVH81TM+7tysntJylxQe8SazyYDfVv1z33ZaG0mypT60Xd2vOkq4R3Na19SbiSoGZzkGDZMq+ZGHSA8FDJ8cW8ciepgc1UCQRWBsCjuzbMmU9cV+oWzyyjcu1E5RandE1QRjns68b3QhXVBXFOBniW+Td7pCjVcb2quVCCoIOLeEOLKshek1pKoyPCrMj4lMc3i/U8CQUWBiTqMb337iUJJuh6ky5GQcLw36ffR5Hl/Za5aICgzHO+VSIR16yQJqjT/c9y59Npb9XX3M1cvEJQJce8Nqxdhy0VkJLH25Lge/T5BOekzVb/07mYUBIIuwvEW1IWQmKbcqIkXnleSqG6mkPZQ5eivmdEQCDqJuhJSG0JQuG7H+0zF3MuV07yXOk8yfILOol6FVCJCPn+O+AaNxQkU/n2dPNRGZnQEgnai3oXUluyh3Edp/nSE0mZriUDQLoiQ1pCXANwCiSmtnNQdqm9yHzNKAsEGIEL6IiEmtAvjfhXuWyqG7kbLdzWjJRCsAyKkYJaqI/zNhDNVLPl/NHf6qhk1gWAtiJDWT96qQYy7iyjcG6Mak6eYkRMI2kCE1A5SuIdmLNxh1puvYm4/CgF/urrXhUAgQuoAMX9CuZEvqMf4IAFn1ffMSArqGiKkjhOC8nuX52j8xqhE+kjVVNzBjKigLiFC6jzXCMqlcO9aro6QhESdQoTUdUJQ/naN5cpJXsDdaqU6os4gQio38zSmr3F2D81YBHUCEVJ5Ce+E6gj/lML7pXd5vUCEVAGSmPzORlka3/fo9RblrDjQjLggkhAhVY6lIz/9zYSzib1V/+K3zcgLIgURUuXJe5+4keUKCvnupb+dreTsp4hBhFQ9wjv1597liyn8u1o5maNEUFGBCKn6hKAG8vrTcyrmdiePtY/sfwo7REi1I8I9/+CCB5XTfIK6KrmDrD+FFSKk2pOPqnFb6ec7lZP6mXIWbWHujiA0ECHZQ05IuGjG0qR6pb4t3ilMECHZyFYS07skqsvMXRJYDxGSfeTqCHp1vFXEOfT7H8zdElgLEZKlRHUEHwQALqb7NF41YjOhwE6IkOwmvBPfHzdH4nqRwr3+ysnua+6ewBqIkMLBUu9y7H2Ku5OUk7pA9fJ2NndRUHOIkEJE07sca09cbuTdqBqbj1XOSuldXnOIkMJJbCTk42rcD+keNlDId6DqvnBzc1cFVYcIKdxc7aHcWcTTlLPiO7L+VAuIkKJBCCrBe6AeUU7ycBaTCKqKECFFi0hK+Ltzb+ViWEGVIEKKGM1irr/d/UMVcweRZ5LavYpDhBRNsmdiUXkkqJdIUBfJVo1KQoQUbWLuBDruEhLTFLrfx5k7LygrREh1QPJM2Ezo9494mf42RDnNPzcWICgLREh1RBJUUxFiKtJ9n0Gv/1QXrtrTWAJBQr/OQ4RUf8T8qYkmTHFv1b7DM3f2mJv/2xWzWn5kLELQKYiQ6osOsdHTWw/0ioeOyemG+VqP+FDrGxbmp9/9afGgM6dLu7DOQYRUPyQRbd7f0zsOTun/faJVT1xZ1M8VtX66VeuZ9Hrvcq3jL+dGDn0n+4Puk4tSbtQhiJDqghslPL1pP0+fOLFFj/ukoJ9u0frJrNZPZNYQvz+V03rU4nzBeTl/zkWPFbeXlHl7IUKKNskLQUQ/uT2j/7O0qKelviieID5OnEGiuvGd/IeXPZv/K1mJiGmDECFFkzGfP/h3Wifm5/XDq4r68fSXvdC6OIM81mMkusnJQubmdwszTp+aO9ZYjCAQIqRoEQLq7eldh6X132e0khcq6KkehWwI5QIEsz5yqJfXeqpbzN+3rLDkxndyd5/4YOthxnIEX4AIKRpENq7B1dsO9PQpj7ToIQsL+qGVRT2z1Q/TgoTSXj5F7/FUQcOr5ccvKzzvvJS77pBb07sZCxIwREjhJgTUx389YlxG95yb0/cuIwHl/GxckDA6S7wnsnvjPilkxn5cmNB7Xutlp47/dGtjSYR6TkzYIiQYRCORwhLVy9XqqjbE7/g7/jv+XdD/X28sjRe97knzoL9ObeEwDh5oFhl8kBDKQYR7Myncm6m1vu3DfPNdHxWGOC/kjlF1f3ZurYUEg6C4HqnZbw1J6X1HpvUvxmT0Lw0PuyujD70jo/cfldG73JDmf1d6Age+Xz3QCGjnoSn9u3uzut+reT2bjBsC6ug8qLOEoJ6hcO8pEtTID/JvDnkr32Pgq9l91JFP1unpGrUSkhHQJiQMTIx/SwbR47mcHvNxQc+l8OF5ukHziC8QEVLc/VlR934hp38zPqt3uj6lN+lr3iPovaNKXC9xywEpfcDojG6Yl9PP0NiAQcZeDUK4c+gePUpCHvF+/tmhb+VOumhWahdjXXWEWgiJjGFjEsK2A1P68LuyPDGGcNY3Mcbf8cRF9unGd/L6kNszesumgPeOKmnM8PDYZWhan/lYi77/86J+low3aKxqQXio2XQPH1yldf9XClObXsn+cNAbxW2MldUBqiykr+CVPNHPKFwbujDPAuloVgk3Descf5ncore+OlUXngkiOunhFj32k2JNPdCGWLo3DyzPt/Z5oXXMn+6pl5PdqyUkGDvF9rv/K60HLsjrSUl/BT3oZnSEqBn72jUkJswbgj43zMSY0Xyw29is/vcifz0I11yteVBnCCEhWwiPecyETOtGCXeeamw+XkX+ZMJKCwkLhGQMX782xTH93Z8WecUcAw4G3Yz2Ep5selrrUye16K2uNp8V9B3CRlwHPRj8qoScvm+5X5XQUc9dTeJeogB24oqiPmNaq971hrTeYgA3YsnTNa1UTnKMSrTtXR61VHmlhARj6EXzoEEpffrUFj3yg4KenCzyHKecBoF5FZ5+3cZm/BR50HcJC/mh43I27qKZOX37kjZVCZaKiJMNBb+cqOH5nN5/VFpvTXNfvhZ4VPQu93fmpukaX6e/Xaf6Nu9trC9CKLeQMHgNLnmIlD7u/qwe8Fqen6iYGFfqiYonYY+5Ob3j9fQERGo86HvZTBhdT1dvQw+dPzzUoq99I68fafazcbZ6IQgI3w9h3DUUqh//QJaXLzjEDgqzcbIGDlKLu83knabTa3fV5O5krDACKJeQIKBeLqezD70zoy+bk+OJ8Wx6WpV7hX1t4v0h1hMmZvmJHvj9bKQZM2Qff05jdvlzOX3PZ34yAV4o6FprTQgI441IAFHGWdNb9V63IISja2lPRIBWy7A3x/uMvNStKuaeGo1Gll0VkpkQI6u038i0Pm1Ki76NQhJ4oEqusK9NLEj2fzWndxsWAq+EMcNTm15/ODyt/zathcO4ZzBmFX7odIXYwwQBjV9W1FdRGHf4WHQnoutA5Qleg651XUS4x73LvXfp/21QTurn6tTxGxurDCE6KyQMHEIS+vk7N6b1sROy+pb3/RKVWqRncZNRpIknpNUZPDN32OH6FM/r/vVunp/wNqe0EV6C2Ipxw9sF/efJLXpzrOHhgdVRAX2BZv40kE/XeJr+dhb3Lg8lOiMkMoavJDxOOx80OsMxPQwBIqplanYOzZVufq+g9yBhl0RuDY3BbUMT8f1G+KEvxquaZT0dJRIcENA0T+s7lhb0+U+16m9eR8bfGQ+0IUJQOAwgnhpN3ukQ5by2mbHQkKCDQoKAwO/fnNaNL+XZCGyJ53HTp7hFffkcuimWhXdYiN6ZJuPnzWj15xmWzoFKhIiQckemtfHFHKfiuYC43AJam/7ZTwuVkzxXOYtC1Gq5I0KikAnGcBE9SrGgamNKFk94zDe+dxPd+Erf9PaQPONWA1L6hAey+o6PCtYmEdYmvOUNb+f1wbetPse2ekSGz3E94jXGSkOADQkJxkhP922uTnGN151kDNPNvn8bQxJ4pUddrWMv5WrrlRBa0uf/+p6svonCTayz8FbvgO9sC/FghICQLDqKvjdCd0Qf1X8gUfiYYAGvpM8eZizVcqxLSEZAW9Ck8uRHWrhEZVJzkQccxrr2TbCJeOpjc9uPb63B0xQCanD1QfTZqEqYYKoSbPZEuJ/IGD5KYfFZ9LD8dmm7CmygZl6dxMSeyfuMfm4y1mox1haSERDS2XiaNr2a0+M/K/JgcwungBthG/Fd4QEGvp7Xm/WjG1INYzAeCNXZmJRjjQXfARk5a6sS6HthMZurEubluKJ+u1LdYs0E1IaoioCY4u4HKuEdbyzWUpSEhIHr5XLrJgzopbNz7OLxJGVjCLgRNhNGMpnmcSj4xEOhYoZhBIRSqONoHgTxYv6IEMlWz417iYVy/Hzdm3l97P1Zro3DdfD1BF1nrcjH09Cr4861uxICQornWUDIxGFB9aZ3C1wKz6lZS41hQywJf8jCPO97KruBmAfPFk0p3sl7ybOtetynRa47szWMw5hA4HgwwmMig7j3cAjI9UUUdJ02EPMlPprGa1Ddbe0AS0La6caCPmZCVl/9Wp6LJPG0CquA1ia8wq/uzq6J+YNuVEdJRocHD7aE/PejLfrWDwtcWQEjDfoONhDiBlF9H5+fZ/HjGnhNKOgaraNbVDF3qepjacHrIbenF1z5oh8GIV62NRzpLHE9IxcX9O5YpO1qxYPxajsM9nf2Xv+WvxBdzVKojhLXDwGhKgE7i3//UIv+6gDy0PBANsyDOkK/6PVS1XPFdsZ87cH0dHEBtghHTUBtOZeuD/MA9kqdCfGMwaFXwp4U/ja9luP3tbmsB2EcogokEsZ9UuRtGdvRPM6aREJniOQDDkqz0Ss9kSkumEWGFnQzokI8kUeRV9pvJMXanZgLoL/EDoPT+pwnWrl3tu1VCSVOcTVvY0EtZJe9sS28WpOg3N8a87UHT5BHirqQQMz7UNDKPR7a65XI+LCv6k+PtOixZmdv0HvbxFIoh7AT2Vd4H+6TERUiwxxzm6zL4NWLkJAIuH1pgZuucM1Y0E0q0SQTDr8rw2UyU2j+iPewOQEDAWGOi8QHWpuhOBaeNLRh3LqI/Uxxd4rq4x5gTNgO1IuQSqnfS2e36m8OXodXQvjTy9P7jkjzfhtUJaAnBJ7wQe9pAyEg7P1C37+zH/c32a2eC0ZNRKBf7fCeSqS7GRO2AzYICU96lKjgiVpa/6kEISTspEXiQV3prgl5YHQNLhe6nj+jVd+yqKAf9fxkgq1eqCQg/HzFnJw+GFUJSCbgWtobuoaSdI3cAyL1e2PCdqCWQoKRllbYsXCKqvJKZw8hjr6v5Nf0dyCiwxGqszExR8ErRI0F6aD/v9ZsO2bYB4Zed7sMJePCtUQlobAhXoOtFqmTjQnbgVoICV6nlDpGTH8hCeiAURmK6z09jOYkpX/T9v8pF+GV0DLqzMdauXTokP9k9MXP5vhvWA+yNYzDeJQqTUbTmKEqASHo6sMFggwuqhyEDYDpvxkTtgPVFhJSxzBWNPnAVodf0oSeB6eXy5NjNE7B4nAlQyqIadQH/pZpLNYipLR5HoTvBg+J4uH4/BwfMsBlPWFvP9ZZ8tb05IVW9carlpAQsoF48mN/DkqSNutPg9J22zJeKb4f/GaeU82VFBMEjbo41J0F/XcbiOvH90RVwvD3Cxx+4lTy8JT1VIjwSI57hjFhO1BpIZVCNCwOjv2kwKfJoWUXP00DskrYSLb/yDQ/fW32EpUmxg29EiAiLARvj14JCOGimInrKFlIdTZHghdiY3jcNLwPGpi1SQaD9DPEV+nkg42EJ0LSo/HFPCcSOLsoAlpDCCmRPMWYsB2olJAwMUYlOTaM8XlG8EJBgxJEMhr0e8O2dpvr2crN0lwInZAOHJXh9SDe6h00RvVK7E9yvOUq4f7GmLAdKLeQICBM5nEk/YGjM2u8UEefqDRXQmbqwZXRD/FwfVgTwtGVf3y4hTcJRrIqoRzkfUnuHG7ZZRPKJSR4DqxvIFHwX/dmeasBhySdTc3S/4ewZtg7eT7BL+gzw06ErTiVEFUJZ0xt4Y2Vod3iUC1iK4XjjlBOZg9jwnagK0LitQ3yPkgf49Q9pJP3viXtbxhbRzKhQ+zj6jOmtbBXCkvFdXuIORA2AmIe1Mu0/mXPjTGLdFVCGcipb/cM6xpIdkZIEBDCN/DOj4r6H6QmdM1hD1TOpyl5pZ2HpnXi5dzq1fwwEwJC6AtPNGhBnjOYaJbC4ums564r0sPGcVeQff3ImK896KiQsO4C74CCTuflPFcasweqVDhyladPnNjCfb3D6pVWVyXQ6+jFBX3xM+YEh96uP25B1y38MlH57bi3WNkEpb1CwlMUHshvpJ7nMA6l+hVvY8tzpTSffxTGDF5J/DgMrelVv1dCXdXFlZOOm1WJ5JFqvLbv1IoNCQnhCLJKWNPBIimqo3kbQkOFBdSW9FnYR/TAivBk8DBuIMqd0FzzpIdMVUK9lvV0hdhijuYnjne/6rHMzpPSNyQklOqAl8w2Zw/hSVotAZVIn4mVfYgYIVLQ97SJCOGwjwnh75nTWvzDokVAnSevHblJ4oHWHkq2LiHhaYpTxxtf8k8i4CaLQRdZLVI4hHkF1lpsrnYoJWJwbMse/zIZzKDrEbaP3GnVS6p4sreVIV0JawsJRgABDX4rrw+7K8s9C6xYXY/5/ROQ6cJ+obbGawMRcoLXvVnQB4xK2zNuYabfrjinnNQj6rznNzUmayceN0IqpbOxreDEiVkOpcraVLEcJDGhI87dnxYCjbkWRBYTSRAsA/xmfFbveH3K90I2jVsYCREhpIslH1fOSrsWX4Mws7W44AUSEhqDnPVYK9e4bTmALqRS6eyukIQEcf/uviyLHuFnkHFXg8jGYRsGTr1AKRP63fG2kFrMISNFt8hbyftyk5NJNC/a35iq3bhjaYE7rWKzGKezISCbV9fJSPE90aeuFucNYX6GSo6JK4v6iudy3HH1G9dWYRmgXoi+dQ7mRO5tKpH6qTFT+/HrezILdhhWCM/aBhkrQqejKIzCeU3VSjzA+yFjiAzm0IV5feqkFn8Z4Cr6TrIm1HXyKecsolfo996q96rvGxMNCXq5C1Tf9ZzYZytJUGiCiDRzJcUEj4cwDp+BIzVx6gRXJcBr4+ET9N2E7SfmQk30II+7Hykn9Sjx99amuNeLdZ3YZztJSEeMy1Z0J23pfe+jedB1b+T5rCX2PiKgrhOJBBzX4nge/f4KPZh6WrvY2i6EVUggiSn+cp77cZfTK5WSGNjqjbnY8Q/w2TwSwpWFFA77zfDzxCXEUaph1deNNYYYYRYShVd7/TvNDR3LWfEAUY4nL3TOE6YqwebkS+jIIkpTKPewagxRMmGDCLOQQPISyDjCc2CPT5Aw2kvMhdBh9cq5fjUHe6GgzxR2nAjjOJRzZ/E8iG0vjHOhdSHsQjLGfvBtGW4u+bzueEoccyHsVEUH1p/Q+yC9Xptj8SNIzIWwGS/uzafxPJdEtCsJaBNjfRFC2IUEUuiFlPg+I9K61ws5Xqwt9axb19wJ4iltj0eTlaPvy/ImQq5KQCgnIuoaIaABnM5eQeLpS68HK2fpV43VRRBREBJo5jE7D0lz5cOVz+W4bAeJCJzYB4+DhVS8QjwPrfJP9P7zpBZ90OiMX5SLZIIIqGtE+NZUpHHkZMIIGs/jlJP8prG2CCMqQgIhArOwjMYpqDrA7lqc1H7uk61ciXDBU636TySeoydk+QQ/ricsR3+JemfJA8XdAo3lNBVzu6veme8aK6sDRElIbQnvgta+KN3p6ZfvIAPHoduV5u8ioDIw5Z+i5//+KglpkGpMHWqsq44QVSGtTQhG5j7lJXrM+Zm4JfT7BJXIHmusqg5RL0ISlo9clUCeKO42k4iepwfU2crRWxiLqlOIkITtJsSDVzdLc6APiYloZ+I6AhGSsL1EGBf3XPJCN6t+me9Ga0G1qxAhCTdEbHFANg6niTcmu6nuxc2VtuiQLysgQhKuixAQNtrFvWdoTnSKamjePppVCeWACEm4NpGN4wOPyTZiXg8K5fYnAdnVa9s6iJCEJWKTnV/Ws1w5qetUwv0tCWhrYymC9UKEJISA2AbcDNnD/SqWPF/1XLGdsRBBuyBCql9iPahfjn52Wyh8m8vFpX2zPzCWIegQREh1yJR/sgM3X/TeIxHdoRqTRxqLEHQKIqT6IrwQesfF3RQJyG82IigDREh1RjevYu7bykleoJzl2xorEHQZIqT6IDxRjJMJDfWxP6jaECFFmG22ODipEapPch/laKmNqwhESBEkCQi7VHk+lJpCr0eqqyw8LjJSECFFi7iXoJ/OvlD1ad7b3GlBRSFCiga5dzb3SlhIHKgak4epG4qbm7ssqDhESOEm984mAcXdpXQv76bXv6rLP97K3F1B1SBCCie5KoEXVVPE2eSFLlNNyR3MXSXINofqQoQULmKLN6qzUZUQ994iAY1QTvNe5m4KagYRUnjoVyUU6OdmFXMn1We3HlshQgoLixzKOd4c5SRPNndPYA1ESJbTLKo67mLu1oPtDbLN20KIkOwkwrj+OQgorZxUnOZFqEqQXarWQoRkF1lABQiolXiHamz+hXKK3zB3S2AtREh2ENm4Uu/smDtFOZn/kU12YYIIqfbEYcRIafOJ3mi6uOoQc3cEoYEIqXZEFg4i8nep3k5e6USZB4UVIqTqc00iYTnxWboH55CA6rx3dtghQqoeMQ/iRVUvQ1zk985eJYmESECEVD066JXgfU4cJ/uDogYRUuXpl/agY8905aQPNyMviBRESJUjMnF+37h55I1OU+fpTdV4vbEZeUGkIEIqP3H8iX8k/hskoEuUk91LdV8om+wiDRFS+YgQjntnu0ka1+vp925qUHEbM9KCSEOE1HVCQP42byQT7uIwrr+3sxlhQV1AhNR5rinrKZJ4ZtFY9pFmI/UKEVIniK0NSCLQz473DvEWEtKvzIgK6hIipI4RzUb8RdVlNHbTVGPyFDOSgrqGCKl95OPwQS/FYxZzL5JDuARrIEJqHx03T6/LaD40SDkrv2ZGTyAwECGtn37HnhbyRqP93tmvSXW2IAAipGAimcDhnPekSnhH8xEojt7IjJpAsBZESG1ZXH0kfsx9gX4/SzmpXdVwvakZLYFgHRAh+Vx9JL77DoVxCRLQz5SzSPYICdqJehdS6Uj8uLeS5kIjVWPyJDVQy4negg6iXoWEwlJeVMWJ3t40FfN6qIbm7c2oCAQdRL0JCYup3HzeayW+qpzkMNXH3c+MhkDQScTrSEjcqcfNEz+iB8j9xN+ZURAIuoi493rkhcRpbD4SP6di7kziX2SDnaC8QFN2XnTkNZNoEkJyvMXkiS5RA2QeJKgE0BYX/aUx+Q4ywtCSxIMHRIw7lyZUv/RuZkFVGtALKoBY88UU8izhhchAgwwbSUClzqVx707yRj+VdLag8nCaf0lCep2NL9Aww0IIqGgSCt4MEtCJqveK3c1VCgQVBibdjjvZ90ghnSchWYITHOLefBVP91R9vB+bqxMIqohYspHEtNysr4SHq3tnu+/T7zdxOvvS4pbmqgSCKsNxDyQjfMKUythPJEb8UPRThbNUY8nzuTpbIKg5uA+1lzWTdDuJqgT+fi56Z7+iYh550tQu5goIciSkoNbAmTyO+4idi7M0d+M+CbxLdTEJfix91/3NNxcILAP6sSFcssorIQGCdlfkLZGNc9JHmG8rEFgKNPOIez1VAkKyJIPHjRdTL5PIT1fnPS8b7AQhQe9V3ycRjTS9q2tDbrxIAoq7H5OI/qGa3J1I5JuYbygQhAToFuqkRvCWa79vQXWIeRDP0bBHKHUN8RA1WNLZgjADJyg47q0qjkwZ1pcqKCgWENaDPGxxuI9ejyF+y3wTgSDkcDJ7kmHHOcTCbtJyJyEgoFLvbHTrcVL/VH3cA8ynCwQRwrXFrZTTfA4Z+1Rihif/XAHRBQ8FAeF9/N9fJw5Rjclu5hMFgggD60wx91oS02wy/M/ZO2E+g7CP13jWIyzMs9BkZE1JTyu9Dw7hup280B/VpYtlHiSoM/T5/AASQH/i0ySGRTSX+Yw9FcQEoaD4tS0hOH97d5L+3VIS1hvEcf48SBouCuodp+qNVYLCMce7QsW8e4kI0ZaQWD4i0fjk9LX7Pnmyp+j1Zvo3Z6lecgCXQCAQCAQCgUAgEAgEAoFAIBAIBAKBQCAQCAQCgUAgEAgEAoFAIKhLKPX/ZWW7MpEZpLAAAAAASUVORK5CYII=;" vertex="1" parent="9bB9l0TLLNUMmVkwr5hN-51">
          <mxGeometry width="30" height="32" relative="1" as="geometry">
            <mxPoint x="15" y="15" as="offset" />
          </mxGeometry>
        </mxCell>
        <mxCell id="9bB9l0TLLNUMmVkwr5hN-66" style="edgeStyle=orthogonalEdgeStyle;rounded=0;orthogonalLoop=1;jettySize=auto;html=1;strokeColor=#0066CC;" edge="1" parent="1" source="9bB9l0TLLNUMmVkwr5hN-55" target="9bB9l0TLLNUMmVkwr5hN-58">
          <mxGeometry relative="1" as="geometry" />
        </mxCell>
        <mxCell id="9bB9l0TLLNUMmVkwr5hN-55" value="" style="strokeColor=#dddddd;shadow=1;strokeWidth=1;rounded=1;absoluteArcSize=1;arcSize=2;" vertex="1" parent="1">
          <mxGeometry x="810" y="310" width="200" height="60" as="geometry" />
        </mxCell>
        <mxCell id="9bB9l0TLLNUMmVkwr5hN-56" value="&lt;font color=&quot;#000000&quot;&gt;&lt;b&gt;Google Play Store&lt;/b&gt;&lt;/font&gt;" style="editableCssRules=.*;html=1;fontColor=#999999;shape=image;verticalLabelPosition=middle;verticalAlign=middle;labelPosition=right;align=left;spacingLeft=20;part=1;points=[];imageAspect=0;image=data:image/png,iVBORw0KGgoAAAANSUhEUgAAAH4AAAB+CAYAAADiI6WIAAAAAXNSR0IArs4c6QAAAARnQU1BAACxjwv8YQUAAAAJcEhZcwAADsMAAA7DAcdvqGQAABMVSURBVHhe7Z0JdBRltscRFYGZ8enDUccZfb6ZcQORIWQhS2cBQhKSkJWwhKCyM8HIBERBPDhxwRGXB76B4zLPwZl5I77HDAIyCgqjIrJJAqSzshsQIZBOCCD4uPfdW/VVp2i6SXdS1V3VXf/v3NOHo0l36lf/+9371VfVXTypqhl6zajDl0ZVnj2b1fQkZuBgHHdxHJRC6V8Xw+JY8b9ZCiZ9ehx+krUH1sXZEaO2ISbubMJ0xyxMxjhMwVQcDsObJ8LkdxbCwt7iRywFg0ZWwvKYSsTYHRyA0RJ8B2Y0P0bY4ynkkQM5zVNh6svrcf0d4kctmVX/cQSSbTvhu9ivFPCIMQr8cnK+BD+RIo3cn4LDaORC7uFZMGtWFVT1Er/GktlUsAuWxO1pg94WBH+r7HxO+4rzGT6/8glQAAX2eTBvHCJeK36dJTOIgHVPr4B1sbvdgSfnb1fSPjuf4SdiCsjg1SdBIRRungtzM+n3dRO/2pKRtbERfjZ8F9TFlLsHLwdgjBM+p/0Egbtt8AmQCZnnxsLYj7gDoBPgKvEWloyoNxrg7uEVcCJaNb+7D2XObyv4ZLe7ngKpfAJ8Pwkmvf1H+GMf8TaWjKbFR/De4eVwqn3wqoKPnJ8hzfmU9p24Lx1pNKgFPFkMxQuW4TKrAzCafn8A7suq8A68HGrnywVfCqiRXzo4K+RB3sESKJldDdU/Em9rKdBi8JTqm7wHLwq+7QS/gub8FrnVU4o8d4P/WxqkwQgYse9xeHx8IzReL97eUqD0+6PseHT4Al4OUfBdMuercV8++ARIpzEKRm1+Fp7Ns1rAAGrRQejdMfAcStpvFmn/8mrfdSiZgTPAg/DgB6/iq4nio1jyp/7zEPTJ2tVR8BxtBZ+ywtcefPWgDqB1Ikz8y0JYeL/VAvpREvgKaO44eA7fCj7XwVkgB3Jap8LUxR/BR/8uPpolPaUNeNUKXzm1es607733h9LgFjAXco/NxJlPfwwf3yI+oiU9pBV4OWT4Sdznd8D5yuAToAAKaubi3MnWErBO0hY8heJ8qdWbRZ6/dG3f2yG1gDQKoXD7HJiTj4DXiY9sSQtpDl4KpdVT+vz2q31Pg08AKgDPF0HRxpfh5QTKAFeLj26pM5LAd6qq9xRKta+0ep7X9tsb/HM8MiDj4gSY8N9v49u/Eh/fUkelH3iXzRyU9ttb4fN2ZGKmoxiKX6ET4E7xZ1jyVXqCl8MVfscKPncjD/IOT4fp83fj7hvFn2PJW+kPXrR6vJNH2saltHpqhB0bnD24ABwBIw7MhtlTmrDpBvFnWWpP+hR37qJtbd8JXyPn8xqAuAawrQzKcgHA6gDak//Acyhpn1f4ZpJfOe13rOBzN5QMQB3A2gW4wLoGcCX5F3xbwZfkTPvaFHyugzqA1gk44b0FsKCf+FMtqeVv8HKonc/wbTqglzNANmS3ToEpi9bgmp+LP9kSKzDghfN5Mwc5X4avj/OV9J8DOUdKoGQunQC3ij89tCWB17mq9xyK8znty5s51NC0HMoJkA/51dwBhPw1gMCC55Cr/SRO+y1c8GnT6rU3CqGw/Al8YkTIXgMIPHiONuc7L+lq1Op5GpwBqAC8QB3AJwth4aCQuwZgDPAcAr50o+ZMQqPdCl97g06A8w/BQ396B965XxyW4JdxwHNQ2pcKvlO6tnquQ5n/MyGzeRpMe2UJLgn+DsBY4DnI+eJGzYwWhu8/5ysjD/K4A3gmqO8ENh54CrGZgxd55LTvn4JPGUoG4GsAc2AOdwA/FIcreGRI8FIoc/4pVZ+vxqP/4BNgGAyDAijYUoZl2UHVAhoXPIVzA6e8wqf12r4vgy8CjYWxHzwHzyWJQ2duLeUbKowKnkK9mSNQzuehFJniPoB3F8Nic18DWHqU76Tx/5Ktb6HM+craPjlfwhCYwSdBNmY7psLUV1bCytvEoTSXzAGeQlXwdWb3rtYjG7KP0Anw2ApYcbM4pOaQacBL4Zr29V/ha29IBaD8MCj7LJjFHUB3cWiNLXOBp1C2ce1sxkxn2mfnB879/P7c/vEYA2O2PgVP5dAJcI04xMaU0Ys796FyfjtP5vD34JMgHdK/L7xYuGoaPh9BJ0BXcaiNJXOC52gr+Jw3bQQ47atHPGbgq82Jp9F+55vQMO8ecbiNI/OC51Ccf0os7/pnbd/jkE68FEyinv+lU9F4zt4Nsb4rgv1HJ7E+7AVonP8zcdgDL3OD51DmfKXgC1CrR9C5y0jATPwdQf+ukqDv6YJQ2QWxiqKOToCqmw5CbfRMaNwS+EfBmB88xSUrfGJt359pXzg9gdL7801xeE5Al4LBK1HDcTWdALfugr2xYwAO9xAY/K+gAC9FW9pvu13LiUa/wU6nkUjp/YWmGDxbeV2b0z0FnQBQ1/0C2G/7HA5lD6UC0P/PAgoe8Byuztc/7XN650Lud00DPTvdXdgp6iiqeyDU3L0Cjk6KEEj8o+ACz9F2i7YMX6eCT+X059jpXMi153RPwfN/Zc8WqO29FBom3i3Q6KvOPfXKqCE7v7NP5vA4GLpw+jNNsXiG0/tuN0B9CS4A6+nEqb7xKNT2K4OG1/TdBBKc4DmUtK/cpatRwady+vOOaOec7lV69yaqKWqvoRbwpkNQHzsdHB/+q0ClrYIXPIfqyRzK2n4bQt8HnzhSyyZDP2f3opDraEgtIE0f1bftgP1pI/HAAW2vAQQ3eA43BZ90Vc/HU0CV3ssccTSna+x0T1F7FZ0E19IUcOd6PJQ7RGDrvDr+SFPzRNtmDrnVky7p+gJeld7LHDyn99DP6Z6ilt6vqscZqLnrf+FgRlinrwGEAng5CP5Wl4KvDa3noXL6s44Ygt5df5d7Cin90wlQc30r1Nz3OjQ83/EOIHTAUzhX+Bh+KWH1Zs6Xnf4MO90uoAcKvBK8BlB/NRWAN3wL9RG/xda3fb8RNKTASyHg7+SbNuR79dSYLxmS09NxPs3pEnRq2fya3tsL5zWAXvVw0FaMR3b0FFjbV+iBp1A5P72lVIJ/easnV+/zmxm6PKcH3OmeguZ/qQWsur0cDqYOFmivrJAEL4UKvrLCB2nSnK6k9982x2CrSO+Gcrqn4GsA9p7fQX3UTIHXs0IXPIeS9rnV4zk/XgJvk5xua5vT3R1ko0Y1F3/dv4cDw3IFYvcKbfAcBF/cqJlBaT8Rk3FecwKetvc0j9NdQ6r879wAgD8QmC+XBV4OXuGLqmzGpw8/jKfrrjVeIedLUNEH1bd/C8dL7hKYL5cFXo7+exBnvfM5tg4bjPh+L+mCienSvBK82FN/+5fouMITPzvyLVRBE1Tdx1KaZ+il736GLbFxiH0eQIiPQlx1i3nh13ZD2B9dIhC7V8iCJ+AK9BnvbcKWGIL+QF/EAQMQ+1IkRCKuvtlc8HlhZ99VCHV3rKX5/crP9glN8LLTB+xG/M3yL7A5Lh6xHzmdoUsRRicBvSZGIK4h+LxTprPX2/UObuWqrgPq5f8Hj2y8SeD1rNADz9BBcvqj720m6DaCzNDDBXQX+Jz2V9+KuJcOrhGdz9fv63j59uYa2J9QhN4+xCm0wMvQw8jpxX/bjo74RAFdDVwdavg057PzjQKfl2v3dkWo7XUQaiOe9HnHTuiAV0FfsQ1P2Si9XxG6EgI+z/mrRNoPFHx+X2mTZlf6d08H1PV9Cb595BcCpW8KBfB8PZ6fmR9G6b14xXZssiUQzPu9gK4KqeCjOZ+dH4i0L3blQtUPzkDVz9+ChtLObcoMfvAydC7kfv33HXgyYZBLIedtqJzPc77fnH+VXLhV9/gOan6xBg6OjNHkRszgBi+n91+R0yev2omNCUm+O901pDmf4K/xg/Olq2687erftkB9ShYB1+7W6+AFzxstZadPfn8nHk8cTND6EnTX6t3X8EOrxxdaaq+h1qxXJe5NeAhgs/a3WjH4rAo4FXTgRSE3ZSU7ndK7JtCVUKd9DZ2vbKyw3/g11IfNhIZl+u2tD0rwopAbv7oCjyeR0/v26Vx69xRSwUet3hqa8zuzwidtpaK53H69A2r7vgwnXtP/gUrBBj6OC7ldDH0XHmPoktNdgGkW5Px+9Ko4vyMFH1fqdt49e/ef4VBeH5rH/fNV6kEFnqDzitz41btpTh9CjuRCTqv0foVQ1vZ5zvcm7bPDpe3S3S5C1U9XEXCbwOE/BQv4uG3EgJz+MEH/ZvBQnZ3uGsL5iapWz1PBx0us1d3I5bduhrpBmeTwwDwm9fUjeG9WucnBizm96AOCPijZf06/JETBZxPLu67Od66p37QP9g2ciPhtYB+MbHrwPKdT9V60thKPsNPv16mQ8zakal+0elzwcaVOhRvU3HAI6h6YD4439bkJ0leZGbxSyD24xo5HhqQEyOmuoaR9gv/+LbzxsRFr73oBDo3r2Jq6XjIteE7v5PSxa6vwmyGp5HQjQFciDCEs8jyMSnsLHL/5pTjUxpIZwXMhF05OH/1hNR4emkbptZPLsFpFGAEPDz8Pgwb9A2ZMt2mypq6XTAdeOH30P2rw62SCLi3OGMDpDD0xcSuMHZsXsErdF5kJfByvvZPTx3xYh4dTqBPSa0XO2yDYEvDY2CooLJyIGzea5ytMTANeFHKjnNC1XHvvWMDAgccgP38eLF/+Y3E4zSNTLOCIli3/4/14IG04FXK9A+d0dnhUVDOkpi7C11+/QxxG88nw4Al6eAViwbp9uH9YVuBaNgYeFnYGkpP/AlOm9DN04eaNDA2eCzlK7yPWH8ADw7ID5nQCDjB48DosLk4Uh838Mix44fS8Tw5hfSYVypLT3YPRJbhwo1ew2bbBhAkjTVGp+yIGb7gdOAydnJ674RDWMXR/O53TekzMAcjJmUKV+g3iUAWXjAael2Fl6A1Ym5mP2Oc+/83p/fsjREd/jVlZT8ObBllT10uGAk/QIyi9535yGOuyCqRlWPQHdE7rkZEOyMh4DebN83xrcTDJKOCVCy6Znx3DmmyaUiWnu4GkcUB4+EUq3JbD7NmR4pCEhgxxfzw7vRxx+D+Poj1ntJjTdXQ6z+EDBnwP8fEbcdKkIVS4+f958YFWwMHznE7pffg/v5Gh6+10hm6zlcOoUfRmQVap+6KAPstWOD2D0vuevEJ9nS5X6vsJ+AzYYoDvhAm0AgZeFHIZm47hrnyGrt9VNoiIOAmZmc/AfAN9C1SgFRDwIr0P+/w4VowYi9j7Him9a5biuUrn1iwyspUKtzfgxReNtfvFCPL7V5OI9D7s82MEvUhO7+HhmkKXNkMMGbISSku1ucEwGOVX8CK9p35xAstHjHMWcppAZ5cz9KSkzTBhAm9bNvZ3uwZafgMvnJ6y+QRuH/Wgc0Wu09AZOL1S4WaHoqLxIV2p+yK/gBdOT9t0Ar8aydDl6r1T0BWHR0c3QG7uY/CHP5hvM0QgpTd4XpGLJOgpXzTijlEPUyF3rwS8s9AJeDNV6q/gsmXm3QwRSOkKnqFTek/e3IjbRhN0btk6U8gx8PDw05CW9mcoKXmA0rp/bjAMRukFnp3O6X3Il6fwyzE09ZLT3cL0IeRtyzMGiY9uqTPSBbzT6SdxS+FEqZCTwLmAvGJQZnAWbrxtedq0XM2/giuUpfkCjhP6KYI+idI7QQ/rwJzOad1m24tjxkwm4MG5GSKQ0hS8gJ60rQk3jZ3csUKOgcfENGBOztOwTMdHgYS6NAPP0HciDv7SgZ+NmyqtyDFIr6BzSpcLtxbIynoNysruER/Pkl7SBPx2lBZnBm1x4KZx03wr5Bh4RMQFSEn5KwHvLz6WJb3VafDk9ChyetJWcvpDxd47nS+iMPDExA1cqVtLrH7W0qOdAE9O5zk9Ydtp3PDwdGf1fsVQ0npiYjkUFWn/ZbmWvJPUznUEvHB6wrYW3DC+hKC3U8gpwGNj98KYMSW4fv2/iI9gKRBi8D5vtlTS+5YW3Dj+UTm9t9OySTcYFhSUwVtv6f8MN0vtS9pz5+Pdsly923acxo8nzpA2UUhgXUBLwfN4VFQrpKa+AYsWWZshjKQlDXAPOb7RK/Dk9IEEPX57K340ZabnQo6B82aI1NSV8OijUVS4efetCZb8pzcPwy8J/DfRBNQtbCWokOP0Hr/9DEGfJZwuL6lKwXO4eIWhQzfBI49YmyGMrE+Pw0/SK6Ayhqpzt8A5eE6njBC3g6BPfUyu3tVzOkPnq242WwVMmsSbIaxK3ehiVw4th1Wxe9wAl6DLTo/bcRbX/voJUciRq1XQpc0Q+fkzTPlkiFBW2k54Nc4DeHZ6zFdncXXxHOfauwRcvsHwOOTkvAhLltwsfpUlM+mp/ZAS8xWcj1UXeCK928jpaxi6VMjJ8zhERLRAevp/wfz5vcWvsGRGUbrvmr4H1sWoXM/Ve8zOc7jqkSfb1t55Hk9O/juWlsaJH7Vkdj1uh/7J5bCX4Q8kp0eXn72wqnjOBex9H16MjDx/MS7uUyrc0ukkCb0bDINdz9VB75F74E+Ddv+f492nXtqHsQNrICtrKYwenWKtqZtdXbr8PwSGdUaQsgziAAAAAElFTkSuQmCC;" vertex="1" parent="9bB9l0TLLNUMmVkwr5hN-55">
          <mxGeometry width="32" height="32" relative="1" as="geometry">
            <mxPoint x="15" y="15" as="offset" />
          </mxGeometry>
        </mxCell>
        <mxCell id="9bB9l0TLLNUMmVkwr5hN-58" value="" style="strokeColor=#dddddd;shadow=1;strokeWidth=1;rounded=1;absoluteArcSize=1;arcSize=2;" vertex="1" parent="1">
          <mxGeometry x="780" y="210.62" width="260" height="60" as="geometry" />
        </mxCell>
        <mxCell id="9bB9l0TLLNUMmVkwr5hN-59" value="&lt;font color=&quot;#000000&quot;&gt;&lt;b&gt;JepangCita: Game Simulasi 3D&lt;/b&gt;&lt;/font&gt;" style="editableCssRules=.*;html=1;fontColor=#999999;shape=image;verticalLabelPosition=middle;verticalAlign=middle;labelPosition=right;align=left;spacingLeft=20;part=1;points=[];imageAspect=0;image=data:image/png,iVBORw0KGgoAAAANSUhEUgAAAgAAAAIACAIAAAEMHXM7AAAACXBIWXMAAC4jAAAuIwF4pT92AAAFF2lUWHRYTUw6Y29tLmFkb2JlLnhtcAAAAAAAPD94cGFja2V0IGJlZ2luPSLvu78iIGlkPSJXNU0wTXBDZWhpSHpyZVN6TlRjemtjOWQiPz4gPHg6eG1wbWV0YSB4bWxuczp4PSJhZG9iZTpuczptZXRhLyIgeDp4bXB0az0iQWRvYmUgWE1QIENvcmUgNy4wLWMwMDAgNzkuMjE3YmNhNiwgMjAyMS8wNi8xNC0xODoyODoxMSAgICAgICAgIj4gPHJkZjpSREYgeG1sbnM6cmRmPSJodHRwOi8vd3d3LnczLm9yZy8xOTk5LzAyLzIyLXJkZi1zeW50YXgtbnMjIj4gPHJkZjpEZXNjcmlwdGlvbiByZGY6YWJvdXQ9IiIgeG1sbnM6eG1wPSJodHRwOi8vbnMuYWRvYmUuY29tL3hhcC8xLjAvIiB4bWxuczpkYz0iaHR0cDovL3B1cmwub3JnL2RjL2VsZW1lbnRzLzEuMS8iIHhtbG5zOnhtcE1NPSJodHRwOi8vbnMuYWRvYmUuY29tL3hhcC8xLjAvbW0vIiB4bWxuczpzdEV2dD0iaHR0cDovL25zLmFkb2JlLmNvbS94YXAvMS4wL3NUeXBlL1Jlc291cmNlRXZlbnQjIiB4bWxuczpwaG90b3Nob3A9Imh0dHA6Ly9ucy5hZG9iZS5jb20vcGhvdG9zaG9wLzEuMC8iIHhtcDpDcmVhdG9yVG9vbD0iQWRvYmUgUGhvdG9zaG9wIDIyLjQgKFdpbmRvd3MpIiB4bXA6Q3JlYXRlRGF0ZT0iMjAyMy0xMi0yMlQxMDowMDoxMyswNzowMCIgeG1wOk1ldGFkYXRhRGF0ZT0iMjAyMy0xMi0yMlQxMDowMDoxMyswNzowMCIgeG1wOk1vZGlmeURhdGU9IjIwMjMtMTItMjJUMTA6MDA6MTMrMDc6MDAiIGRjOmZvcm1hdD0iaW1hZ2UvcG5nIiB4bXBNTTpJbnN0YW5jZUlEPSJ4bXAuaWlkOjU2NmI1YzMwLTMyNTYtOTM0Yy04MzBkLTVkOGJjYTY5MDhkNCIgeG1wTU06RG9jdW1lbnRJRD0ieG1wLmRpZDo1NjZiNWMzMC0zMjU2LTkzNGMtODMwZC01ZDhiY2E2OTA4ZDQiIHhtcE1NOk9yaWdpbmFsRG9jdW1lbnRJRD0ieG1wLmRpZDo1NjZiNWMzMC0zMjU2LTkzNGMtODMwZC01ZDhiY2E2OTA4ZDQiIHBob3Rvc2hvcDpDb2xvck1vZGU9IjMiIHBob3Rvc2hvcDpJQ0NQcm9maWxlPSJzUkdCIElFQzYxOTY2LTIuMSI+IDx4bXBNTTpIaXN0b3J5PiA8cmRmOlNlcT4gPHJkZjpsaSBzdEV2dDphY3Rpb249ImNyZWF0ZWQiIHN0RXZ0Omluc3RhbmNlSUQ9InhtcC5paWQ6NTY2YjVjMzAtMzI1Ni05MzRjLTgzMGQtNWQ4YmNhNjkwOGQ0IiBzdEV2dDp3aGVuPSIyMDIzLTEyLTIyVDEwOjAwOjEzKzA3OjAwIiBzdEV2dDpzb2Z0d2FyZUFnZW50PSJBZG9iZSBQaG90b3Nob3AgMjIuNCAoV2luZG93cykiLz4gPC9yZGY6U2VxPiA8L3htcE1NOkhpc3Rvcnk+IDwvcmRmOkRlc2NyaXB0aW9uPiA8L3JkZjpSREY+IDwveDp4bXBtZXRhPiA8P3hwYWNrZXQgZW5kPSJyIj8+jOo8hQABftFJREFUeJzsXWdgFNUWvjOzfTeNJKSRRu8dQu9NegcpSpEigqACUkWQLkoVBaQIKj5Euoj03mtCCyWkh/S2ddp9P44Zl81msy0JyH4/3sPNzC1z7zn33FMJjDF6k0GW9QAchWsCZQ3XBMoargmUNUp8AjzPl2j7opJo9NChQ9OmTeM4DiGEMSZJkuM4kiSjo6NlMplz+yKcexJ369bt/v37FEUV9QBFUZs3b+7UqZOzenTaBFQqVbly5QiCMP4RPj/LsoWn1Lhx4z/++MPxfp0wgUqVKnEchzEWiUQsy5r8VaVS6XQ62E7GEIlEHMeJRKJnz5450rv9RHzq1KmKFSuGhoayLAtfAUZPkiTGeN68eXFxcXFxcQ8ePIiJiYmLi2vcuLExQcNbDMMEBwcHBQVlZmbaNwx7VqBjx46FPxtBECzLEgQRGxtrgQYuXrw4YsQIgiAKcyeO444ePVq3bl2bBmPbBDw8PHx8fArtEwIRmKHZ5OQkK9vJy8urU7sOIgiE/u2dpmmxWEySZJ8+fdauXWtlU9ZOICQkhGEYiURi8jtJUJ4eyjv3oox/jOnek0xLwxhD6yJvb4SxuFYt/7WrjR9jWbZChQoEQRRulmEYhUJhDXkUM4G//vprwoQJJrwFISQWixmG+fTTT6dOnfrPTzwf27gpKvSkWYTdumH8n/Xr18/KygKyNh0fQTx9+lQsFts8gV69ekVFRfE8X3j0CKHIyEgPDw/hP2MbNbFm3MYg3d1Dzpwy/mXJkiWbN2828yRJ8jz/66+/tmzZsvBfzUwgKCiIoqjC46YoymAwJCWZbnQ7Ri/AZCkQQklJSW3atCnMjgHNmzf/7bffjH95ZQIhISFmvzdCKD8/Pysrq/DvjoweIcRToorXrxT+HWNcqVIlYGuF/+Th4REV9Q/V/XsOhISEmLA2ePn999+Pi4szO3pM046MHiFEcua/NEEQMTEx8fHx4eHhMAyC+OdbUxSVnZ0dEBDwz5Pwa2BgoEgkMpnu/fv33dzcLHTv4OcHFN5FhfHbb7/NmjVLIpEYDAbhxz179kRERPyzAmKx2GT0KpXK8uhLE0OHDtXr9QzDGP/o5+eHhBUIDQ01+yZJki9evCiyYYxjGzd1cHDFrkBYWBjGGGMsfGKMMc/ziYmJqFhZiOf54ODg4ODgly9fmvmzdVzfAqjyvkX96Y8//qhYsWJwcDBN06iAIP95i6Jg9KjwCnAcx7KsQqEwKz/Onj37gw8+MPndbkrACIWb+/zt27dPTExkWbawvCSRSO7du6dQKIRfzGyhuLg4hmGqVKkCgzbZeQihSpUqnT59+pU5tG2P1GqbRq8aOsRnxnSTHytUqGAiCHIcB7/wPJ+QkFC4HdMJgDgJ/45v3PRjEt9JTTN5B2MsFosxxjExMca/P20SIbbiBqxo07r86m9NfqxUqZJIJNLr9Sa/8zwvEoks0KGZCYSHh585cwYhFNuwMSIIzPP7fH3XP3lscmYTBEGSJCmSnj5+LCTsFR6Q9c232rPn6JQUAmNEEBght65dfJcsLtz9hQsXhg4dKhKZXs0pimJZdujQoStXrjT+3cPDw8vLS/jEZiYgQCqTHVe6/UumGDNhoW2vXgFmXFh+nDp16qefflrUdyqM0aNHnzh5kiJf4SKw6aVS6aVLl4BLCggJCUEIEQTBcdz9+/c9PT2LmQBBEGfL+ZjwGQIhqUTSPCWJLyRBURTFcZyvr+/NmzctD93Ly8vDw8OsEFlYYLl06dKwYcNAngNOOnny5BkzZvw7JJMJsCyblJT0888/f/nll6fcPXERjJLCqI9Bm5GfX1hWga1lQh4APz8/T0/P/Px8E/FYJBJlZGTk5uYa/9i+ffu4uDhghvC/jx8/VqlUJm2angMwoBEjRli+THAEWoZQfHx8z5494Rol/AljzHFcaGhocHDwrVu3kpOTDx06FBoaGhoaKpPJ9Ho9jB5jDIv20UcfPX/+3Hj0fn5+oaGhMTExBoMBxpOYmJiYmFh49MjsOUCS5KNHj5RKJRBxUXN4rNN1e3gf/n3w4MGPP/64qCeND1HhF7FYfOfOHXd3d+PfgY3ChkGFWOfKlSvXr1+PEDL+0TwNUBRF0/TF8v4WJvCUYZtdOm8sL2VmZjZo0KAogdy4cZMNBjd9mBiM+/3331+8+F+uBZKyWCzmeV4ikTx8+FDYhKb8C76WwWAozNpMIBYRtWvX5nl+06ZN3bt3Rwh5e3vHx8cjhIKDg4FZGZ9KDMMolcqnT58aN/Luu+9evXoVvjfHcRKJ5OzZs8BwhKETBAHMhyRJtVptQuVmaCAuLi4pyQyfMYFOJAZl1sSJE4ODg2EOgISEhOfPn//yyy8BAQEY47Fjx8bFxSUnJxuPXiaThYWFXbx4ETo1GAyJiYkxMTEw+ujo6AoVKgQGBoLchjGeNm1afHx84WuJ6RbCGMNXRAUHWVETeMazHW/frlChgpubm06ng50jFotNvnFhCPICvJKdnW1MwdOnT9+/f79GowHewLLsqVOnqlevXlRrpitAURQcwxhjy3tZgkQEQSQlJT1+/LhVq1bwIWiaDgkJCQsLK6xpu337dnBwcGhoKJApy7LdunWLjY0VRl+9evXQ0NDff/+dZVl3d3eCIJ4/f56UlGQ8+urVq/v6+hrfmP9ZgfDwcI7j4NoGH6ZixYo/qbUWtPvPaMM3IQF//fm38Mu6detWr16NCuR1hFDjxo1lMtn169dBIgS+yTDMvXv3fH3/FaRDQ0NBV4cxZllWJpPFxMSYMAO4FQCDMr6l/DOBvLy8WrVqGbNzjuMulQ+wsArRtH6y3sBxrFqtTkv7V+BLSEho06aN2ZmbXI8SExNbtGgBw0II0TTdunXrPXv2GL8SExPTvn17k3aM9/k/I3Z3d582bZrxAUlRlLHezwwI0kDncxwnl8tDQ0MrVaoEnzk4OPjFixdxcXFwjQLrRqVKleLi4oTRL168ODQ0tFWrVgRB0DTNcdyePXtSUlKMRz9jxozw8PDCowdB+N9RmMgkhw4dmjx5skgkYjnugrdvUaIEQug+Q/eMvPfnn39OnjyZZVmxWAxakFWrVg0aNKiot4Cjw06AVwpL+W5ubuXKlTP9XASBEGIYxkQxZV4zp9Vqa9Socd7iBE4gdtytO/Dv/Pz8Bg0acBwH4jtN0zVq1Dh+/Ljx8wEBAQRBKBQKUKwbDIbC11RQjlAUVXgHarXa9PT0wsOwpBuNa9jYwgSuy6SDL100+bFixYoMw8Cehi8NB5BAkRRFDR06dOnSpcZvPXnypFevXkDfhTsaNWrUwoULixpGkcet8A0IjsduyvK//JK8cqXoylXhAYWHR2hYIIEkxtcLkBFAWQu/kCQJW4XjuEePHpmoaj7//HMTVaEwT57nb9++XXgvmcDSCuizs2VeXsa/xHXrgdP/YTjR3t7jn0QSSAK3p+3bt3fo0MGkhYULF167dq1KlSqF9f2VK1cGYbOw7MSybGxsrAWNtLUTMIvnzVpQDIMQivH2Gv3kPsL/dMPzPEVRFStWNLnvF4ZwtzL5nSRJrVb78uXLYsXBV96yYewIIYQqXb2MWA4hJCYIMD9Cf2Aae/78eWhoqMltEJCSkhISEgJnlvEQwTbVpEmTFy9epKam2jR6eyaAEAq7d5sgkX9YWFJimnCEGz8glUrDw8PDw8MnT56MEBo/fnxYWFizZs3MtvbTTz8lJSXt3bvXjpEg67cQ5jjiVY3Nk3Hjqm7ZAv8+evTopEmTirKGmEVReh5b4UxLfX5+ft26dRmGKcpKCUYkjUZjlqPbB2c6e7i5ub148QK0lsYbXVDwt2vXLjY21omjRwghXGJ48OBBUFCQTCYLCgp68eJFCfXiZGeP0ofL4ams4ZpAWcM1gbKGawJlDddBVtZwTaCs4ZpAWcM1gbJGyU6gFA6ZEokfcHd39/LyQgiB2QJMdF26dNm2bZvT+3LySRwaGipYec1CLBY76K5uAudsoQMHDoAtHhW4BQCIAgi/MAwDRnyzimg74OgKtGjRIiUlpShdkEqlys7OLuwPCcY4jPHRo0dr167tyADsn4BZT03BjJecnGz8e2pqaosWLRiGKTwTgiA6deq0pUDJZyvsmUDlypULbwBQsru5uT148KCoFzHGQUFBSqUSY2zSAgxDMN1ZDxto4PLly6GhoSEhIWbiBxCaMmVKfHy8hdEjhAiCAHt91apVTcdBkhRFVapUKSwszMTvxjKsWoH+/ftfv35dqVQW9mkjSfL+/ftKpVL4hU1KShk9ls3MhNZ5khR7eiKEgk8eN3n33LlzI0eOBL28yZ8wxj/88IOx+4KdE5BIJIKXsjHAUGe80bWnz6TNmFlsfwgh7zmz3Qb0F/6TYZiwsDCJRALHhcnDnTt3/vHHH+2ZQHBwsMBYTJ7R6/WpqanCf6ZO+kh37bo1QzdGYYfdwj6XqMB/SSwWP3/+3Gw7pjRw8eLFypUrh4WFwcoCUIH3wFdffRUXF2c8+thGTewYPTLnLpuYmBgXF1etWjUTJ10w4QQHB1eoUKFwXMG/K7B9+/YFCxaYsDmwkDIMExMTU9jqpjn2d/rceXaMXkBRjtPff//9kiVLZDKZCbOSSCQ0Td+5c0ewXv4zgWrVqqnVapIkwcSLC/wX1Gp1RkZGUd077n7vMXqU1+SPivrrvXv3+vTpgwr8d2EXwCFYv379w4cP/zuBwMBAkw+ck5NTLDtzfAIEQqHFea8LVG4sYgl+I//GD5i8du/ePQcHZw2sOUTFYvE333xT2Kca/lGkON22bVuE0EcffTRzplXM0T4YqGJO0m7duj169MjkR4ZhBAmq+AAIgiDkcnlRR6yDu8hC9IOHh4eHh4fZ4LLBgwd//fXX8G/TCQCVFD4dgaYLe5HnHz+ROXuOc0dfsWJFXODzZQypVBobG0u/GnlkuoIY4/j4+OHDhyOEjD0veZ7neT4sLKxChQrGbjJuXTpbE8VjCowLv/X48WO4VIDbjjAeYDvvv//+kydP6EJxU0V6LZ5q1Ubh7jEo6q6Jg7nA0RYtWjRq1Kh/Z6hWx7c19a4yO/bQq1eIV3lGz5497927JxKJCn91kUhU2MHX0gRYln369KlCoTjdqm1FnRYh5CWTN8vP1ubmFW6aYdlK4eFnzp41+VP6rNn5p04TPI8QwgRBSiTK1q19Vywr3L2/vz9IQSa/wyKYXCqOHDkybdq08PDwEydOFDmBf34liO99fWrwRkc6Ru+5KZJSUnieL3wZsPWmC6y9sHMwBMxKpdLo6Gjj3995553IyEiRSFSYFM1zMYIgstlXVpMj0Ha19oTKfUpgcGGBhGEYcBe1cGwD4PZcqVIlkjTT9aeffhobG2s8+vDw8JCQkEePHsFs9Xq9CSMxXQGNRpORkREYGLjUP6AdUSSTzqtWte+VywRJmkwGrpTLly9/9913TV7p1atXZGQkTdOFoz84jrt37563t7fxjyEhIYJEI5FIMjIysrOzC4/EdAKCqHykS7faRce58whVvHUDFXjMFo6VJklSIpEcP348IyOjc+fOJp5moC+CW6iJz8rLly/btGljMBj+8SQgiLFjxy5YsKCokZjuQrlcPmDAgD/++EOp0xb1DoJLJEKoYDuavfTodLo2bdpwHOfl5WWyUBjjwn7ow4YNA092wTnk1q1bxg6+wcHB8LmFKDhk9hy4efNmWFiYTmtpAhihnkbOoSkpKXFxcb169RJ+EcYBn1n4XSqV9u/f3yQ81svLKzw8/NKlSxzHcRyXnZ0NGRFg9ImJieDqBfdmU72GyRaCIAOM8VqvcnWLpgFEEBHpaTKElUrlw4cPjf8SGxsL3n8m0cAsy96+fbtwbBI4KOKC0Afjr7t69er169eDKCESibRa7YEDByIiIoxbMB2iVquNiYnZs2eP0TYxA4wQwjxBEHq9vlKlSqGhoUKgbFhYWExMTExMzMiRIxFCBEEMGTIEYhKE0Z85cyYkJCQ4OBhuWwihiRMnxsfHC6Nv3LhxeHj42rVr9Xo9PBMdHZ2SkmIyemThJD7Zpm1lTdG7iCACLl04evToZ599Bj5z4AC4e/fuFi1aWJh5ly5dnj9/DsEdGGOxWHzlypXy5csLDwBXAGGMIIj8/HzLOTNMVwB8bRFCvkXIpwAeY6lU2q9fP8jaAaEtCKGhQ4dWqFChMA9FCFWoUCE8PDw6OpqiKLlczjBMfHz88+fPYfTPnj0LCwsLDQ0F4uF5vl+/frGxscajj4qK8vb2NnHM/mcFKlasaKKUPdZ/gOzc+SIngFC7l+lRD+8Z5zbw9/cnCEI4LxFCzZs3J0nywoULQH+wVlqt1thdf9KkSUeOHIFPAKOPjIw0YbsDBw68efOmICC3atXql19+eWUChe8D6/z863FFasl5hFpmp4kYkUxGLl++fMCAAcKfRo0aBTEgJsAYm8RGgsQvMCuGYQr7Mfr6+oIq0vjHzMxMdUHw7L9aCRO1zA/ly9coOjKVR6hVRjrB8SLqH1rv1KnT1q1bhQcePHjQoUMHhUKBMc7Ozo6MjDT+RoGBgbBW4CBuNmVCUFCQVCo1uc1ApJNxFJepYisoKEgikXAct7F8+dpFx28IJ7Gg/4KNq1arLdBcXFxcs2bNBPGTIIjBgwevWLHC+Jlnz561b9/exKoABE2S5MCBA4W7GMD0JIbwgg4dOuBC8rMxhF0Oix4eHg6GGZVKValSJb1ebxKmABwdGblMb9++3SQ6Y/ny5d9//z3GuPDFgCTJHTt2tGvXrvBIilQtXu7WLTC9aP5FklenfzZ0yGDj3/bs2TNz5kwhn5OgYjL26DUYDDExMcYx5QihunXr5uXlmY0e5zju2bNnFjJzFTmB6316l09MIRDiEcqvUqXm+nVJ3d7591GSbJX6kiTImjWqHTt2zPjF3NxciOaAIxYglUq1Wm1ycrKJIFA4l4gQt6fX642Zlc0ToDVqidI0evRfHUTBBHiOgfP45cuXJqqbZcuW3bp1q0KFClOmTKlUqZLxn+Li4lq3bm1W44Axbteu3c6dO4sdejETMAter49v2Rom0DL1JUWQBOJRQXQqTdN37941EetN8OGHHx45ckQikRS+FfE8f/HixaIUPM6ZAEKIy8tLaN8RkWTr9DTEY46lC2v1jh49WqtWLZMfvby8vLy8TD45zBwCKW0ahgB7bGRxO3bg774Pu3EtMzOzbt26ha+2EDTj7e1969YtrVZbpUoViqKE7ArC0AmCyMvLM3vPKtkJIIQyFi70MbolmT10LABj3L9//zVr1tjRtQnsNbNiXDjQ1dvb283NjTCXwQwV3Gwoilq/fn3Pnj3t6dQcnO/0t27dum+//VbQqKECawPG2CSxlXNglZN+YfB8sY/s2LEjNDQ0LCzs3r17dvZiBexaAXP7p6xgl7PHazN65PLYKnu4JlDWcE2grPHGT+CNjx940/HG76A3Ha4FKGO4FqCM4VqAMoZrAcoYrgUoY7gWoIxRIuFXJYfMzMydO3euXr2apmmwN/E8D8pknufd3NwGDRq0ZMmSsh6mDXjdL2IMw+zZs2fu3Lm2jhNjTBDEw4cPjYNKXkO8jgvw4MGDyZMnJyQk8DzPsiwUtbE1YRVAcHfR6/VTp06dN8+hGIeSwGuxABjj7777btmyZXK53GAwMAwjlUqLfQtszpCRVvjQxb4Fj6nV6piYGAtewKWGMluAly9fDho0qNhwPXC7gO0PQ+U4buDAgUuXLjXxUbhw4ULnzp39/PwEj24rl8RgMEydOnX27NkOzMZ+lN4CsCy7adOmVatWgXkSnIOK7R3MmQqF4tChQ4VjFi1g5MiRZ86csVAICgDrBC7EgrfVuXPngoKCrO/LEZTsAmi12s6dO8fHxwvexcW+AlKNWCzu2rXrpk2b7GP9Jrh69Wr79u39/f0h+2mxz8MAOI6jaXry5MklenI4eQFomj5y5Mhnn31GFvJkLwyMECIxpjEpkhBikUJCrVy+vGfv3jb0Z5eFt3//frdu3iVILJR8M+vpUxgymezGjRvOPTmcsACPHj368MMPBc9BiNQqnPISANIheB2ISPLjDz8aNXGch7sZfwM2NTVrzVrt8ROQ+9qekRGEqncvny/mW3jkzp073bt3l8vl1iwA+IKCw7lOpxs3btxXX31lz8CMx2jHAmCML126NHz4cKlUqtfrJRKJlSkVYFUuXLgQFhZW+K98fn58O9Mct04ERij8xjVkLtJFQM+ePe/evQt1nIpdEowxz/MymQxS7UZHR8vlcltHZe0CpKamfvjhh3fu3LGmsipJkpCqGXJyR0RE7Nixw4Jk6ZQaWjaAIMJuFh+yffPmzYEDBwrztVKmQgjxPP/ll1+OHTvWqrFYaPSHH35YtmwZVONRKpWQKLrwY7ggO76QnMPNzW379u1NmxZfFStj2XL1XidUM7UDGKHwm9etP0I6d+78+PFjs6FirzRb4NUrfBOE0IMHD8yWO0FmF6BDhw4QkoCQmUzQJoCbKkEQderU+eOPPwrHg1nAiyYRRAlXKi4WATu2S+vYnMjlr7/+GjJkiKenZ7HfB4IkoIoXRVG1a9eGqHkBryxAXFxcq1atkJEfugmEPS4Wi6VS6VdffWUc5WATnjVrLmKKEZNKB/ZEDr+K99577+zZswghmqYJgpDJZEXJIAghkUgUGRkpaKheWQCoiWo2dTugRYsWGzdu9Ho1d7x9KG2+XzTKf71S0cGamGerEB0d3aFDB4Igirr0iMViT09PobjWKwtgpYu4RCLJycl58uSJIyuR0LEzl5Nj9+tOA8Zht4spNFYs9Ho91MmRSqWgO7EgQUkkktu3bwvxWPYsgDEg1ujDDz+0QyKO7dkbpaTY+pZzEfjbbkmVyna8eO7cuWnTpmVmZoKYVOwlHxQeYrHYuDAGKnYBgOkLopjZ/AImwBg/f/7cyjoTumvXUycVmQOmRIFJMvzaFcvXAmOwLDt+/Pi///4bFeQGsvw86Lvg4ubr63v+/HmzloliFgDO7i1btowfP56m6WJLkQFEIhHGGJRuX3/9db9+/SxvEPWxY+lz55ea2zWpUIRcOGfNk7dv3x40aBDwE6HiI6gRLb9I0/Ty5cvff//9YrsongVBMUTjXyaPH3/izBk9TUOZomKvJ1KplGVZkiR1Ot25c+cqVy6S5A3R0SnDR6KS0Q8SKrfQc8WUYeE4bvTo0efOnRPqploAxpimaYVCAdvUw8Pj5s2bxa6N6agsL4BEItHpdCZxUGdbtA7V6wiCkCDEBQct4vnj9+7xmCfQv1ePYkHT9NixHyxebOnkUB8+krFwEeJ5O6MSKMpv7Wp58+aWn3rw4EHXrl2t0dQKoSEQF61Wq0eOHPnNN9/YM7YCFLMAuCB9BtRie/r0KUEQZ1u2DtPpCn8UlUh8t3adSedPGehiVENwNyEpkuFZZODEUjklk167fNHHYqCfs2AwGGbPn79vzx7j3GLWqFgMBoOPj8+ePXtq1qxZ1DMcx+3ateurr74yGAyQVw0C5+7evWs2xslmKYiiqK98fFpylrgEgRBL01RI8BGVau6F8+4kiQhCKpUWq7ODgmX5+fljx441CYV2EA8fPhw6dGh+fj6cZGBntvwKLiivumbNmr59+1rgLVFRURMmTEhKSoKSoyCAwIqCIsfNze3x48dm37XqDKhTp87jx49ZlpVIJCKxeI5S1R4R1quISYQIhJ4EBXwW/SiXZiGTJOi2iuWYHMeJRCIT0c0asCy7cOHCXbt2wZ2o2LWHjIUg3ri5ud25c8eCIIcxnjlz5t69ewW6ET49VDGXy+UKheLq1avF+mQUz4I4jjM+hP/+++/kWbM7EKR9OnqM8UMee36/YejgwSZfXwhNNIZQlhUkYK1Wu2rVqjFjxpht/ObNmxMnTkxLSzNW3IMMY2GlCYKgafqLL74YOXKkhe+VnZ3dsWPHrKwsXBBFaTxgkPqGDx++cuVKm6x4xSwAUFBCQoLxBC726VshIdG+g5FH6CFLd79zx7jBvn373r9/32AwwA6y3AIcgyARAhsBfmKNdIgKVOUEQXh4eBS7zTdu3LhixQoYFZTzhT9RFKXRaKRSqbe39//+97+ijNU6na5atWokST579qwoCb4YuR6UnZBPRiaTkST57bffyovL82UZFDLlPAcOHBD+ffTo0Q8//FDIXFBYCw9/MubggmWxcF/GO1Sv148dO3b58uUWxpabm9upU6esrCzgSKiAPkC7AHlxpk2bNn36dLOvMwyzadOmxYsXy+Vy48j0ypUr3717V6jb/sp0rDyEBRuLSCTa4FWuJrYzYBUTRIaB7Zqd5i4SkST59OlTy/LfmDFjTp48abdp3t3d/ejRo8HBwUU9wHHc3r17Z8yYIWTWEeQiYUVlMtmuXbuKMm/Exsa2aNECBB5oARqBeUGh4h07doCauTCKoQCwrSckJNy7d69bt24wShZjy8mpLIBAKFfMS0gKTpdKlSpBWg+o5V7Y/8A4m/+FCxcGDRoEljWzFyWSJLOysrZu3Tpw4EALY3j48OGUKVOgSjUc0cbeR3B+zJw5c8KECSauR8ajmjt3rlgsBu4npGcHFQBFUe7u7jt27GjQoEHxH6TYQxgVynZ+smXryubuAVaBIJ5x9OcK5cvYWPRqsk/oTiQSSSQSrVZrR4r1ooAx3rFjx9y5cyFfESq43/A8r1AoGIYxGAweHh6XLl0yyyUQQg8ePGjbtq27u7tYLNZoNLD2sIfgAZFINH78+Llz59o6tmIowPwNxQGfdowxh4hbly4Jv+zbt++zzz4Dtg4MF/4B6dkgw+GXX345adIkmzpKSkoaM2bM48ePYQoikUgqlcI2hww/Op1u+PDhX3zxRVEffcKECYcPHxasK3K5nGVZhmHAh4VlWZqmr127ZkGzYg2KpwCCIECZExQUdOrUKYlEEj18uOxRtH1iKI/QC8bQMTKyqAd69Ojx8OFDkIgQQsa8FfwPMMYPHjwozBzgxrR69WrYnqB9Evg4cAa5XH7u3DnjxIzG0Ov1lStXFjhbYbGYoqiIiIjdu3dbnuO9e/e6dOkilUoVCoVOpwNNEUEQhVMRI5MFCAoKsmwKhvVY5x9Qn7V4FS4aPELPDfrh2bkyiqMQSXP8zp07O3bsaPbh/fv3T5kyRZA4rT+K4egChUePHj02bdpU1JNTp079+eeflUql0DjQInBzOJ+OHDlSLDcfM2bMsWPHCtfqEEAQRHp6ukajMf3dZJE/+eSTvXv3wt4pSj3ynb9/HYYvOjWbJfAIPaUN4zQagtdzWEqhV7IGtmjRYseOHUVZ9vv06XPnzh0h7xwq8D4XpBfQzqpUqnXr1nXq1MlsIxjjChUqyGQyEF6BO8HdQth89evX/+OPYnw1GIapUqVKsZpg2Aosy0ql0vLly1+/buoOU6Rbyo4dO+bMmWP2nrLBt3xd3k5vNR6hGIbuFHkvOvpxm7btZVLTbw2OdSRJSqXSZcuW9S7OUzE3N9fd3d0CcdA0vW/fvk8++YSiKPC4EpSaqEC57+bm9v3337du3dpCR3q9/ptvvlmzZo1SqWQYxho9PEII5uLt7X358mWzH9MqxyyDwdCgQYP8/HyGYVRubqvdPepiZKcqAqHDtP7jqCjjHzmOq1evXnZ2Ngh2IGYYp9BDCFWtWvWvv/6yUtv+4sWL5s2by+XyvLw8lUoFLAX+JER89OvXb8OGDZbbiYmJadasmVQqNdayWZpdgQM9JCi1RlNts2sixvhsm7YVNVo7/TVJ8iitn1R0xQWM8b59+8aPH69SqYC9gDrX+AGJRDJr1qwxY8YI6/H3338/fPhw5cqVxuwLZE24McCN+o8//mjYsKGF0fE8v2PHjtmzZyuVSpOkqkV9KMEvTSKR7N69u3HjxtZ9iIKWbV0AjmWjevfxTDWf2BDWxFKLJHnPu9yEe/fc3aUSifv9qOJrX9SrVy89PV3YfTzPK5XKvLw8KHsCHucymYym6cL00a9fv2Lzuz18+LB79+5w+ZBKpcCdrPENRQgNHTrUQbW5zVGSlEhEG/QKls3jeaRUecycQXi5+7Q3dapNX/Wt9rffzK6uFGFKJDIYDHp9HnjpkiSp0Wh27drVpUuXws8bFyjZvn37/PnzdTodZLwGiwrI9RRFQfq9/fv316lTx/IspkyZsnfvXrAmwnkOqZXNGgkE5blMJktNTb1w4UKx7VuPkg3QeNYkQmQiSpFktLfX2IePKJLBWArZL40B56Svr+/Fixdtta9aQGZmZp06deAuZvlJkACBniQSiV6vr1WrlkmSVCeixEOUeL0+pnFTkeAaTZJxHu7DnjwVkbTZBYBNzXGcEEmg0Wh++umnHj162Nr1F198sXnzZjgVgJ9Y404Cx8ahQ4fq169va492oJRixDKPHdPOmsNRFCJJrlGjoDWrm7dopFazebnZkMy1WK9erVYrl8tJkmzQoMHvv/9uVr3OsmzNmjXB4maNFQwVSL0Y44oVK546dcrO6TmAUo2SzDnyZ/b8L6gmjUI2bzb+/fLly4MGDRK2J9i/Smhggq5YJBItXbrUst60FFDqYarFRXVxHFe7dm2txWoYdqNbt24W1BJlgtduAV59Fu/du3f8+PEeHh42jROUE3CW7t6922wC9tcEr0WkvPWoWrWqXq+Xy+UYY9CMGnMtOEtatGjx888/l/VIrcVrTQFvA0o1XxDPsq6vb4I3jAX99+DKmFXGcC1AGcO1AGUM1wKUMVwLUMZwLUAZw7UAZQzXPaCM4aKAMoZrAcoYrgUoY7gWoIzhWoAyhmsByhiuBShjuBagjOFagDKGawHKGK4FKGO4FqCM4VqAMoZrAcoYrgUoY7zZC/AfMGa8YYXc1q9f//PPP6empoJXKM/zGGMI7NJoNH369JkxY4aDuQNKGW+GRSw1NXXOnDknTpyA726cREjwz4VgMYxxenr6vn37zIabvYZ43RcgNja2cePGdlTD4zjugw8+WLBggVPKAJUcXt8FuHXr1oABAyDJofXVK4wBUY++vr63bt0qiRE6Ba/jIfzJJ594eXn1798fUiwgiyn3LABi/LKzs0NDQyMiIlLKOlG4WbxGFKBWqz///POjR48KiRwsA8gCsm1YmUuFpulffvmlQ4cSLBVkK16LBcjPz69bty7DMEJ2JGui1IXEqmKxWK/XW5k9AyHEcdznn38+YcIEmwqulBDKeAHOnj07ZswYjuOEmh+QEwxqBVsGx3Fubm55eXlW5nRHBSkvpVKpVqsViUSNGjXav3+/QxNwGGW2APPmzdu4caNQSKIogNAJEb+QudNgMBw9erRJk1cqoGg0mrVr127atAnyiQnZC4sdBkEQgYGBf/31l9nEzqWA0l4AjuOGDBly7do1ZMvRCneuKlWqHDt2zHLOmBUrVqxYscLNzc1CwikTQE4lrVa7d+/e9u2dVkzGSpTeAmg0mkqVKkG2Bmsy5AIgVVzVqlUPHTpkfV/nzp2bNGmSWq0u9klI4we3OUgTvHz58nfffdfKCiCOozQW4N69ewMGDOA4rtgtaZxBGz7HrFmzpkyZYl+/eXl5LVq00Ol0UIIODvli34LcK02aNCk2a5lTULILsGTJko0bNwo5SortC3YiSDV79+5t1qyZ42NQq9UbNmzYtGmTkInRMoScZgRBhIWFbdq0qXr16o4Po8juSmIBsrOzZ8+e/ddffyGjEGqLKYoJyPLEcXzz5s2+++678uXLO31U33///YIFC+RyudCdWcD1AmRcSFqjVqt37tzZs2dPpw8JOX0BsrKyateuLZVKran4g0XIoNar5O4GzGHMdWzVeuevtkS4w8htVPXk5ORENGmuo7U8x8lkMoIgtFqtNXcInueXLVs2bNgwJ2YxQk5cgJSUlLZt28KWAS1xsa9QpJjHPObZtWvX9u3Xz8KTyePH0/GJRHY2z7IINjDG/2xjgiDEYkoolUmSQXt/J92LkW71en3FihXd3Nx0Op1x4mgLAMaIMa5fv/6ff/5Z7OyshBMW4Ouvv/7mm28kEgmk8xRqiRbbcn5S2qGzJ4pKK562bLl2/wFknbBkFoREImvcyG/9uqIeyMnJmTx58smTJ4WC8hZgXNcWIRQWFvbTTz+ZLYxs2yDtXoD8/Pxvv/32l19+gWo11hR4AwGUZdnQ0NANGzaYTUmV9789md9+S7D2f/fCkNasEbBrp4UHvv766/Xr14P2VJBKi10SSBV76NAhWzMlGsOeBcjJyWnTpk1qaqpEIhHKaRc7XBDvmjVrtmfPHrMP8Gp1fNuSvQdZLpz6+PHjPn366PV6yLpS7JYSi8U0TUOOtcmTJ0MKcluHZNsCPHnypGfPnjRNC7UthFpBhdsRbFUIIYIgvv322969exd1Mpdabc9ii9dyHBcWFgaftdjW4BkgF5Ika9SoYevxYO0CLFq0aMOGDdbUTBcy3kNST61We+TIkeZFV1PL/2Nf5tJl1o/YUWCsGjHc59NPinsKv/fee6dPnxbMQdYc1AB/f/8zZ84UVfzBBMUsAMb4q6++2rJli4kl1lKLBIEK0qteuXKlqOz8ACY2LmlAGWRt8/xwoucHVtV8X7Ro0dq1ayFfYLELAFl6McZisTg3N/fQoUMtWrSw/EqRC6DVamvXrg23R6GEjQURWGA4PM9Xq1bt5MmTxU0NoTIt66yc/JHv6FFWPnzgwIG5c+cWq1wSikWApgsudAsWLHj//feLuoSbX4CGDRvm5uYWW2tO6FJIX9u3b9/169dbSaqxjZuWUN1OKxGw7UdpvXrWP5+dnd2kSRPYi3q93ho7hKCA6t69u9lc4aYLEB0d3b17dyg/YY06F5T1mZmZly9ftqZmjQDNmTPp02da/3xJABNk+M1rtr6Vl5e3ZMmSX375xZr6n3q9HszaIpHIYDDcvXvXpH7HKwsAKyyYZM1qjAWPKDgSAgMD9+zZExISYus0njZpKubL3hparFBkAYsXL16zZg0cD0KmduA/xjwAtjJo4AmCePbsmTEnNy1hYpmsgCbEYrFara5Spcolo1o8tiK2YRN7S2E5EyHnz5K2Ox0Z4+HDhz179jQYDHK5nKZpqVSq1+stHJahoaHnz58X/vOV56DMqIXOgOhGjRr18uVLR74+QnYXInMy4t57z8EWatasGRMTc+vWrbS0NIlEQtO0UPHQLO69Wjvh38/92WefFcv3jx49aqGU7psIMjHZKe34+/vn5eVlZWWtWLHCQpkljLGJGfxfCgCLleUFaNas2c6dlpQqbxzI4rwCrEdCQkK/fv12795N03RRzxAEYSLL/rsA1sg8Hh4ec+bMCQwM7NKlizW5yV9/YKVV91XLePr0qZeXV5s2bWJjY7HFIskY43qvCr42VqAnCKhFFB0dXbly5TZt2tg5ZIS8PrKtMl5JgEAo5OABR1rYuXNnhQoVOnXq5O7uLhQuNnvnEolEcCE4d+6c8e82L4Dxf8bFxYWFhVWtWhXcTGyCsm8fW19xOggrVFtFYebMmf7+/l9++aVx5T0Lz/M8zzDM6tWrTX7/9xC2zzAAGcoHDx7McdzJkyerVatm5TVYVK4coVTiQpXlSg8Yh1w8X/xjryIlJWXkyJFPnz4lSRIKgaKCqh+WX9Tr9ZcuXapYsaLJ75YoAG5kQo0Js31ArREYRNeuXcPCwgYNGmTl8RB6/mwZ3sTcxpqvi14UkpKSQkND27Rp8+zZM4SQsX6s8JcRvEDgPOjWrVtKSkrhr48shyhB01BiBMxe1mg/bty4ERISUqdOnT///LNYN5CwSxdiW7UhSl0j5P/jFlmD+lY+vGrVqu+++w4hxHGcTqezRgMB/sUcx924ccPX19fCsUwav2P2iTp16gwePBjKwVo5YoIgHj58GBYWFhwcfPv2bUtPymThN68T5bytbNlxYIzLr1tr5defM2dOUFAQKNFIkoSCcNbwWLVafeDAgZSUFD8/P8teFJb+BpxHJpMtW7YsISFh6tSpgnYIClSalVxBGw5FWkiS7N+/v7+/v+UyUKEnjql69yoFzSipVIbfvqloWYyOHmpehYSE/PLLL+CxAgWE0asl9cCDT1DCI4QYhmnatGlcXFxWVpaVhuJ/m5s6deqBAwdM/owxbtu27a5du4Rfnj150r5FS0KpIBAC93zLHYDlGrZP165d161bZ8E/MLFPPzYx0Zpx2wyKqnDkkKg4fy+GYapVqwZ1mIr1/5HL5Wq1GuwlDMOEhIRcvXrV1nFZYkGwNibjkGRn36pY+WxA0OdVquRb4bsANAS3h0OHDlWpUmXo0KFFndIVDu4PvXxR1shSuUdbwSEUcuFc2PWrlr/+7t27Q0NDK1eubDAYQNdbbMt6vR7+95dffklOTrbj6yPLYihJkjAa4x8JHhMIkQzTLStncEDgZZ/yC9KSM1JTRRQF/ocm7YCSFiHEMAycIlevXq1cubJKpVr7zZpO3TqbdEpIpf6bNyGE9Ldua44fz99rr4csQfguXaJo346wKAjwPL9///7p06cL07QgaAB3BfoA5vPDDz846LJoiQWBapvn+RMnTlSrVg1+TLh2XfbxVI1xeVOedwsI/JTg/7x1UymRFntGgf8zz3GEWJaTlblty+bBQ4dYfoV++jRnx09Ib9BevswzDIHwP76dBIERRohABCEuV05Wvz6pUnnPn2vNzLOysvr27ZuYmAhGxGJFZyAL8B3q2bPnd999Z2GmaWlpn3/++YkTJ0QiUW5ublpaWvEmyY8//vjgwYMmXYL4LxaLSZIcMGDAypUrk69fl3w8TVPIWklijDw918ikBx4/snwwkCSp1WqVSqWBY2UiMc/yNM936tp5y8aNpRO0lfLyZUTTpnC0on98G4v3DQV33fr161uOasrLy2vYsCFN0zzPQ0gPwzBKpdJsQXlkeQEKg2GYLnXqrMzJ0xZhLiZ5Hkmlezzc1z9+xHIcKgh8sHCVM55h7dq1jx49ankMjuDIkSMff/yxla6rMGye51mWzc3NvXjxouUiqr/++uvChQtBWDI2p4MhLCEhwexbtumCxGLxzefPyKKplSdJnmEGpqXfqlhlY0TzcB8fkqJAhrMmOuPBgwehoaF16tS5cOGCTQMrFosWLfLx8fn4449BKrPmFb1ez3FcSkrK9u3bc3NzLXz92bNnBwQEzJ49m6ZpjDEczgBgXBamY7OntRgjrlgJgSTVebn1YmJ+F0v/btm6UbVqIqmUsEKuYBgGY5yXlzdixAhvb29HjW4IJSQkdOvWLTw8/McffwRvQyH42zJ4nu/WrdulS5d0Ol3Hjh3NPmMwGEaMGBEUFPTrr78KsjXLssa1p2vXrn379m0LPryWVAvA9Tw9PTHG2dnZCCGaprFYjAjCqksTSRowlkdHf61WB9Sqs4Bn/4iMJEgS/LwF5xljGJ9UKpVq2LBhPM937Nhx27Zttnrlp6enR0RECPHDAqOHkLzCz4NiB2bdqFGjwlciEwQGBsJoQWoCCRC+PsuyNE03bNjQGnZq6R5AkqRMJmvQoMHdu3dv3brl6ekpyJQ2QaxSZSQmTkl++bdf4Lv1G2i0WutDGBFCf//9d3h4eJ8+1qqvd+/eXaVKlebNm+t0OqiZbc3iQTXuS5cuxcXFWfj6p06dqlatWlBQkPFeATkF9GYGg+Gnn35KSkqy8jArxgdCr9eDfObj4wPW5P/99BPasNGapgtDyrEfJyQ0nTzlEeY3bNhgjWpPLBbDp7l3717FihUpijp48GBRdukFCxZs3rwZZDbY8uCfWuxi5+Tk/PXXX5bdCNesWbNo0SKlUgnCqPA7yBegm9mxY4etga7FfILC36hZ3XqOxHQQBJl86fysQ0dmz569ePHib775Ri6Xg/RpVhgHnaLxvzt37kxR1Pz58xs1ahQSEpKdnZ2VlTVq1CiogAtNCVF26FVTq/CL4NpUu3btw4cPWyARhmF69ux5//59kiTBnk5RFJSzB7bDMEzz5s2L8rkvFsVQgE6nMz7TEUIKhYKgKGSdIGGmTYy1ej18iHnz5s2bNy82NrZXr17Z2dlWuh+DdLh06VJQMYHHmSDpFtM7z0OZeJFI5O/vf+OGJa8sjuMqVKgAXskguQqHBKwuxtjLy6uoXDgsy7Zq1SouLu7nn38u6hhHlqUgiUQiFotv3LhRoUKFVatWwY+6nGwHlZaa6Bjj/wwLC4uKirp9+7a3t7VKafgcoAxgWRaiMK2hS47j9Hr97t27Y2JiLHx9sHiHh4eLRCLQtcGnEB7Q6/ULFiyIj483+/U5jmvXrl3FihXT0tKUSuXYsWNNfIGMYWkBQA8Bjrfr1q0LCAiYPn16uUqVip2nBWCEFBIzBo3y5cvfuXMnLi5u1apVcG+wQA1CFBF8dJDWzPSFMWiMKYoCjrFjx47ExMTWrVsXxXPWrl3r7+/fqVMnnU4Hex9Mj9ACdPfdd9+lpqaOHDmy8OuXL1/28/MLCwt78eIF2GRomiYIwoK+yCrZDsITpFLpnj17OjVtWnSMbfEgEEGTxPHjx4t6YNCgQYmJidOmTdPpdA4GEMKZodfrIyIinj9/npSU1Lmzqe4PkJGRMWnSpJCQkG+++UYwZgh/hcVu0KDBlStX4uLiunfvXriFp0+fhoSEjBgxwkTZDjeb/v37FzXIYuwBAFBXIYQMBkOIVHrY11/D2XkGiHn+5zz1DzzNMMyUKVNmzJhh4QB8+vRpr169dDqdfX3xPF+pUqWzZ89aeCYnJ6dGjRqQpwgVxFoJPraowJPn8OHDZl+naXro0KE3b94EToUKRFLBN0uv11eqVOny5ctFDaAYo7yQwwds0GKxmMPYEbdOjmWzRDxIEevWrQsJCenVq1dRD1epUuXx48fXr19HCPE8T9M03PUZhil8HYHrFZjhaJoGK56Fr3/v3r2wsLAGDRoYh0UKPgaQW2Lv3r3x8fFmv35ubm6PHj0qVqx4584dOIrAr5CiKJ1OB5k0GzZs+OTJEwtfHxW7ABzH9e/f/9KlS6BTs/CwlSAJMqNALgRKf/jwYUhISLNmzeLi4sy+4ufnFxcX9+zZs127dsFXBknf5DHYKyKRaP369SkpKcOGDStqDIsXL/b19e3Tp48Q0mx83mCM1Wr1xo0bk5OTTbISAY4cORIeHl6nTp179+6ZGksIAkTHTz/9ND4+fv/+/cWmISreK0Kv1wcEBMTGxiKEZs2adexnW7IJmGmUkBEUQv8ILeDPjTFOSEho3bo1y7JXrlwJDQ0t/J5UKu3UqVN6ejpCaPbs2Rjj3bt3w4SrVasWERHRqFGjfhbD7fPz8xcuXPjHH39gjBUKBYiVxulqeJ6vV6/ehg0bzA4AIbRz587PPvtMLpfDmUwQBER4CyF8LMvaaqIp5gwgCKJz585btmwRfsmIj8eDhhS2B1gJimF+xdx2hgEfbp1OJ5fLjfcR8LoPP/xw3rx5doTdmgXLstWrVy+sB4XdqlAoCIKoVKnS6dOnzb4OSrfr16+DbCZIXPD1gVn5+PicOXPGjrRb/xJyYZED1tZEwtOlptrahzEwQXAs8/jx45s3b9I0DcoToWuQtUQi0ebNm/38/AYOdDSA8tixYzVr1gwLCzOxrQq3KrFYvHfv3ufPnxf19QcPHlylSpVr167B14AbH/xJrVZjjAMCAu7fv3/79m37kp4V7xln8iPP8dgBOZSiSAlBIIS8vb2TkpLi4+PfeecdwcoKPAHutzKZ7MaNG9WrV2/YsCHoYm3Ct99+6+npOW7cOI1GI0QSooJdRZKkRqPZsWNHSkpK06ZNCx9vP/30U3h4eEhIyJUrV0D5A3tRuK5TFHXgwIHo6OiLFy+6u7vb/UGKuYiRJHn48OHnz58LP2KlkuWsVWSa6Y+klF5exr9s3bo1OTl5wIABgqIYJAqYJ03TmZmZdevWhZtase3zPD9s2LDg4OA1a9Z4eHgIygOEEDi1YYz9/PyeP3+elpZmVkOwe/duLy+vuXPnwhiEKG2Q6IGPffPNNzExMRERERZkaJDx/P39AwMDLeSM/fcMmDZtWmFrpyCfiUSimzdvenp6GuLiUgYNsTuJiYwgD/h7TzxiXlUbGRn57rvvsiwrKKAYhiFJUnCPRAjNnj178uTJZkWy4OBgeFi4w8PvkHqJ5/ny5cvfvXvXbNcsy9atWzc7OxvitPR6vYmBmqIomUz28OFDyxNkWbZZs2ZpaWlAzaBhJAhi+PDhy5aZSQjw7wJ88skne/bsMTZPC+IBKtAgarXazz7+eMCPO8Q+5SyPoyjICfKTrPQbBmbCjE+nTzOfLyAuLq5r164ajUYkEoG6UVCHCYMRi8VCQjM3N7e///4bFex0UNLBaQl3F4PBMHv27IkTJxbl1tmyZcv4+HjYzrBaMH2JRALXDr1eHxMTU2ySzZYtWyYkJJjIDoLWJD4+vvAr/y4AwzBVq1YlLGatpSjKBxF7Pcvx9ooncoKclJV1V8xzWh0ixXPmzh03bpxZaYdl2Z9//nnu3LnAB4AQrVFOCEZBgiBomt6xY0dRGoi///77ww8/BKO50LJwVIhEouzs7HXr1o0YMcJyjzDOYgcWExNTeAe8MqWKFSuCMFtUEwRB+FHU757l7D4E5AQ5Kj05ksS8HimUco06XyaTeXp6Hjx4sCjp+8svv1y7dq2Hh4eVqiHgP/Xq1fv9999VQiYtI/A8//z584iICA8PD7i7mvhJwCk9ceLEWbNmWegIY3z48OHRo0crlUrQQFjYuwRBxMTEmLk/mswqODhYyIVtdmP6iET7PL3sVkfICXJUWtIDUkQRmOdJhP5dSpqmz549K3iAmeDOnTtDhw6laRr8uuBsBDFBEBDhSX9//6Ks+SzL1qpVS6vVCh9CMLIKLM7Hx6eoc8K4nZCQEGtyMMJaAiM1y4JMFyQuLg40sUV5iol5niIcylrH84gkKIIw3c4SiaRbt25BQUHz588v/FaDBg2io6OvXr06ZswYYeaC2EqSZH5+/sGDB58/f2726+v1+u7du1esWNEkeSVcaMVisUQi8fPzi4yMtPz1GYZp06YNZKC1ZrKgBqdpuqiKHua56vPnz3v06GFWDVlBJPqflzdrr6JYTpA3hvSv1m9A27YtJWIFxq8wM/iaPM9rNJqRI0euXbvWcmtarRZSeFt45vz583379lUqlUDZ8KMxBeTl5U2fPn327NmW+zp27Njo0aMlEolNHgVw2d60adOAAQPMPmDpWNPr9UuWLNmxY4dweSFJ0p8gfi/ny2I7TwEZQd754P13Jk5CCBkMhsmTJx88eFAmk8EXEXwFgfsRBOHr67t792776vLExcW1atUKRFj4RRDqIbEPRVFz5swZN26chUY4jnv+/Hn79u2BxRFGaV3NPm9sLhaLxbNmzfrggw8stG+VXLFw4cKdO3eCtOCP0O/evnZTAIsQ/n5DlaYRxj9++umn+/fvBw8GjuOUSqVAfGAdE4vFUVFRlnM//dsFy44fP15QLcDngH/Dt5PL5Z6engcOHAgMDLTQDk3Tffr0efjwIRyw1uSnga8P++bkyZPW3JBtyBkXHx/fsGHDmuXK/eruafcCGHT6qreum40P1Wq1wcHBcrmc4zjhEgRfH9QAJEkOHDhw+fLlRTWu1WohDSXceGGnKxQK49D14ODggwcPWrY/Z2RkjB49OioqCmRCWABr2A5FUWFhYb///rv19m2bsyY+vnlTNXGS3QugMxgqnPjbLSCgqAcePnzYoUMHsVgMNA5SirH0ptPpRowY0bVr165du8IvGONvv/12/fr1wn/CP0D2ANFbr9f/+uuvxRYv2b9//5gxY9zc3KxRxAoMjaIog8Gwfft2YUjWw+YFSImK4kaPtZ8FaXX9acP+E39XMhezaYzBgwdfvHgR7qImkVmCllBYG6KglJhxC3B7p2l69erV7777ruXudu7cOWXKFJVKBVdRK0NCIbP02rVrLdh/LMPmBTiyfXvdjd/zReRaspQVGyGEEKfTjyRRQn4+S2ujIh/6+PpY7q53797gFCWIxaBakclkwJ00Gg24zhW+48hksuvXr1vWErMs26NHjydPnsD1DYRLUBwVuwBubm7nz58vV85OrQzAZiuj3POV+ZAIs3oDIZNx9erkK9zqLllEyuVPGjWWSooSkzFFUgRBSKSSRo2b8Dzbr1+/deuKzC4MdRsePnzYuHFjLy8vMJ8JSioIewKzmpBmjSAIuVx++fJly4yY5/l+/fqBRRcVpMGA49o4PSEcA3CZAnoiSdLb2/vUqVMOfvp/2reVAnLuRzEjR+fn5vHeXt7DhqWxbNVPphKvbhZM08+q1RSX8yr8Oq/XT1bI7qdnEIhBWIwxhxAyGAyjRo1avHix5btlVFTUsGHDMjIywPIuSKuCOwLcxVq2bGk5lnrPnj2zZ882GAygZSp2ytA+SZK5ubl79uzp2LGjNbHaVsLmBcA8r8/JkXl4EBYHwcUnJvbpgwtNj9cbxiHuqUZLIIZjSbH4n0BX4OwGgwEc8SyPQa1Wf/HFF2KxODIyUqFQREREJCcnr1mzptjB79u3b8yYMT4+PqDSUCqVxYaGCb63y5Yte8/h9Fpm2nfQ+ckCktasZnb9avIj1hvGYvaZVgcUYKwLQgiBDophmLi4OGvKjVgJjHHdunXz8vKseRhiQ1UqFbjAqFSqBw8eOGskZroruaaDpn1CDR5MmshzBCEpmnRUKhXHcXK5vEqVKmFhYUuXLnV8GO3atQsNDdXr9VbqD/R6PaTfy8/Pj4yMLNGvj0q6lmTw5zM8Z8wyzsWBCUJWtIgN+QZBAsEYb968OSAgYN26ddbUQzLBsWPHgoKCQkNDX7x4AQK72QOmMAOgaXrSpEmxsbGZmZmlUFysNKoovRgylHhWYFVmmKmYu5OvpggWIQnDGMCCWMwoCYKiqOPHj1cqzjWY5/lHjx61adNGJpNZ6UkGIixFURKJpE+fPitXrrTmLWehNBYAc1xMpy4UsGCGeT5r5qVnMZs2rRdRckpEGjsEFjnKAvsiy7J///13rVq1Cj/D8/zQoUOvXbsGrMbK/PMGg0EikXh4eNy6datMSkuWUiE3zPOxrduSegNmmceffNxt1GiE0NWr1wYPHgQGKWsaMQ4F6N2796BBg8Ct4csvvzx//vzTp09BwQlFFZAVOcAIgggMDNy/f7+fn5/DU7QTpVjKEOO4iOZITz/+ZHLX0f9mq3r8+HHr1q3h+HWWK1xRAGojCEKtVk+aNGnx4sUl2p01cPYhbGE5CSLk3BmNXmN4NeapevXq6enpjx8/Hjx4MLg92xqRasvosE6nmzRpUlZW1uvw9ZETKIDnkfXfy4qHR40adfr06ZIgBXd39z///NOOPOMlihJjQRibKbFm9Wrl5ubWrFkTYtshXML6cYKSDiiJYRi5XC6VSo8ePep4yamSQOmWs7WJXBC6f/9+x44d4XiwaZxwsDMM8/333/fq1aukjxZHULoLYJYsrMCQIUMuXLggWGULtfqKhRaI5osvvpg4caIjgy0dlPwCGO96excA0L9//9u3b5t4NgjeAqBE8vX1PX36tJXW49cBrzULMov8/PyXL18OHz785cuX+fn5JEl6enpWrFhx27ZtwcHBThlmaeLNW4D/GEr3c7zGh2FZoVQXgLZdqfmfR+myIBcKwcWRyxiuBShjuBagjOFagDKGawHKGK4FKGO4FqCM4VqAMoZrAcoYrgUoY7gWoIzhWoAyhmsByhiuBShjuBagjOGyB7jwVsPFgVx4q+EiABfeargIwIW3Gi4CcOGthosAXHir4SIAF95quAjAhbcaLgJw4a2GiwBceKvhIgAX3mq4CMCFtxouAnDhrYaLAFx4q+EiABfeargIwIW3GjbXjHHBVmCMExMTk5OTSZI8d+7c1q1bNRoNSZJQHBwqkimVSoVCgRDy8fEZN25c8+bNeZ6vUaOGE6tWuGAWroAY54Pneb1eP3jw4KdPn+bl5YnFYpFIBNVxIYEsFJZEBSlPjYuKCqn24XmJRKJWq+vXr3/o0CErK5m5YBNcBOA0TJs27e7duwkJCTqdDmrOwC6HirxCVYrClQygQItQeguyzur1eqiwAqUb4RmGYZo1a9aqVatRo0Z5eZmpCeaCrXARgJ3AGJ85c+bs2bPbtm3jOA5KjRoXuCyFAeTk5KxZsyY0NLRt27auw8E+uAjAWvA8n56enpyc/M4770BJYoQQxlgmk2m1WrlcrtPpgNOXznigJIJQ1A+SlO/Zs0cikdhXbPzthIsALAEKPnTq1Ck+Ph5KZolEIoPBIBSBwxjTNA21PCQSiV6vd2JJz2LHBv1CrVjh8BGKKrdt2/aLL76oXLmy63CwABcBmEKj0fz000/Hjh27du2aSCQC6dzKAnBWQrgPQCk6hJBwPRCLxQzDmFT/sLsXjDHUy2nRokWdOnUmT54MB5cLAlwEgPR6/fXr12NiYqZPny6RSECuQEYFmzmOk0gkUDPdKT0K+xuuvEAPQGbC707phSRJqDOIEOI4DuoJurm59enTp3Xr1r169XK8lzcdbykBxMXFyeXyiIgInU4nkUikUqlarZbJZHq9XqlUgiQDhc0FZQ5FUQzDmFTzIwgCJBCTHzHGsP+EAoDwj1atWvn5+dWqVWvkyJFSqVR4hWGYPXv2nD9/Pj8//9y5c9Cd8CKcP0Ahwv8WO0cYAE3TUqkUnud5HiqpCSJTTk5OxYoV586d27Rp0zex0o7jeFsIgGXZhISEL7/88ty5c06cslDHFTYWbE1g6jzP8zwfGhrasmXL6dOn+/r62tr4u+++e/v2bahlTRCEwWAQi8VAh846i1iWhVq9er1eKpWKxeL69euvWbMmKCjIKe2//vgvE0Bubu6WLVsiIyPPnTsncGWe56VSqV6vd8rVELY7XIVVKhXLsmq1ulGjRl988UWVKlXKly/veBcYY7VardfrGzZsyHEcsHMo7+5441BUUyKRGAwGuVwOhwNUrlUoFJUrV27cuPFrUly2hPBfI4BTp06dOnXqjz/+yMrKEjSVgpyNCuQT2LXFtiZoWgDAfYHli0Qi2CskSRoMhj179ri7uzdo0KDEZ4hQdHT09evXP//8c5ZlZTIZKKZAJQUDhhOpsMBWFDDG8JZwgrEsC4cMTBkOijFjxnTo0KFNmzYlPL9SxRtPAPHx8bdv316zZs3du3e9vb0ZhgGh3Cmlt2ETwEYH1osx5jiOZdkRI0Y0b978nXfekcvljnfkCNatW3ft2rXz58/D3hWJRMC/c3NzQbxxIiQSCU3TWq3Wzc1t586dcMq9zhWBi8WbRwAY45SUlE8++eTmzZsGg0HQnMBRLmhsHO8Izgq4L8I9uEOHDqtXr1YqlY43XnLo1KlTSkqKRqOhaRqcKRwHx3FyuVyv1wONGR8vJEnK5XJvb+/z58/D0eqUHksNbwwBLFy4MDIy8tatW3C/hB+N9YmwUwvrZIoCh1kRKSIIEmHM8hhRIowQjxCBOBGiWINOJlNo1Pr7D++KxWIPD48SnFvJIDMr60Xsi48mTXz04FG5cr4YEwRJsqxBLBbB56JpGpgF0AlcAIpqzcTLQ/jy8M2N7ySNGjXq3LnzuHHjnEV+JYrXlwDOnj17/PjxvXv35uXlSSQSMMSCpsUJZy6BGMxjjFVSOUszBI8RRnqdluGYn3fvDg4JqVa9uoM2Xe3JU/qEBM5gQBgRCCOMCYR4llNUr0oYDDhfjTDiEU/4+rIisTY+Xh4Y4NWli6PzKhpHDx+JjIza9evP6enpcrlcON/AkUkQ+p0COAp0Oh3P84sXL65du3bjxo2N1b6vD14jAkhNTX3x4sXQoUMNBoNUKmVZFiRaMGdKpVKapuFJx89ZAiMxTxkMepFKVrdhvebNm38+faZtTWBsePQI6/VcZlbKwkWYpkUcR/A8QZLO/6AY/1NsnKIQxwXt+R+fn48IJK1Xz+4mV6xYcf369evXr0skErg9I4SsPz8tA0QmuI+BBgJjDJq3q1evEgQRGBj4mtwcypIAgAO1bt06LS2NpmnLR7CtgLNCLBbrdDrBFCoSiUiSVCgUKoXq6vWrtrXI87qLl1LnzUMarbMG6USEXrpASCTILtaQkZExb968mzdvpqamisViuDwIVAHbVwhRcNYaKRSK5s2bL1261M/PrwyJoQwIYP369efOnbt8+TJFUSKRiKZp0Ea7u7vr9XpncSA4OqBlnU7n7++/devWqlWrlitXzvp2std/p79xw/DggeNDKjVI69RxH/ausktn+15PTEy8e/fu0qVLnz17Bo4hqMArBCEEqmQnOvxRFKXVaimK6tSpU4MGDd577z2bFshxlDgBcBwXFRX16NGjTz75hGEYlUrF8zw4ToL9RSaTgZuAs04AgiDAP3n06NEtW7bs3Nm2rcCr1S/HT6SfRKPXRTa0E5S3t6pnD6/JH9l3LAAuXryo0Wg++OADhmFkMhlogZ1CAMKpIjh3wOrDZvjmm2/8/f1bt27teEeWUSIEkJmZiTGuX78+KIwdDBMx9n4Rrm4QK6hQKGCvgyWoc+fOvr6+S5cutaMX/a3buosXc3fusnucry0IscRr1kz3vn0cbCcvL2/Pnj137tzZt2+fEK0GywGEIZFIdDqdQqGw1VnD7A4B/RJN09WrV//kk08aNGgQEhLi4BTMdO0sx0OtVvv5558fOnQIPLecqIQGH0bwv4cvBTK9Xq+Xy+U1a9b87rvvKlSoYHf7umvXUidNdspQX3O4v/9euY+nOKu1tLS0mTNnXrx4UbC6gGWaYRgr3fWKBUVRLMuCyCDcpyMiIhYtWlSpUiXnyAt2E4BGozlw4MCdO3d+/fVXjLFSqWQYBrzPaZqGOCmn+NsIQbFisVij0fj5+c2ePbtly5ahoaGON57Yuy+blOR4O28KCISkfXr7zZxBODXfRHp6OkKofv36gg3eKbtTEJOE1mAbsCwLJ0/Pnj2Dg4NnzZpldxe2EcCdO3cyMjLGjBkjBHcXHrFNMxf8dYW0COCIAjZdUESo1eotW7ZIpdLevXtb33KxyN20OWvzltdCFVfq4BDhO3O6+5DBJdE4TdN37tx59uzZtGnTKIoCdww4t0G+B+ODUygEjgW4Sfv6+g4YMKBp06bdu3e3vgWrCECv17dp0yYpKQkG7UQSB/meZVmpVGowGOByzPN8586da9SoMXPmzBIK54sbNhxFP3nDb7mOQty6VdCa1SXdC8uymzdv/vvvv2/evCnIsUKYhIOA+B7QdIM6EbalWq0eOXLk0qVLi/VbKYYAXr582aBBA4lEAlxZMJcIaTwcBygrxWJx5cqVDx8+XOIBrByXOvlj3fXrJdvLGwGM5S1b+q1fW5p98jzfsmXLzMxMg8HglAbhigimN9iTIIGDNC6Xy+/du2fh9SIJQK/Xf/DBBxcuXEBFXNKLBRC6TCYDlzVQ1AhB5eCIcv78eZIkS+J2XxRy1q7L3vET8ab5bJUcwm7dKJN+McaZmZnx8fFdunQRiURgFBL8zxmGAW0SuFSAuRqEKFs7kkgkGzduLEobXuTObtKkSUpKiuCSYDe/F94Fg9SyZcuqVavWrFmzsvIijmnUxLX3jUG5uwefOVXWo0AIoWPHjl25cmX79u2QWQx8TuFPGGOFQpGfn2+HapHn+czMTLVabVboMk8A33333bJly0BcE4It7OhYq9U2b968Zs2aK1eutPX1EkJsoyZlPYTXC4RM5rv4K0X7dmU9EFNMnz797t27z58/1+l0KpXKkZQzFEXJ5fIH5iz65gXup0+fCqpcOJLs6BVjfOHChZo1a9rxbgmBiU8o6yG8fuB5QurkuBmnYNWqVQih27dvd+/eXavVKpVKwRvSeoDXt1gsVqlUZh8wTwBOsY5RFNWtWzdQ3oeEhLRv3/6LL74o22gSccjbmPjAMrBKJW/RoqxH8S8Yhpk9e/a1a9diYmLEYrEQrCwoym0CqFhevnz55MkTsw+UIAGgAjW/TCZLTU397bfffvvtNwjxHjVqVLNmzTp27Ojt7e2UjqxH6JVLcc1blnKnry0w5gOWlnHMu1arPXXq1JEjRw4dOsTzvJubG6QGExJogw7G1luosUnqu+++K0rrav4O8PHHHx88eNDGidgD8IfbvHlzpUqVwsPDSyeJX87BQ9lfLSZem0CIsgLG2HP4MK/PPi3lfhmGyc7OvnTp0tixY+VyOUmSsA2c6GQqFovVajUYl+Li4izE4pRx1kitVkuS5IcffsjzPFgHGzVqNHXq1Pbt25dcp559emtPnaIvXkKvR0xGWUHeu3dp7v7MzMx+/frFxMSANpPneS8vL8g7BlH8TnGGF/xVPTw8Vq9eXaxV2DkngIkHhE12AyGcV3gFfjEYDHXq1KlTp860adNKwlCgv3krZfx4gngblaKcSBS653+i0JI1vyQlJW3duvX06dPPnj0DPSZo9EGvCE4AoNcHC7EdOv7Ckcosy65du7Z///5Wnif2EwDYLMCmLYQsQu4QZxmJBWCMs7OzZ8yYUbt27R49ejgxuvTlJ59pz59/e4gAI+Tz1UK3rl1RCWSxzs3NvXr16smTJ7du3apSqcAEBHU9nOL4ALYwiJgFxxmKojIzMyMiIrp06TJo0CA7sjvafwmG4HQ4buRyObBt2P3gEmgHQVuASqXatWtXXl6em5ubRqNxc3ObNGlSz549HcyF77/6G4RQ1o6f8r7biJxNt68RMCbE4nJzZ7s51aGQZdnY2Ni0tLThw4frdDrBX12lUoEnAuwBIWzAwe5gW+r1eoVCMW7cuLZt2zouKtt/AoAHG8/zBoOhXbt2u3fvhkmuXbv2u+++gzg3Bwf3zxALnAeFlGyQwwx4AEKIJMnAwMDly5e3atXKwb7i33uPf/DIGaN+jSCuWydg3VrSzc1ZDV69enXhwoWPHj0ClgxbH1ihEDqMClSQ8Irj4faenp5z5szp16+fc7N9mSeAqVOnHjhwoJg3C5LwYIzbtm27a5dpLBXDMImJiUOGDElLS1Or1eXLl1er1UJmQoQQ5Bt0nDEI0iTcJapVq9a4ceM5c+YUZfsotjkmNTVn7dqcE6fEQjqGNwsY8wShate23IzpIj8/x6cQFxe3ffv2W7du3bhxQ/A5cxDAQEG/CbI7pCwQ0g2lp6d/8MEHw4YNq1y5cskVRLOfAASfUJZlO3fuvGPHjqKeTLx1+8GyZSFIdJdl/4p79pjjnmZmKiUS0nlpIIQoeOBDEJ4HcWRdunTp378/mOTsaDln18/0ndva8xchsc/rqzrFGFGU8p1u0rp1lO3aUz4OGVhomt67d296evqqVatgU8IGBeblxDseyPRwbhgMBn9//8mTJ/fs2TMwMNBZXRQzALO/WrMv4dQD7mvZtZXnOSotzcdAN2eY5gQloUivkPBkheyiWHzH2+vQlas81Pkp6FrINGZlCltklKdAcBiEIG6DwXDu3LlTp07BYcWy7IIFC/r371+uXDkrbQ6eI0egkSOE/0yd/DGvVjPx8XxurjWvlygIsVhcMUxcpZrnhHFih3fMs2fPjh49umnTpqysLFAzQNI44SILawHOkcW2VvhsF6KHhWR+IpFIq9WOGjVq6NChdevWLZPkKPZfghmGMRgMPj4+ubm5ljcTwbBSlscYYfDNIIhU2kDRhrYItX2ZNtWznETlQauUmxn9X8lJeVodzdJCbSLrZ1JY7gTlA4hGEEcnkUgWL178zTffcCwvJaWe3l6//b471BZtoN+Gda90yXEESebv/SN902YyJ8f6duwAIZPyDBt28TwiSUQQhDOuWNeuXZszZ05SUpJarQZmLJFIwPcYFbiBCewfXrFy98M5DBpC4ERQfwRa+Pjjj6dPnw48zr6RGwyGbt26QSSJRqP56quv2rVrZ0c79l+Chfh0IWOhTqfr0KFDo0aN3nvvPePU+PHXrj3/bEZthtEwTLHyqFgmTffwSKxY8fDtO4fSU5HBIEHIcSlWJBKp1Wp3d3eWZVmWRQSBJCKW5cUEojhMYBwcENT5nW4TJk+yo5KFefA8m57OZWXzej1CGBEEyE/GMzHSYPMIERghRCBKKqU8PEQlU6JCr9fPnDkzKSnp+vXrsILgdSxkFHZWZhr4B8Sz5+bmVqtW7ccffwwLC5PZG4vMcdzKlSvPnDnz/PlzMJ8JuQOBujDGR44csdX50iECgH/AbQY+n1AUCG42GzZskEqlDatXfzR8RE2W08LOswI8x4kJUi6W6L3cYz3LRRr0W2NjcjQajuN4lkUIgZsUHNCCNhYXVCUyu4pwT4AAIoIgCBIhjDiOk0vlepqmRCIW8QSiMOY0+eqRw4f37duncePG7u7u1gz4dcb//ve/EydOHjn5N+I4MSKh+JLw9QS7rE3KSuB9ENUEPAWS04A5SKPReHp6rl69ulWrVna7exkMhps3b164cOHbb7+lKEoo9GSsWUIIgc5diJu5e/eup6en9b2UuC8QxjhAIp7r6dWcoDQcZycv53mOIMqV83b38tzJ0H/l5MSkpyWr1RRCFEFA/n6CICCFN7zhOCeDrOgajUYikezZsycwMDAgIOD1z3jM83xGRsaxY8dmzZplMBi8vLy0Wq1KpdJqtZBqwCm9AAHo9Xoh4o8giIYNG06ZMqVDhw52jzw1NZVhmIiICIQQ0BKMWVCCmywrZPaF04DjuEGDBq1YscKmNSpBXyBcULAkn+WzWI4QkfZLMiRJIZSbnZWbndUe4/YIUXIlo3TnqlQ6lpm582VKWl4ewfPwgcAEY5/3rDHgW4NubuDAgcDqeJ6vXbv2rl27nCYpOQkZGRndunXLy8uDeEJgmULSDYgmEQr+OQiJRAI5bzDGHTt23LJliyOtpaWljRs37vHjx2A7AqKCU0W4hECukMLphkB+E4vFYrH4jz/+aNSoka29208AQj4wIE0h3QUcrPAMRVEcz5MkSVIURxAEz2MnZDYnEEIcxiTHEo+je2M8gJKwnt58k0YXMzJOGvT3YmKytFqaYSRisWCsEGr9EgUlUIs9IkxSw4LVQiQSPXr0qGHDhrC3GjVq1KJFi+HDhzslSZFNwBjPmjXr1q1bDx8+hC1euHyYUK4PxBtrbpyw1WQyGSiRYeLAgzmOy8zMbNOmzQ8//BAQEGB3UGtmZuYvv/xy/fr1U6dOGWe8QghBBTcYLZjVBPMOhLaAQxFCKD8/v0OHDlOmTKlTp44jzMh+EUhQvWOMu3btumXLlvj4+GfPnn3wwQfAaWAyao2mvEL+qYfXO5RIz3FOIICiQJIky/IMI1MqZOXL3xBTN/SGw3FxMbm5UooijFQTyElXPaFbwaNr1qxZoaGh7du3L4m4H61We+PGjb/++mvLli1yuRyqd4G+0ol5m4GFweLyPJ+dnV2lSpWBAwf27Nmzdu3adrd57ty5jIyMGTNmgLOM2SBboD3oHfYVKuDxUqk0IyOjcuXK/fv379ixI8hIToH9dgA4TIGVAlGGhISEhITExMTAA8eOHduzZ8/Ro0cZhnXmjisKPM+TJJJK9SynT06pilFVAr0nlrL+QQ9Dwi66yXdfvkhrdYLXobNSlwG7ha+xdOlSQVIKCAj48ccffX197S45yrJsRkZGSkpKu3btPDw8YIuLxWKJRAK3eUjFB1pLuVyu0+kcnBQcFxjjhg0bDhky5N1337W7qYSEBJFI1KpVK3CUQAhBihCNRqNQKMxeRYzvFcLUevfu3aFDB+fmRDOG/SIQMFS4+Ju1A3Tr1q1bt24Iody0tHPvDsO5+fYP047hEQghRFOUAmNx7PNaEY2vXb5SzsuL47gff/xx9erVer1eYDZCiRS4tIA4gaywhwh2eyF+Gg50kiTT09P79OkDjchkstq1a8+YMaN58+bFjjw3N3fUqFGRkZHCNQbUGtAXWDPAd8C4tFFhZ3pBlw9TM5GFBPEV9qJYLB4xYsT8+fMdKcDz5MmTBQsWXLlyxVjCFAYJxy+o76BfsK+BzR4UiRRFKRSKESNGfPzxx15eXqXANh26BAuLbVm3YMjI9JIruJycV5XgpQRMEphhspKTyvv6IoREItFHH3300UcfIYQ0Gg3HcSNHjrx48SLUGwV9ghB/7SyluF6vf/DgwcCBA6Fgh0wmk8lkfn5+KpVKp9Pl5ORotVqGYbRaLajJnZI4jTDSjwm6QtCWyOXytLS0Ll26TJo0qW7duj4+PvZ1wTDM119/nZSUtHfvXjiaQFIvrISACscQnw6VY4BZgBmradOmn3/+ea1atUq5OAByhABg3wODOXnyZI8ePWbPnt28efPCegZ9Xi6bkyOmxDTLlD4NEAhxIklu0svCfwJJXbjtpKen3759e9q0abm5uZDi11liEkmSUCAI9OUYY71en5CQIDhOIoREIhE4hzlLmhcACgCNRhMWFta/f//evXvXqFHD7taOHz+enZ39+eefazQaqDUGt1W4N8MBUvjkFJwppFIpBCv++OOPFSpUqF69uk295+fn79+//9q1a7/88oubm5uQpTM3NzciImLfvn1QHNp6OCQCCd1LJJL79++PHDkSVjQ3N3fRokXDhg3z8PCQSCRiqRSjsnG1JxDiMRazNKktvq6Rr69v165dHz36xx36ypUrGzZsuHLlik6nk0qlgkuFwWCAVbfST8l4Qxi/JWiZ4D+FU9TK3V94nwmyDSiCgD317t27d+/eXbt2taZNs3j58uWNGzfmzp2bnJysUqmEToWtBkcKCPdCIXE4S0HsgVc6duzYv3//7t272xT5jTFOSEg4ceLEl19+CRIU/A51O4mCeHkvL68HDx7UrVv31q1bNpX0dKYdAA5usVisVCpXrVr17bffgv2iUYWgMQYakc4PQSoWGCECEQxB2GG+at68OYjswJIXL168ZcsWuPmAihqovawq40K/NE2Dtg2suTKZLDc3d+bMmR988IHAIO1Abm5u3759k5OT9Xo93JE0Gg1kwAclvfHDguld0BTTNA1pa3v27Pntt98i24XJ33//ffXq1YmJiUJ6dOCzJjQPBAA3ImNisx7OJAA45hBCoAkB5S7DMM9jXnC+fmUh/8MH4uUMmc2SFSpX5rXali1bdu3adciQIW5WB4jA4s2bN2/evHkIIZqmMzIyBg4cmJiYWIZ1oYHzEQSh0WhatGgxY8aM6tWrO1LPeP78+Tdv3nzw4AHI67CT4BgxGAxKpVLQEJiwcBB6obqem5vbqVOnFAqFh4eHTZs+OTn5q6++evToUVRUlIeHB1yOTbxHCx96cCaAmU+hUOzdu9cmPwjkYEAMKrjdC8YmwZ9EMN1hjH0IYn45n5ZisTXOcE4GQVA0nUwQ12j9l2q1m9F+ZVmWpukvvviiYcOGjRo1sttJKyYm5sSJE1u3bn3y5AnsP8GyA2EJAr8kCoKBivVyNbbWCcuPCjYBiBk//vhj5cqVK1asaN+wEUIXL168ePHi2rVrYZxgYypM0sLOExw8hTJheXl5crl8/vz5bdu2tfVewXHcsWPHfvnll/Pnz6MCKjLZ4kByAjMFDZjgpA3ctl69ej169Jg4caJ9Rm77CUDwezMYDJUrV65Tp86DBw+io6NlMpmwSNC4H0F8Uc4noowIQETTDzC3X6c+QPNSo86FLMTGvnQXL16USCT+/v52X0MPHDiwY8eO6Ojo/Px8qN0A2j1BQ2qNjwZwU7hp5OXlQf3Mnj17Dhs2rG3btvaNjef5nJyc5OTkDh06YIxVKhVsKRghuFEJ9GYMUOyA5ANSVnh4+LBhw0aPHm3TADDGaWlpmzZt+v7770FUFrSiZnWvuCBVBC6IFwOP44CAgNq1a69YsSIgIMCO72AC+0UgGBnU4m3YsOHatf+kmWdZ9vjx48uXL4+JiQGixKiMrsAAguBIikYESRLo1RQaUGUMGAysQdOmTSGQkiCINm3azJ8/Pzw83Kbe+vbt27dvX1TAOKOiooYNG0YQREpKiru7u6DwttwIz/NyuVylUh06dKh8+fIikcgRvVDHjh1TUlJycnLgBqlQKARlJahojZOUFO4IzodatWodPnzYDg3VlStXJkyYoNFoQLMsFotBvgLfJJlMBu5uhQ9GoqDaJ5jG1q1b17NnT6eryBzyBQIWAjvp3xZFou7duwsJiW7duvXy6VN2xdeOjtRuYCTieB8GsZiXFdxcBW9y4LXC2hvf8E6dOnX27FmdTge+HnXq1Bk9erT1zr2wTnXq1ImKijL+nef5+Pj49PR0QbQAuSg4ONgpJaMNBsNPP/107NixW7duGQeywO6HM5koiBASMlIBq4IDSiQSZWdn16lT59tvv61SpYqxbt6a4eXn5y9duvTw4cNarTY/Px9iMFDBrV1QdkHST41GA1pU4UoD1wyCIIYMGfLee+/Vq1fPuFOnm8bsjwgjjCo9WTjWGzVqFM+yT9xUyGBzal+nACPEi0gfiSjtaczDhw9Pnz69YcOG/Px8yC1juaQhy7IKhYKm6TNnzpw6dWrjxo1QjWf16tWenp6dOnWyYzwkSYaFhYWFhTk0KyMYDIaoqKjo6OipU6dSFAUpSaCjwgpHYLQg+SAjU2Zubm5ISEivXr2aNWvWo0cPmwbAcdzRo0e3bt0KAiQ4MoC3DxgHBEO78VtEgYeiVCoFd4mIiIiOHTu+9957pZlB2SEtENA0TMPCY2VZjoVAHMYkgSgCIYRq1qxZs2bNyZMnI4R4nr969ermzZtPnDghk8nUajWYqIRXBY0eQgiCSGiaBnPV559/DhKgVqsNDAxcuHBhRESEU0RSK5GRkUGSZIMGDcBBEk4zNzc30IoWFU5NFPjGgtexQqGoVatWy5Ytv/zyS5t6B+v1wYMHZ8yY4eHhAUpYqOmCCrinkBWLIAizeT8piipfvnyFChXmzp3bsGFD+7+FY3CIAITzNC8vz8Jjao6TUhQui7RTPI9lYjHJs7xMqtPr5UaqHpIkW7Ro0aJFC4QQy7J6vX7t2rXr169XKpVwTMOxIJFINBoNaCFgFY0leJVKlZaWNn36dJCjPD09w8LCVq5cWaVKFafPJSUlZcGCBRcvXlSr1YL9QdAyGRduIwhCKpVqNBrYf8YexRzH9erV68svv/T19bVVbfLixYtevXrRNC34HYF0BAMQThsIg4RCWKjAJRscTPR6fbly5UaPHj1t2jTHP0haWtq5c+eePXvWpUuX2rVr25cv0H4tEHARcBkQiUR5eXmhoaEtWrQYNmxYi1fzzasTEpLmzZfdv09ggi9dJRCPkIIgo3Say4x+wZNnVr6Vn58fExPz/vvvp6amwoEOG66oOH3QjYDNSCASiUTSqFGjmjVrfvXVV/YNXq1W/+9//3vx4sXWrVvhjg6bTNAvmzxv7P0GfpfgRdy4ceOpU6fWrl27UqVKNg3g9u3bf/zxx19//ZWeng7XA5IkIQTMsiwOl2yIJcIYT5kypU2bNg0bNnQw+3dGRsby5csPHjyo1WrBq0KwSArDGzBgAJjerIR5Avj000//+OMPy28KimHhGgCrIixSq1at+vbt265tW3epNGXRQvTXCZFSyZduZp1/CMCg3a5We7/Ts1evHu06tpdIbGMVSUlJV69enThxokqlMiEAsqCIN3h6IYSEGwVREHLOcZxarfb09OzVq1e7du0oiurcuXNhdoUxPnv2bH5+/u3bt3/88UeItP53IgU5yIy90E0nWyD5UBQ1YsSIdu3adezY0Y6Znjx5cufOnX5+fiZ6W8FEYOGKCG45nTt3btKkyZAhQxzMavzixYuoqKgffvjh6tWrSqVSCBAD5bVgbBGidsAoVr58+R07djRo0MCaLswTwM6dO7/44gvIaYEKFD62jh4XZBwILFdurp9/7RdxlLsbX7pZ+YEAHhh0P6rVF3mEWb1ISjEGGpPU6JGjp30yzcfHx9ap/e9///vtt9/u3r2r1Wo9PDzUajWwZ2OzpdMh5BkQ/g2ulAghhmFYlu3Zs2f79u2HDBliE5elaTopKenevXsff/xxUTUYiYJAP9hkoDKGKxDHcUqlMjs729fXt169eqNHjy6qGKOV0Gq1KSkp+/fvX7x4sd1WbYyxWq3Oysqy5uEi85h369bt8ePHYCoSAvJtBbCQAInkc0+vRjzG+B83/VIDj5CSIO8adOvy8m6LKMagkSNSJVPRNGtgDZhAcIP08fFZvHixrR5jMLt+/frduHFDpVLl5OQIGhjnAuJd1Gq1TCbT6XRKpVKn0/E836VLlyVLlvj5+dkqWkRFRU2ZMuXFixdCDC6EQIDcYvIwTBNMsBClDlZOg8Fw7NixqlWrgj3BkQneunVr6tSpycnJcGMGCjeOrbUVOTk5iYmJ1ni7FEkAPM+vWrVq48aNtnoXCcAFSUoqyGSfe3k15MqOAPTadZq8O5ggSUyyCJEUh0kRwWGeRYgwVphgjENDQ9u1azdz5kzrnYUAGo0mNTV10KBBGRkZQoPWJ7czAfFqwQTwZy5fvvzGjRtr1qxpqwf/7du3t2zZAqZ6iOUVvFcEHaWg0kDmsrjJ5fLY2NiFCxd27NixatWqjjgdIYROnz596NChM2fOZGZmCj7FqMC3B846Wx0NBR0XSZLx8fFW5r8ovpLFwoULt23bhgqWAVS8ReXeMYtyJLnUt3xt7p/AVSvfcgqAAO4YdBvUebdYXkSSFMkwDCcWKzHPWU71CctQv379SZMmQRIym7qOioq6du3a5s2bk5OTUaEU4Sauy3BtNXarJAhCrVYrlcoNGzYEBQXVq1fPJqWNWq0+duzY1atXV69eHRoaCoIyhGIZPwaeLJDSR3BdAYWvUqnMyspq0KBB3759x4wZ42Bd55SUlJMnT544cWLv3r1+fn5gfnGkQQHCmMGChhCSSCTbt29v27atNa/bUMplyJAh8fHxCQkJYMq2PsOMN0kt9faujQjOKVkhbAEQwH2OyezT61hK6oN7kYmJz0hCJJW50QYDQViau7ECEXZqTk7OwoUL33//fblcbofSLSMjY9++fRcvXgQBWqlUxsXFgbtllSpVXr58KZFIfHx8Zs6cWaFCBTsmm5WVtXfv3hUrVghiklDBRCwWg+OayStkQepCUOQjhDw9PSMiIlavXu1gRjCO41JSUv73v/9t3LgR9GPu7u6QHhw0to40bjx+8FACXRBFUS1atPj111+tb8EGAgAAc9q1a9eSJUtAQV7sKxVEotle5eqXIQEwBv2Id3vM+Bx+xBhv3bp91aqv1ep8C3zI2DsFRAVBvgdFu4+Pz2+//Vb6CVGMcejQofnz56vVamNrAC6oMSUoqYWQ3MLmWOBl27Zt69y5s+PhDfv27fvqq6/UajUwY9DGgj0YvPmFIGCnnAAwYJIk9+7dW6dOHTucpmwmgMIjuHPnzq5du/bt2yfkOhWGBZrBUJlslod7Q0LE8rj07wASgrzK0O5fzO0yYGDhB1iWjYyMPHXq1Lp161CBWhM0HrggGbIQblJY+w4biGGYoKCgcePGDR8+vKTN+BBtd/ny5WfPnnl6esKVERQVhc9kwVSPCqLpgTAwxn379p00aVKNGjUc3IjR0dGrV6++efNmSkoK2ApBKewUZYDgm4QQgiVQKBS5ubkIoREjRowdO7Zq1aoOHiaOEoAJ8vLytm3b9ujRo8OHD4OHPU3TFUSiuT6+DcriBEAkqdfpLoqpd48fV1qRPikjI+OHH3549uzZvn37vL29IbAQrmWQhaEwAQiSkhAIkZGR8d577/Xu3bthw4aOJ5DDGF+9enXr1q1HjhyBxRbUNcBihDwLhd8FXzfw56tWrdro0aPfffddB3e8wWA4fvz41q1bb968yXGcm5sbePLAtwLdPFGQJsMRwIcVrsjh4eEDBw6cMGGCc2vpOpkATPDgwYNly5ZlP348EaMGBFkmBGDQ6S4pJIOPHFUZJay2EleuXPnmm2+io6MFGUOI/oEHgNtBeQTjPwmEgRDKy8tbv359+/btfX19rbk5cByXn5+/c+fOL7/80tPTU6vVgq4WDljBcRIVeCuhgkTwxqc/x3He3t7h4eErVqyoVq2arRM3BsbYYDAsWLBg+/btYrEYznbB30HINyookcwelUW1XJSWDMZftWrVb7/91o7Sd9ajZAkAkHn/fvRn00Mys8qGALS6CyJq6PFjKj8/R1rSaDRRUVGTJk16+fKlUNsHCjIrlUo4H8BCWWgIpOALiTGWSCSBgYHwn8ZmXZZlITWs4KppAeBrAI7E4NENDJjn+UWLFo0fP96RmQLOnTsH7cABQlEUuEVBMkPH2xdSisC5CuNHCC1duvT99993vH0rUeKFsnmef5gQLxFTuIzKC4l47BcQ0LlDx7icHB9f344dWk+b+mloaJit7SiVymbNmt2+fRshpNVq79y5c/v27c8//9zX11cQwS04xgKrg7Dp2NhYoqCQJlGQ9xhUzCRJgouL5cFAxIxarZZIJMOHDx84cGD9+vUdtEZlZ2evXr16//79ubm5wOPB6UAIy0IFl+xifYGsgUBO4Pdfo0aNEjKiW0aJnwAcxx37+efgX//nlZXB8UX3RfwTroXhJgfZPFXupE85XmegRBSflEiYSzhTDEiS02gehYUuT0xMUqsZhqUoBmMCY7E6P69z5079+/fv0qWLg/mY4uLi/v7774MHD167dk0ul4NpCXQvwsVASEEnRAAKCcVAdyEIOdgoFy8ysojB83l5eW3atGnRosX48eMdHLbBYDhz5sy6detu374NYxDifQVvC2NVmOBSarIKxnMURBr4t6AUEW4F+fn5rVu3btu27bhx416H2gulIQI9j7yXPuvzoLRsnueNtUAcTXMEieQyyt3NrWEDTqNl8zXe48YozFU7xQwTu2gRd+SoyCY9HUlyGs3jsNCVSUnPs7NJkiSQASESYzHC/4RqgmCdmpr69ddfd+vWLTAw0MFC3Dk5ORMnTnz48GFeXp7AQYU4bsFFGb26pYTKHVAGVK/Xg5AtlUrd3d3Dw8NnzZrVrFkzRwam1+vBw3TevHkQi+hIawIEL1QQY+CgU6vVbm5ucMS5u7tXrFhx/vz5jRs3dkqPTkRpEEBuQvyNr1fw9x8RFNVgzChlSKgu5SXl4eXeqgUhk2GeJ0irSwfo9WnzF+YcOihRWadtJEms1T4JClqZnBidl29MACRBEAQGMxAUF4HYcEh4Vr58+UWLFjno2oUx1mg0GRkZ69atO3LkCKQQFlJqCzwe7oLAREHd5OHh4ePjA7nTbE11VhgPHjyYPHlyTEwMdAHRwDzPC2lrHYdwYsCdGAzJ33zzTZcuXexOt1E6KA0CcDJ4PvuX3TnfbSAZtvihkySv1T0JCliZmPBErTEmAAIhhHhBfQlHv7H1FwQAmqaDgoIiIiLGjRtXr149Z02C4ziNRgPCtFgsVqlUznINQAhlZmZ+++23f//9d1JSEpQbFPSJgp5KcKAvtjVBgBEUUGRBbl2wbWGMWZZVq9XTpk3r0KFDRETEa77pjfEGEkABElZ9o/t9r5RhLRnXSBJrtU8rBC1PSHiiVhcmAAvtg1wOfgRC9pScnJzevXsPHDiwQ4cOtuZgKjmkpqZevXr1zz///O2334Sa0rwDNRiNYbxDxGKxVqsF72CtVtuyZcvWrVv379/fkfREZYs3mAAQQpjj4hZ8we4/LJZJzU+DJJHeEOfrszoj7XpOrsgWAkAFSf9kMplWq4UrHaR3Bkmd4ziWZYcNG7ZgwQKoWOH0CRYFhmGSk5PPnj07ffp0Nzc3vgCgZRJ89x0fEuhb3d3d8/Pz4VM0bdr0iy++sDWp7WuLN5sAAJhmMjd8n7N1i0gqNb1LkATS00nlfdfmZJ1NfqmQyRDSI0xyPETJ/5ve3ZrtYiHeBTQ8/v7+kyZNGj58uHMmVggPHz78+OOPExISgCCRuRS5NgHy2mq1WsH7A8QbIfgGWP7PP//cpEkTNze30iTy0sF/gQAA+efOpa38mkp+iQji3zykJIkMBkPTpt/n5f564QJJEBIxT5IihkYSiRghLPgJQ/oTB1XRGGOIRud5PigoqHv37u+//37lypXtbvDhw4dbt269devWo0ePhDxWxo7TjgNSJMHJBhUX09PTP/nkk3feeadGjRqvj5hXQvjvEABCCGH88o8/0teu81RrOBB/SRLTNNOqRVyLFp2HD0cIYcxv2bJ5375DDx48kEr/yasKWkjHDZxg6BU8I4ChgnmrQoUK69ev9/T0tByZnpaWdvPmzZMnT+7btw+MCUKxROMgG7MxwfYNGKxdgYGBw4cPHzt27Ougmy9N/LcIACGEEM8y6Xv2Zn29SokxLxYTBppv0jC6RfNuYz8o/HB0dPRnn32WmJiYnZ0taH4Eg46QDlZICmTl57IgLMFfweXB09MTjAPg8GP2FQsOM1ZCcFgSPNXAM7RJkyarV68uzXRGryH+gwQAwAxjOHcuddYcZGCIJg3vN2nU/cNJll+haXrr1q1r1qwBEz1wbiHYAjzaS2fwzgLsdZlMlp+f7+HhkZWVtXHjxv79+yOjND5vOV4nAuB55OwccoZHj6998SX28wv8YHSV+vVtevf8+fN//fUXhBcJFeleo89VHOCcqVKlyi+//BIQEODa8WZR2gSAMcYcR4Dvrh1SLI8Rgax9keeRfb0UQnp6+ubNm588eXL48GFPT08h9ATyAUJKBeOwWqcDeLlg0hL8iCQSieCODxohLy+vDz744IMPPnAwivctwet0AjgdziMAE/z5559bt26Njo6GnJBgExBMyE7vDhUEG4BbtZA3AUjC3d3d29t78eLFrcz5ULlgGf9pAsC4FOpx5OXlRUZGvv/++xD/6RTja2EAXcGBo1arRSJRnz591q1bV3Ik95bgzScAHiOyiB1QYidAUVCr1Tdu3Hj8+PHUqVP9/f2FvLBEQc0o8JQWzEnCxwd1k9COoI8CHg/G3Xbt2o0fP75JkybO8mBzAf0XCMACSp0ATMBx3P79++Pj4+/evXvmzBnQeCoUCmNff+Fh4OUMw+h0OoqiAgMDJ0yYkJaW9sUXX7h4fMnhv0UAJjJPWROAC68/yq50RUnAtdddsBH/LQJ4Ff+ho82FksJ/lgAwx724cp3nyrI+pQuvP/5bdwAXXLAR/9kTwAUXrIGLAFx4q+EiABfeargIwIW3Gi4CcOGthosAXHir4SIAF95quAjAhbcaLgJw4a2GiwBceKvhIgAX3mq4CMCFtxouAnDhrYaLAFx4q+EiABfearjiAVx4q+E6AVx4q+EiABfeargIwIW3Gi4CcOGthosAXHir4SIAF95quAjAhbcaLgJw4a2GiwBceKvhIgAX3mq4CMCFtxouAnDhrYaLAFx4q+EiABfeargIwIW3Gi4CcOGthosAXHir4SIAF95quAjAhbcaLgJw4a2GiwBceKvhIgAX3mq4CMCFtxouAnDhrYaLAFx4q+EiABfeargIwIW3Gi4CcOGthosAXHir4SIAF95quAjAhbcaLgIoM2CMMcYcx5X1QN5qiMp6AP996HS6R48ecRzHMMyiRYsePXpEEARJkqmpqTzPi8VimqbLly+PEJJIJPXq1Vu4cKFOp/P29q5YsWJZj/2/D1eFmBLEvXv3Tp8+fffu3XPnzlEUpdFoRCIRRVEEQaCCE4AgCIZhpFIpx3EYY5Ik9Xq9WCwuX7786NGjfX19e/XqpVQqy3oq/1m4CMDJwBgbDIbIyMhPP/00NjYWYyyRSAiCYFkWtj7DMAghkiSBDBBCUqlUp9NRFAXiEJwPPM8DeUil0oULF7777rtlOav/LlwE4ExERkaePXt2zZo1mZmZ3t7ewNThTyRJGn9qgvjnywvnADxAEATHcQRBUBSFMQYZKT8/n6bpQ4cOeXh41KlThyRdNzenwUUAzkFsbOyXX35548aN/Px8juOkUinDMCKRiOd5VLD7OY4TGL/xZ+c4TiwWw5MAODFEIhH8laIohJBOpwsJCQkJCZkzZ06jRo1Ke4b/UbgIwH5gjDUaTU5OTvv27XNzcyUSiUgkKoXvaTAYgoODjx07RlGUp6dnSXf334aLAOzEixcvjh49euLEiYsXL6pUKp7nKYoy5uIlCpIkk5OTO3XqNGjQoAEDBri5uZVOv/89uAjAHgwaNOjx48f5+fk8z9M0LZPJEEIEQZQaARAEIRaL9Xo9RVFSqbRPnz7Tpk0LDAwsnd7/S3ARgLXQ6/VRUVHHjx9fvny5t7c3sHzY9PBvlmUJghB0OyUKnufh3owQIghCo9FQFNW3b9/58+f7+vqKxeJSGMN/Ay4CKB4Mw/zxxx+nT58+fPgw6CVh08PVViqV6vV6hBBcZEvne0LXcM/GGIvFYoPBIBKJNBrNBx98UL169SFDhsC55IJluAigSGCMWZY9cuTIrFmzGIYBtQzP87DtgOXDk6C15DgOqKJ0xiZoTjmOE4lEJEmq1WqlUmkwGIAUV6xY8e6775bakN5QuAjADFiWffLkSUpKSt++fd3d3RFCEokE1PNFvQI70prGjWUnsAZgjEUiEcdxoPEUTAS2wvhFgiC0Wq2fn9/YsWNbtGjRtGlTOxp8G+AiAFPcuHHj22+/ffjwYXJyslKppGlaLpcLzN5xgJUXyIkkSZIk4eiAey1CiKZpUPw73hFN0xKJRKVStWvXbvr06aGhoY43+x+DiwD+QX5+PkKodevWqampIOGIxWJwWwCDrrN0/ALLJ0mSZVkQUUC4ommaJEmxWOwUF1HwLKIoSqvVyuVytVpdp06dRYsW1a5d28PDw/H2/xtwEQDKzMzcu3fv6dOn//zzTx8fH47jJBIJy7Ig1YBRFn5xioZHEJaM5XhoHBi/s1YEZC2YDsMwcNRwHFe3bt1hw4YNGjRILpc7paM3Gm81AWRlZa1Zs+bPP/9MS0sjCEIikej1emDGcLkUi8Vg3jIYDAqFgmEYZ9GAVCqlKApcREEikkql0KmzFKkikQhEII1Go1KpaJoG0wEcC0FBQREREV988cVbbkt+GwmA5/mUlJT169fv3LkT+K5IJAIeCf5n4LEDwjr4b8pkMpBPLDQLIgcy8m8zNo0RBCGTybp3787z/EcffVS5cmXj1p49e7Zr1664uLgnT548ffpUqVSarAs0Ds1auWTgZQ3KK0GmgkMGDgeDwaBWq6dMmfLee+8FBgaqVCpbvuJ/BG8XAWi12iNHjkRGRv7www9SqRS8zRwBbEphd4JGUq/XK5VKvV4vkUhommYYJiws7LPPPqtcuXKDBg0sMHiO42JjYxmGadasGUmSgqQOzBshBEeQieecg+PXarUeHh6gKZo0aZJTmn2D8FYQADDOX3755csvv9TpdOCq6RRJAxSXLMuSJCmVSg0GA0JIKpXSNA3/GxAQsHHjxoYNG9ra8o0bN6ZMmQJRY6DPkcvlgijvLDGJ53mgUqDhwMDAJUuWtGnTRiQSlY5Ju8zx3yeAqKioy5cvr127Njs7G/YQiPVOWWBBjBHYP0II5OyFCxcGBwd37drV7sZ5nr9+/fqxY8e2bNkC5l6MsUBvjg8eGfkvCYYIg8Hg6en5ySeftGvXrmbNmk7p5XXGf5kAnj59umTJkqioqIyMDJ7n5XJ5fn6+QqGgaRoZ7V1HwPO8SCQyGAwSiQT8IwwGw2effTZq1Cg/Pz+n0BjP8zExMdeuXZs9ezbQrVwu1+v1zuLQwlUHIQQ6Uy8vr/T09ODg4GbNms2bN++/7WP3HySAnJycx48fL1++/Pz58+XKlRP0HqDJ0el0MpnMWYYt4MdAA82bN2/ZsuWYMWNKTsv+1VdfnT59+smTJ47fXgCCowSIVQRBGN9hpFJpfn5+pUqVfvzxx7CwMIVC4ZROXyv8pwiAYZhff/11x44dT548AZkBIQRWJwjJFf7Xynuk8C5CCAQnYPmgXuR5Hppq3LjxmDFjunXrVgpeNzk5OSdPnrx06dKOHTvc3NyMfZBgqLaeDILCCm4XCCGgAdAXgdJJq9W2b9++R48eHTt2DA4OLpGJlRH+IwSQkZGxZMmSW7duxcfHg2uks0R8g8EglUoRQsARhfBFCH5v37790qVLAwICStn1EkzITZs2zc7ORghBADEY7ECUd6JjNs/zMpkMzMlKpbJ27do///zzf+aK/GYTgFarTU1N3bZt2/fff69QKIC7g+3T8XkJ9lqgKMEYbDAYqlWrVr9+/RkzZgQFBTljHvbj9u3bv//++8WLF589eya4URhbsh1sX5g+HAhisZhl2fz8/BkzZnTq1KlmzZpvulz0BhPATz/9dO7cuYsXL+bn58tkMuDKkEbBWWpyaA00p+ATodVqT58+Xa5cuddKEkhMTIyMjPzoo49ycnI8PT2FS63jiwtCIGiNAWBfAytHx44de/To0b9/f2dMomzwhhEAcLVLly598MEHWq0WNI+w70FGBxbllL4oigLXf/jPoKCgDz/8cPjw4U5pvITw9OnT999/PzExUdDJOgiwlLm5uXEcB3KXYEURpKwqVarMmTOnXbt2qODYfIPwJhFAVFTUxYsXt2zZ8vTp0/Lly+v1elAIAg0UlYHHahSsHIFRwdsMwxoM+mXLllWvXr158+ZvSqjh9u3bIyMjjxw5kpeXJ5fJC+ZDIGTPWgMjgK0PtwuWZeHLC64foFnetGlTjRo1KlWq5BR37tLBm0EAeXl5CxYsOH36dFZWlrGmpbBnJeTeKXZSPOZJiiR4TJIUw/EESfKIxCSBMY85TiYScQwjl6s+GDd20KABYWFhJTq7koBer3/58uXla5fHjRnrXa48QVIYERSBOZ5FBX5y4PYHd1wIQrBgYzaO4IEnwYBgbEbged7Pzy8iImLYsGEtW7Ys1Qnbi9eaADQaTUJCwrhx454+fQr+jLAATjhnRQTN0BJKTGsNEolMJJIwPMchniRJEUIhwUFtWrX68quvSpCTCZ+95GWGcePGPnsSExeXyHAGkYiCIAeQZEiSlEgkubm5crkcFFxOCUXgOM7Hx+fKlSscxymVytdZLnpNCSApKenixYu//vrr9evXhTh0ZJQmzUGwmBfLpLp8jbtSyRpoEpEkQaRnpH740Uf1Gzbs3qOHm7u7Q+0np2guXWJzcniWQwgRCCOMCQKRbu4Sb2+k0SC9ARMYy2VkaJg6KooTi/179SId69QCEhMT7966vWPXzvPnzysUCtjrED0shGWCicMp+gNgUrm5ud26devUqVOPHj0CAgIcb7Yk8DoSwJAhQ+Lj47Ozs/Py8hBCKpVKq9UihEDXDgzMQZAEhTEiSYLDnJiiGJZBHPc8Nk4wn9mBnPUbsk+cwDQj4nlkMPBaLTK6mQAPxAgRRh9cuLVgghCpVEQh2sY8h7y8Pfv1cR/hhMu3Xq9PT0+fOHHi3bt3wbjBMAxodVCB/cspV2fITwF3Bp7nQ0NDO3XqNGvWrNcwzfXrQgBarfb58+fnzp2bN2+et7c3SDtgmQeVtkQiyc/PB3Wk492JMIlozoC48hUC2rZr27tnz/bt2tvUApeWxiQmkkpV2rz5mvh4Mc8TYIV1+nEPC0QQcMvxmjBeWr8ewkhSswZprw4eHJb++usvsJ0ZDAZjUd5xgJMpKIvgvgF36MGDB3/44YcVKlR4fW7JrwUB/PbbbydPnjx16pRer5fJZAaDAa5lIJJCCQmIH7f1gBYuDMIdDn435OSrpPJfD+/zKV8+PCzMpoXP/+1/6vv3+YcP6fgEAoNsQ5T2RyQIedMmpFc5ZZfOirZt7Gvj1q1bd+/eXb9+fUpKCsSjmXXlEKIdrG/ZOJoUFg4hBIYanU734YcfNmjQoGvXrq/DgVCWBMDz/OPHj8eNG5ecnCykw3dWy6ggUxX8m2VZ8AMViUShoaFr1qytV6+uTS0ikkydPFl75dpreKGTNW3i//1Gu1+/e/fumDFjsrKyIDk7QgiMX6DtkclkGo1GIpEghED54/iACYLw9fWdOHHi2LFjHW/NoZGUCQG8ePHi0aNH48eP12g05cqVgyPYOHLPQQipR2AJhTOkZ8+eTZs2HT16tPVN6S5d5rKzdZcuaU6cRDxfCkobu+GzcIE4OFhar559rx84cODkyZN//vmnYEkEQUWIhwaPI2elxgDRiCTJQ4cOURRVp04dx5u1A6VNANeuXfv555+vXr2akpKCEBKLxRqNRqFQwO1TcEJ0EKDPFrIhZGdnL1mypHPnziEhITalQkjs3YfPzePVaseHVDogPTwkVar4b/revtcNBkN2dvZXX321f/9+mqa9vLxYlmUYRvAuEercOD5UIbiHZdmgoKC6detOnjzZjtA5B1FKBADuNLVr19bpdIL7LjgvyGQy2Pfgb+gUNRwwfpZlg4ODK1as+Ouvv9r0OpeenrVuneboMcdHUibACHm+N9Lr4yl2n1c5OTk//PDDmTNnoqKiQFUKwo/gHO4gSJIEuvpnwAV62Hr16n311VeVK1cutYTvJU4AWVlZ+/btu3fv3rZt23x9fYWKKeBpDF4MsF8tWyJtglqtbtas2bhx4xo0aGBrOjT1wUMZi75yfAxlDvcRwyUVK6r69La7BZ7nT5w4sXr16qioKOBWIAU5NxiNYRghTA8hxHFc/fr1P/roo44dO4J+tkRRsgQwY8aMM2fOZGVlgSpTyMlhbNAVEmIKxRId6VGv11esWPGnn34KCQmx1Uefz8uL79gZIYRKK81/KcBv7Rp5K4e8EjQazdOnT2fPnn3v3j0nekOB2zZo/MD+YOzJwnFc1apVW7ZsOWXKFKghW0JwPgFgjJ8+fXrhwoXJkyf7+vpar0Ezm/FG4DpCShzI5APCvfAYy7JKpXL06NETJkwoV66crWPmcnL4zKykwUNsffENAMbSWrXKf7eectjMHBMTs3z58nv37kHUkXBiQ45HY+5ma8tmlx5kBJIkBw0aNHXq1JCQkJIIuHMmAdA0feHChcjIyMWLF8vlcicaO2DmYFgBPiFcxTQajbe394cfftiqVSu7S8clDRzMvHjhrNG+dsCY8PML2r5V5O/veGPPnj3Lycnp16+fEIcJAaKCU7qzklaAawbGGBRQn376qZeX1/vvv+94y8ZwGgHs2bNn9erV8fHxQjiSs1Icg5gI+dsQQmAVpmma4ziVSrV+/fpOnTo50kVcsxbYGe4Vrzk4gqh087oTG9y2bduaNWuys7NlMplOp8MFGX/hQHBKFxRFgdO74Hwqk8lWrFjRp08fZ11FHCWAFy9eMAzTpUsXOARFIhEofFCBNcpBCH7OYFYUmp0wYYKPj8+HH37oUOMsmzZ9hu7CRcfH+UaA8PAI+vVnp5wDAJ1Od+rUqaioqNWrV4vFYrDfOyscmSAIqL+m1+shJxJQV25uboUKFSZOnNikSZPGjRs72ovdBBATE/P1119HR0c/ePBAJpMJToXGFc8dHBwqkA5B5gFDer9+/ebPnx8YGOj4CUM/fZo8dJjjg3yDwHt5Ba5cLnOquh1jnJCQsHPnzvXr14PfrrOkX+OMqJDYBu4eoDeXy+XDhg2bOHGiI7dkmwlAq9UmJSXNnTv30qVLIPkJAD4N/7BJoQmvGGuHhFsRBKErFIqgoKB69erNmzfPz8/P5lma7ZRmYlu0JF4DV6jSBIGQniSr3bhWEo3n5+cvXrz48uXLsbGxsPpmVSBW5vcVeB/knMQYy2QyhmHgF0g+CckKAgMD16xZU716dTvy+9pAADzPnz9/ftu2befOnSuq8pStkplANlCEQgg1Em69arW6UqVKq1atat68uRNTj7CJiUnvj8Y5Oc5q8A0CgRAKCa2w+XvK17ck2s/IyDhw4MD58+f37dvn6+sLsrGQQg+cHZ11REDCv7y8PIqiGjZsOHr06B49ethkPbCWAO7fv79w4cLbt2/DZd+JuTVBpoczDnINAN3r9fqAgIA///zTw8PD3amRIlivfzlpsuHePSe2+WYBI0LVravvkhK09xkMBoPBUKtWLRDiQSiQy+VarZaiKPBScbwXCDxQKpWCYrBBgwZhYWFff/21lS0UTwAY459//nnWrFngUgbnjnMNIkJUO0mSer3ey8urefPm06ZNq1vXFodNq0FHP4kfMULEv13Cjwlogqh09E+qfIkcAsa4evXqpk2bIiMjU1JSKIqC4x3Ueo43DtY0IaAZ+KlYLHZ3d1+5cqU1mYmLIQC9Xr9t27Zly5YJwr0Q/uyUpEu4IO8SeMLpdLrDhw+rVKoSdYqK7foOSk9/nf06SwMYU+EVg//YUwpdcRz34sWLhISEgQMHEgQhk8mcKAKB1yNon4SoThCnZ82aNWHCBMstWDJYsCz7ww8/LF++HJqG5FPgs+CUCQiXXYlEIpFI5s2bl5ub26ZNmxLd/dqzZ127HyGECIKLj9NdulQKXVEUVbly5fbt22dmZv7+++8VKlRwljeRSCQSiUT5+fnQIIQxCN4D33///Y8//mi5BUsnwLZt2+bMmSMWi8FTHxdkigWCK9baJxRpEzyohFT0kMAQfKEnTJhQs2bNXr16lY4DYPxHk/mrJaIDefNAkhUOHxL5O0erZhN+++23c+fOHT58GLYHiEbgHwr5hiELJWwSQc1YmGxMsgKzLAsiOuxYOBD2799vgaUWSQB//fXXhAkTYFj25RM3VoEB/QipWzHGUqm0RYsWy5cv9/f3d1ay72LBxsenTPiQS0srne5ef6j69vGZP69MutZqtU+fPj1x4sSSJUvc3d0FN2EhIZ+gOEIICa5ytvbC83z16tVPnDhR1ANFcvGff/4ZdirI6LZ2jAqKpsBlnyRJuVwOwdEBAQGDBg26fPnyzz//XKFChVLb/Qgh/bNnbHp6qXX3+gNrNGXVtUKhqFev3vTp07Ozs5s3bx4WFgaMHC6E4E2j0+nA4CVsJFshEokeP368YcOGIh8w++vdu3cvXrwIBxPQgB1+DXAREfzIk5KS2rRp069fvz59+vg7zxpvEwgeo7fM8mUZmhMn3d8bKS3rUki//fZbbm7uwYMHDx48ePr0aZC6QeRGCEGklF6vt6NlkNgzMjKKesA8AXh6eup0OlCvGmfHtgkgsYHfslqtTkpKEovFZZ0nDL/1l99XwBGIkEjKehQIIeTh4fHee+8NHjw4MTGxa9eumZmZnp6eEDAA1gO5XG6HHC4SidRq9b1798BcUPgB8yLQsGHDIE6XIAgoDGFrx/CiXC6PiIjYvXt3enq6l5eXSqV6nbPkvYWgMMpasqysR/EvZDJZ5cqVnz9/HhUV1a1bN7gJ6HQ6iMq3o0GO49zc3G7fvn3q1CmzD5g/ARITEwXnHCE9vE0dq9Xq33//vVKlShUqVCiFwkFWgkAu8nsVGGP8Ooa/BQcH//DDD8+ePYuJiRk/fjyoDe24LoKmUalUFiXCmN+aJjlo7WDbCoVixYoV3t7er8/uRwjpb94q6yG8diDlr2+JFx8fn2PHjoFC0774YJ1O5+npCZFlZh8oqd1JEMSDBw8CAgKWLFly5syZ/Pz8EurIJsga2xky9h+G19SPy3oIpsAYX758ec6cOVWqVPnf//4HfmL2BdnACdC+ffvOnTubfaAEVZAkSfr4+GzYsGHr1q3169fv2LHjRx99VHLdWQNsV4WI/zAwQbxuItDRo0ehBibHce7u7uAfCTEx9qkieZ6vWrVqUeKT+V+dEm+GMYYauizL3rx5MzIyctGiRUePHg0PD/f09CwT0Ygs3VqObwBIEr0GeWoh6vX69et9+vSRSCQURclkMogGlkqlWq1WKOFha8tgErYQJ2DeEhwSEuI4ARjnowUPIsjw7OPjM3ny5Pbt29eqVcvBLuzAy/ET9bdcN4F/IG8WUX7V14Qt2fKcjps3b54/f37Pnj3Pnj0DTSUYgxFCYA0QUk7YATAnvyg644F5ArA1mZT5pl9NyGwMjLFSqWzevHmZZMOLbdSklHt8bSEdOCBg9qyy6l2v17/77rsxMTGpqanA8tGr4YF2tElRFJwVJElCsq0///yzfv36RT1fgnKIBTmKIAioN9qnT58WLVokJSWpSzH/Ji0SubShCCFMkj7vDi39fnNzc69duzZ8+HBfX987d+5kZmaqVCrBz8fBKlhAOUAGEolk2bJl9SxmCy49P5zCACeL+Pj4+vXrd+nSJSIiYvDgwaXgJeE7c0bO0mVvOQ0QPC9v00ZcuvX/cnJyDh48ePjw4atXr2KMy5UrB/4OBoPBWRZSIeEuz/N16tQZNGiQ5ZZLUAQqFiDeQZw/GPz8/f27du26cuXKEu2Xy82N69KNdFLumjcUNElWLZnQeLPgeX7RokWHDh1KTU2FOttQkgOCV2QyGbgJO94RZBo1GAytW7e2JilyWRIAKohggMw/kAoP/r1gwYIaNWo0bNiwhNKj5h84mLF4yduWEuJfEET5dWsVLZqXdD86ne7p06dQ+QqSrUNCB6EWhLGTs+OKQQgJEIlEP/30U+PGja2pQOMcAjAR2qzMewEvooLQeFCYQkwn+BG1a9duyJAh1kR22oH4d7rz6RlvoXMogbEoIiLo++9KuqPff/997969UVFROTk5oMcUqlDCDjGuQ2NfgUqTncay7KBBg0aPHm1Z7n+lBbsJALYsQggi5eHOAXkvQHHrlMxwDMMEBwevWbOmTp06dmR9sYwnNWtLylQDWPogEGI9PUN/3ikqmbqlPM9rtdpHjx6NHj0azP/gkOysxPeo4NAQUovDYSKVSitVqvTuu++OGjXKptbsJAD8amV2CGxjWRYI3daaapbGRxAMwwB1/e9//wsICAgPD3eWEY2Ji0scPoLQ2eNo/oZC1KC+/4IFouAKJdH448ePT58+vXXr1piYmHLlyoGgD8UOnZUnEyEEpjEooEgQRF5e3uzZs5s2bdqiRQt73JbtIwChoAuwf2F6oIIFonRi4DPP8xAo5O3tHR4evmDBAudkTOF5RJLPW7am7Aq2eONA+vmFHD1SEi0/evRo1apVt2/fzszMRAjBvhcyiThl9yOEwDcZQn5JkkxPT585c+bYsWN9fX3tjiu0XwQClg/ZcD08PKCWtZAdUQiBdxDGSePEYrFOp4NP0Lx588WLF4eEhDgllD62azeUkel4O68zyMDAkMMHndumRqPJysoaMWIEmFohql2opwQ7RGDYjncHOwFj3LBhw9DQ0O++c8I1xk4CEKK9IF5+ypQpERERkyZNysrKEjJHOIsAQLKC7GLGKXh5nu/atWuDBg1Gjx5tU+m7wuCyszNXrso7frwszSIlBoyQsmNHnwXzSefV5U1PT9+zZ8+dO3cOHjyoUChAUlUqlWq1GkK3gAwoitLpdO7u7o5r+kmSzMnJ6dGjx8CBA9u0aWNHGRSzsJMAgLJ5nqdpWqFQfPfdd6CruXnz5ty5c588eeKsKgmw402yX0C4vVA629vbe+DAgdOmTXOo8DLGXHZ2XJdu5H9LL8QRRMCqrxXt2jqxzRkzZhw6dIhhGAhdh50NjscqlQougUL2WMjq7GAiKZFIRBBEZGSkQuHk6AU7neFM1E8//vijsb91cnLy/v37v/nmG7gJCGmf4XJs7Opk9ylhPAAIv5TJZO+++26/fv2aNm1qX5sIIf2du5lr1xmiokiM3+zkWRhjkpTVruU9f76kUkXH22MY5saNG2lpaVOmTBEUgMhoIWzy4YHzQagkYCw2gxcDSPkajcbPz2/AgAGDBg0qIddJ+0UgIZsnSZKbN28uXKbl/v37V69e/frrr3NycqBiEnACoAGSJHU6nVNEQzAnAy1xHDdp0qQmTZq0b9/evsb53FzNteuZX69CmZlvKg1gTCgUvitXyOrWIZ2hOz527Nj+/fuPHz8OGXscV/EBnYAmB2w+kDxBOCjUajXsq4YNGzoxk1xhOGoIAxr48ccfLdQp2r1r19fLlukMtB7zHMcRBVVepFKpU1IEg0JWo9F4eXlB8gxIJbBs2bIBAwYIydZtxcuPpxqi7uO8PMdHWJogxGJZmzZ+K5c73lRubu6ZM2eWL1/+8uVL0Lg7Ky+ykAIISquggi1BkmR+fn67du2mTp3aqlWrUkih4AQ7AEVRW7du7dChQ1EPH5w6NSwuMZcnz+rzbmdkXMnM4DBWEARyXsVZ4QA1LrHBcVz58uUnTJjQsGHDJk3scYFmEhK0p07nbNqEDTRBEK/15QBjQqHw/HCiJCxU3tKhuqgIoYSEhLi4uKFDh4Lmzc3NzTis1ilGHo7jBPOwwWAAH562bduCNsXx9q2E/QQgWLsoitqyZUvHjh2LevjQ2A9qPXgoYVieIlk395sS0S1N/v6XqWqdTuyMelIgAgkZJMGzXKPRwM2J5/mgoKAKFSps3brV09PTjva5zEz9jRtJK1dJc3NfPxrACCPs6em/aKGkZg3KYd1IdHT08uXLHzx4kJ2dDZn8wGFBKpXqdDr7kvMUBUhuDhUDpkyZ8v7773t4eDj9mmsZdur9QAspaACK+SgiESIQwjzmsCgzo5NI9I5C3jc0/G+F9Gq++nlCgoGmiQKKwgWVkZDVPkVwIYOlApkSY6xQKISEpImJiS9fvqxRo0aLFi2mTp1aq1Ytb29vGybr7a3s1q1qt25MXHzaJ5+Q7h6GqCjrXy8pEARVrpwoJETVtYvboIEONqbT6VJTUydOnBgZGUmSJEjnwmVXJBIJZl0r5UljE5jJ5Vg4okUiUa1atXx9fTdt2uTEihM2wU4CEOo0gS3MMhcnDTTJI1D3YIrKw5hUayqptR+xbr0VyuiWbVY+jNTl5uVrNCKKFEgL2IP1TnXCVzahSSGfjEwmu3r16o0bN2rVrDVowKAhw4bYqjYVh4YE7fsDIZS/53eqfPn0WbMww0L3pXFdLuiFoCh561aKLl2k1ao67tBvMBjWrl2bnp7++++/w8UUGYWVCCwJVHY23aYE/ghyMrwOhh2DwRAUFLRixYomTZrYdyw7C/ZfguE+pFKpsrKyfvjhh379+hX15NH3R9d8HE0wNDbZJRhhniOlErGn703E7WTp2y9iwMMCBEQ4HG2flBmApQZWVyqVGjR0xfCKzVu3mD3nc/t97DgOY0yIRPFd32GysylnuLMXCYzJ0BBJeT//Td8jjkMEgRw2s/A8v3r16l9++SU/Px9M7CDkOMuPCxXcFiCfPrQvEonKly//3XffNWvWzJGR//3332vWrAG1qbe399dffx0YGGhHU3YSAHACMIQplcrc3Ny//vqLoqh69eoVZhKHPxhf6/4DEW3gzbNJzHO8TCT2cHe/IZNe8PLYHxmZolEjvUEuk4Hly46JvdIBxmCWB89bjDFBikiRmGfZ/LzsTz/5dOCAAeGVKjpoTkYI5f++V//wITYYCISY2DguI4PNycGYRxgRkJHF+GMTCCGiIFNLwRxJUqRUioKDxcEVEMvxWo333DlOrOwLuHjx4rFjx3bt2iU45QshGU4R8XFBYVMo9Av3MYzxzJkz+/XrFxwcbF+zHMc9efLk2rVrM2bMYFnWx8cHMsaBDnDbtm29evWytU37s0IITvzgAKfVav39/SMiIkaPHt2iRQvjJw9/MK7W/Qcimi6CAP4FRZJYpXpc3ieWFP0SH3fn2VMPqZR0Rn4KUIwKgdJYRHIkgWheShKY45VSWUREs47dOg8fOdLBvgTwublcbi6Xk4M5HiEsbHHjyWDh/zHGQBAkKfJwp8qVIz08nDWSf4fE89evXTt77tz69etBBIedCimQQRPvlI5APQiV8PR6vZub24QJEzp27OhIAgSwRVy5ciUjIwPsBuAjAwFVUqk0Ly8vNTXV1mbtJADhwxmH9sCfeJ6vUaPGokWLatWqBZ5qh0eNrv04mrKCABBCGCEpxhKJJKtm7b/yco/ExcRkZvIYO+hZBMMDWz3GmENYT+vc5Cq9RqeUy/UMz2FOJBZzCJ86/ndIhWCpVPJaJXV0EDRNHz91auaMGercXJphVCoVpJqC89BYoecUDy64GfI87+/vP23atOHDh9vXDsZYr9dzHFe/fn2oTSocUGAqpmlaLpfrdDqol9q1a9eNGzfa1IWdl2Bg/0DicHQKabAQQtHR0YMHD/b19V2/fn2Dhg1F/8iCGFmRm5ZAiEbIoNe737s7TKF4J7zyTe/yF3j20suUzNxcsZHhHVZLMKMIJcXNWuPBN0mlUhXIVFgmkjA0LZVJDSyLCCSRSrV6rUKuatykaY1q1UYMH9apU6eaZZ0433EkJSWdPHly9YYNiSlJSkqECEJWIFgKmgMhrsMaDy74wiA1QTwX3GvhtgaNaDSaBQsWeHh4jB492m4JNjY29uTJk/v37z9//nz58uVhzKChgmMcegeHfKYAtvZSgomxoOZpldq1u+flDSUpysBwNjWJMYEQyWMkEWNPz5cy6TKN+nFqql6r1ajVKjc3kiB0Oh2Qn0Qi0Wg0QhVOx9kYxtjLy6t169bTp08PK93UCc6CVqsdNGhQTk5OWlqaVqslSJJyxpnGMAxIIJBxTa/Xg6EASCI3N7dJkyaHDh0SiUR2KzC0Wu2MGTPu3r0bGxtrubA2eJvCeCiK6tix49atW23qq8Qzw7Ek+a5SPtnNU2RgONKeNgmEOJ7nMV+pTr3H+bk/icTXoh8m6g35Wq1MLAaWA0WYEUI0TQNjc3DwCCG43pAkWbt27fXr1/v6+pZOGT8HkZOTExMTs27dugMHDri7u4OkChGqTkm7AOn9lEol2IahfYRQzZo1a9So8dlnn4WEhNjXMk3TCQkJW7du/e233wwGAwQNC1cUs0yN53nwwZZIJFlZWZcuXbLVZ64ECQCkFD3DvOPrM0sskbG8NXeAokAgxLGsWCxWBAQ+5phEf//zUZF7c3KQXi8zismEWjqOK0/h3gzWNI7jDAZDhw4d3nnnna5du5ZVfSdrsHbt2nPnzt24cQP81eFHEGyg8JbjXUAQCHwcvV6fmZlZpUqVzZs316xZ024GkZ+f/+eff167dm337t3gHwE+QiDSQHJcs054IpEoLy/Py8srLS1tzpw5M2fOtLXrEiSAf8KFCaKtTL7AzV3upDTEmOcpkkSUSEeRmTWq7YiLO/LsmUwkYhlGKpXm5uaWK1dOq9U6OH6MMVj6DAaDp6dnfn4+ZLPx8fFp1aqVrTetkoZer9+xY8euXbuSk5MF8y3EoAAvAPbvlHqEQklTvV4fHBx89uxZcPW1u8Fvvvlm+/btGo0GbuQsy6pUKo1GA86hxhcVs3sVgqWGDBmyaNEime3Jj0uQAECE4Eiyl0r5iVyl4B06AYxBABkQhEQk4n1877m7HU5JvpadlZqbizGmSNIpyU4EazT4AIPCAfIYazSaDRs2VKtWrXbt2nZ8dGeBYZinT58ePHjw66+/lslkEIUHt1vwLQPRHNISCzZdB6HRaLy9vbt16zZo0KBWrVrZ1wjP89HR0dnZ2YMGDQLPUAglB2OloFfEBdq/wpEGcER7enq2bdu2U6dOAwfa6QxiPwEIgQuCJzewfONJUhSl1uv7+fp9Ipe5sRznbH8BjJCYIAhEkMEVnlLkOQJdTEl5mpRkYFmKJHFBxXDgIkLJbuO8GpYh6JSEwDRBUchxHHgv9uvXr0ePHs6dlzU4e/bsr7/+eu7cOZCABU99QUVjvHWsDFURwjzAdgu2Ao1GA7nWCILIzMy8cuWKVCqtVq2a3RetGzdubNy48e7duy9fvpQUlOgT9qGQHso4BhA0nkLAsV6vZxjm+++/j4iICAwMdCR7mv0EAGYIrVarUqmCgoJ4nn/58qXBYAAyIAgCHP1Ecll7iWyGSuVeAgTwzxwQ4mmaY9lyAQE6D/cDLHMsO/vpy5f5Oh0oiSHzHmjr4LNa79RlGdBgcHDwwoULmzdv7vTMRSYARXhycnLr1q1B8y1UjnBW8gWQlIRcTyA1kSTp6+s7aNCgGTNm2N0yVMaeMGFCenp64dsI3Bjh7ILTAJ4BIlSr1e7u7iAX1axZc+DAgePGjXOKL72dBACCmlqthivL1q1bu3Tpsm3btuTk5K1btwKxgg+txmDo4en5mbIECQAhhAiCJAisNyCScPfyzPTxvimiDj19dik7m2NZkiB4joPtIviZOqVbSOcITsJKpXL9+vWVK1cuocSSDx8+vHDhwq5dux48eODp6QmpYgSTlrMS7xhr1imKys7OBv/Zrl272u21plarjx8/vmHDhri4OK1WC1lBTZ4RBAohDwjQIZxFEE7YtWvXPn36dO/e3XGnFQH2+wLp9Xo4GUUi0datWyEegGEYtVo9efLkU6dOKRQKmqYJiaS9WDzLw8uNZUuQAIyBEUkgSipL4rnU2jV/jI6+n5jIYowLLlKCI5PjXQmnMwgPYrHY39+/cePGU6ZMqVq1quPtA3ieHz16dHR0NOjFEUJwIQE5GKR8uJs62BGwW8iurNVqe/TosXbtWjc3N7t9lZOSktasWXPt2rWYmBipVAqWeI1GY5YGBId2KIkHZxHLstnZ2cOGDZsyZUpoaKhDeQ/Mwf6AGCigTRCETCbbuHGjSRGy+Pj45cuXP3/+/OrNmwOCgj6TyUv2BDAHCiGSYXJ9/Y4H+h9PTrz/9CkkHnVWXB8qYJlwdQMNBuxCkiQrVqx47NgxnuftviVrtdqkpKTly5fv3bvX29tbq9W6ubn9n73rDqyqyN4z977e0ntIgTQIRXoTpIOCgCIqoCL28lOsq7i61lVXV1fFim1VRFERFBFp0pv0EkoKSSAJqS+vl9vm98fhzV4SSvoL5H5/aEhemXvvzJwz53znO5D7g5gmWFqdTgfV1c0P8wP1IDU1tX///u+8806To0bgpt9///2rV68G9TQIE9FQbP1KDzh4gPiNSqXyeDwqlSo1NTUrK+ujjz5qkfjVOdH0BYAQoqfDzz///Jw1wbW1taWnT795/fV/M4dYxLZeAAghDSIujDfHxqc+eJ9Xkj777LOtW7cajcYLH4IbWIgDoKfqOiIXoih6vd4777wzJSXl1ltvbVSMvLa2ds2aNWvWrIGUKixXes/lZQ+Uo9/kliq0iLSmpmbAgAF33XXXoEGDUlNTm/BRCCFRFBctWnTq1Kl///vfer0eliUNxaLzlDrRbBdYtoqKin79+s2ZM2fEiBFNpo42EE1cWJIkGQwGYB9otdrz3fqwsLCwsLCJE67G27Y1Y5BNB0EMSwhy2FiEhg8fPnHixIMHD9522201NTUQz4EJBHOIBlLAu2vghorPIwDIsqzJZPr+++9Zlv3yyy+vv/76efPmNeQD33zzzR9//BGIjWA95HOFVpnQ9SCvoZMD5MkgmEtDjSjgacBOTPlkPM+XlpbCKm3yAemHH3545plnIHsFH0WZdrTput/v12g0lJoOPiSYUDBofr9/06ZNF2hq1LJo4gKADBxspSCKeAFotPpgldJijBBB3poqo9lsNpsJIT179ty/f39xcfH69eufffZZjuMsFovH49FoNFTJlUbQmz8AWBilpaUffPDBF198ceWVV86cOTMkJMRkMoWHh0OQ0ePx2Gy26OjouXPnbt261WAwtIjFh4MsE5AopGqycHCHqRYZGTl8+PAZM2Y0OaKPENq3b58kSdOnT3e73XCT6y8hWHtypWhwR8+UZ2DMsuxTTz3Vv3//fv36NeuyG4mmWwAaKAB24QVeHGHUs5ghqDULps4DghDBiNVqgD9IH0xycvLtt98+dOjQ06dPz5kzB1JFkG+nya8WGQDUaoSEhEB4YO3atatXr9ZqtaGhoZGRkQzD1NbW+nw+l8sFESoQVW6Rr4ZNF0wchImgJkuj0YDD89VXX11xxRWJiYk0GN9YwMJetmwZcPQhJKXX6+sIIYKNgtopIG7ROwzx6Llz506cODEoXUObuABIQBJLFEWe5+12+wVeLLGsNnjcegkhHy/4PG7K1qZIT09PT08vKCj49ddfX3/99YqKCticQOCypTr2QNwDdgpaJ1VVVWW1WulthB0EYsdwnm7+V8MCgB0XSto9Ho/BYIiNjb377rsbq6Mvh8fjOXTo0GOPPVZaWgqxS6PRCDlytVrtdDppy0cAOD8IIVjkQCVSq9VJSUnTp0+/4447GhXWBMmPTZs2/f3vfz99+jTLsv37958/f37TTgtNd4HAmYN47WOPPWYymaKjo89pvxwFJwghDSsHaGFghKDKikjkAn7F5MmTJ0+e/Omnn9pstvfee6+llH2RTEAJ/gksYhRwCSDtCs3QYZPGAWnl5n81ON9er5dlWSjZmzJlyogRI2bMmNFkL9/r9RYWFs6aNaukpASIISARC5uLKIqQD4EqLfkbaetShmFcLtesWbO6d+9+xx13NOrbRVHMy8s7ePDgww8/DBRXnU7HMMzOnTsHDhz47rvvTp8+vbFX1PQ8AJwgaZ6CEGI0GrOzs99+++06a3H53XdnH85R+RtUEdayUGPsk8iK2poe8+ePnHRxwoIgCA6H46WXXlq0aFGLZFvoCY9GSOUkBRQgjNBTYIuQdqjuiCAIFoulsLDwgQceuOuuu5KTk5usuuPz+R566KHS0tJDhw4hWQtr6ghAUOF8NWVg5fx+/4QJE1555ZXo6OjGRoc3btw4f/78I0eOeL1eShmC22swGLxeL8b41KlTjb2uFmuSB5kBURRdLlfv3r2fffbZrl27RkdHI4R+vfPO7jlHVX5eanM/SI2xD5FVXudVL/4z+4ZpDX9jRUXFq6++mpeXt3//fnmOqQV36OZAXo8K4RQUiEqDYg1kBpKSkiIjI5csWdLkLd/tdtfW1n722Wfz58+nfLtzvpISTOgyoDV6Pp+vW7duUVFRb731VmJi45rT2O12URQHDhwIhNwL3Ae1Wn311Ve///77jfr8Fssv0MIUi8WSl5c3c+bMtLS0G2+88YEHHmAJIRghHAQfCAoxRZEQoXGH2piYmHfffdflchUWFt50000OhwMhRBkHcLEtkntqGui2RTmIQBaApEFlZeWgQYNmz549atSouGb0Avv88883b968adMmr9drMpmYgHJZneUEhEg5dQd+TwuO165dGxkZ2dg6itra2k8//XTXrl3r1q0zGo11zhUAWGzwLHiev2hAsj5aMsFG1R7BIywuLn7jjTe+XLToel7ozgan9QQmiDCYZZlTGHdv/NtNJlOPHj0OHDiwd+/e559//vDhw3BCPUNzcrvP+VTaAKCDwHEcTDK9Xu92uy0Wi8/n8/v9u3btyszMbPKHE0K2bt36yCOPVFRUgK0DTqHRaKxfmIIxdjqdBoOBajQghKBcxmg0/utf/5owYUJj7Y/H4/nb3/62bt06p9OpUqksFsv5bjLQLsEJ12g0TQgft5gLREUkaY8wSH/wGM82GB8MDUd+v9SkksjmQI2xD6HVLvcij+NvH3zYtWvX5OTkJvMgDh48+OOPPy5evBgeDJx8WnbADQTN+0KQB7qw3H///UOHDm1Oe4Rjx45t27btueee4zjObDbD05SfWOpfL1AYqHQuhHduueWW8ePHjxgxolHfTgjZs2fP0qVLv/32WzhhQryIMrjqfzt4gFCr5Ha7169f39jmcS22AMAWQ3YDUqpQlVfr8dwdGvaAJTRYC8AvodVOzyLRW65iNRrN4MGD77333uZkWw4dOuR2u6dPn075CG0P6vva7Xaj0fj444+PHj26R48eTf7A06dPv/baa+vXr7darSAyQB8iuNfgachZGBRyMsgbb7yRnp7es2fPRh2TPB7P77//vn379oULF6rVasrBhoQx/Befq+scDjTa8Pl8991330svvdTYC2/JQzBCCPKLtAsGz/OiSnWbVvtgWGRQFoAKIZ6QXW7fB17XCSJCNIYQEhERsWnTJq1WC1mhpn34ggULFixYYLVaW0S+rlGAOZeYmDh37typU6c22aYJglBeXj569Gi73W4ymWgFGZ1wsK9RjjSEfepQM1iWDQkJmTFjxlNPPdWEMXzyyScvvPAC5AeAl+F0OmkDUjhawDKov6hIoHvizTffPG/evCYE7preIYYWYVAaDKXE0DapGGOfJN2o1z8aHsn6zyeN2IpgJcmP8QGf70Ovu+Ds8KLD4RgyZMi0adOuvfbaqKiopn2+w+FYu3bt0aNH3377bSiNhWMihPlhU6xzcGyI14QD+r6wF9IqLaoAdcMNN3Tq1Omhhx5q2rARQsXFxVu2bFm+fPnvv/8eEREBMVNUjwhEeflUkAdSQJD+t9lsd911V5cuXW655ZaQRkrZ7du3z26333LLLRC2klObKL0Kwp3062jRDDjbPM+HhoZef/31gwYNaoIoIqCJCwAyAJD3piOjeRxKw0II+QmZqdM/HBHBBCMPwIqiT8X+6XN/7fGWSv9bAHTFqlSq2NjYiRMn3nvvvRC0bQJANmLOnDlbt26lHgL8QPkItFCuIY4TmBS4t1RyB2bhuHHjXnvttbCwsObUAc6aNSs3N9dqtUI1D9XurB/XgicL2xkQRmB2+v3+kJCQvXv3ggveqG8/evTo448/XlRU5Pf7Ycs/pwoyDaRSyhBwKPx+P0LI6/W+9dZb06ZNayZ1qumJMNif/H6/VqsdOnSoSqVau3YtDBfJTml+Qm7RGx4Kj8DBsAAqSfIy7DJ7zWJRqJI5kPRcBVsadIKYPHnyv/71L5PJ1Jz6j08++WTTpk35+fkIIfrk6AeShmk8wl4Lc85kMtnt9t69e0dFRb399ttNNlZer7eoqGjlypUvvvhiSEiITqdzuVxA6IJaW7gVdeYDVD5BeQqQKZKSknr27PnII480Vjavqqrq6NGjzz///KFDh8xmM2Wkn/NcgRCiSWUoeQO3guf5a6+9NjMz8957722R4phmtUiivNzvvvtuyJAhK1asyM/Ph+aQNGMSXAugkiQvy/zqdSx0+631PFc6F8Gwut1ujUYzc+bMAQMGjB8/vskqN1arddeuXR988MGePXvAVFKzThom2kUTqx6PJy0tbdGiRSEhIZGRkU0bjyRJy5cvX7169fLlyyFiSNk41MuH2QbVNvL3gh8C5N/o6OhXX3114MCBCQkJjRqA3+//6quvFi9enJ+fT0kTQIoGL/GcMgVMQLARBfTORo4cOXPmzGuuuaYFE5FNPwSDnwPLYOHChYMHD0YBszV37tylS5dSCzBTZ3g4IoIJkgVwscxSt/0nH18t23ppq1bY1ahlB8YiKD489dRTtzZDLJrneYfDsWDBglWrVuXl5UGhEwkIm174vTBHhw0bBjLOzalf27hx49///vfi4mIaTgGxAjhxokD2BiEErmyduQWLNiQkZMWKFbGxsY2NGZSXl7/xxhurVq1yOBy0cTx4DWDi4J/njLFCbAeOBxMnTnz66acTEhJavDSsuSWRMPTvv/++jiR6dXX1Rx99dOjQobWbNt0eEvpweHAWgFqSnCrVb7x/sc1WKZt88BTBkYPtkD578FJAbFSn0y1dulStVnfv3r05cR6O4z7++OPy8nKVSnXs2LH9+/dDqwjqcIeEhFxxxRV9+/YtKytTqVRPPvlkWFhYk79OFMVTp06dPHnyuuuuYxgG+D9AXJOH1WkxEOwFEHenBH2fzxcSEjJkyJApU6ZMnTq1UQOQJGn//v2ff/75Dz/8oFaraQ2nPDoCuzuETEgAjEzkj2GYLl26DB8+/Mknn2w9uY2mWwDqBbEs+9///nfYsGH1X+N0Oh0u1+tDhj4eE8ect0FGK0IlST7M/mar/UHgyhhMoyvQ/NBgMDAMA0qX9QmM8DzcbndcXNzw4cPvueeexiZZzgmHw1FUVATOBjUIISEhnTp1ahGndtu2bQsXLty1a9epU6fqJ6pphIqKQtNwJ4h+AvGppqbm22+/TUtLS09Pb+wZ9/333y8qKvrxxx/BokKS+Jz3FmMMJAugSYMjqlara2pqunbt+uKLL2ZlZbXTkkgAObuzXX2YzWaz2Txu1GgxJyco9DGCEGKI3qCO04eJDC4tLaXKfqCSIkmSyWQCc1z3vYTA9ulwOFauXPnLL79kZmb+85//7NGjR3M6GVoslhZZSHLAVGMYJjs72+VygbhIfeUFKaAURrW9gEEECjcIIb1en5CQkJaW9uWXXzZqAHCQXbZs2T333AO1ARBhM5lM4GHWGQnVUwOBUTiRQ9QrPDx80aJFzclnNwrnXgD1CU91QI90FBf6EnVwiEAAgpAgSHc+8fg1N930zTff/PLLL9u3b6faEEygZ0x90Jg06OOyLJuXl3fddddFRUV98cUXWVlZLS7R0TTU1NT89ttvv//+O0T0DQbDOeccCpz1qXQcBBbVarXb7RYEYezYscOGDZs9e3ZjjxybNm3avHnz4sWLCwsLo6OjQYkMvh3MrLzHMAAOkMAsgkoalUr18ssvJyQkDBo0qPU0IOqjWd8ELhAj63B/TjQk9dNKIAgxGDMMtlZXE0JuvfXWKVOmnD59+oMPPli4cCGkG+FJAKlG/l61Wg2JDpgoMFcIIVar9ZprrunRo0evXr0ee+yxxoZEWhA2m+3tt99ev359UVERxthkMqlUKqfTGRoa6vF4zhkqAReIpiZg9g8ePPg///lPTExMY5e01Wp95JFHtm/fDtt5REQE3E/IUqlUKogx1O8uTAKVOsAbmD179gMPPBAU2e1mZBACQdyLW4DggUAlGiIGvR4GbLFYLBbLe++999Zbb02fPr26urqoqIh2OpO/FxKQUN4KywPCF5CUPX78eH5+/hdffHH77bfPmzfPbDa3oFzZhSFJUm1t7ccffzx//nwYDxwuzWazy+UymUy1tbUGg6H+Q6E2DQI+kZGRCQkJS5YsaWxtSlVV1eHDhx9//PHCwsLQ0FAc0JykwWWGYYBYAZ59/Q4XYIIGDBgwcuTIOXPmtHFzbDmaXhNMz+wXpQQLAo8QCQprjGUYESPCMKp6Zl2tVi9btqy0tHT37t1PP/20zWYD15mWZdHnCkEJYLqDlaBlKOHh4T/++ONPP/00adKkfv363Xnnna16OR6PZ/369bm5ua+99hqESmmmGfZU8F6gyJ1GVGCnByOGEHK5XKmpqXfdddcVV1zRWFfb7/d//PHHP/zwQ0FBgVqtBqIyxPLpMGCZgSMEcUxKsoDbqFarx48fP3HixHHjxjW5Hr+l0HQLQAv5fD7fhU0nVmvUbV8OHPhyRDCDGbfLdc6DTUJCQkJCwrXXXrt169b/+7//q6qqgnwQ7FhgwaFfg9zQUbIKeLcajWbVqlVLly5duHDh/ffff+ONN7bGlXz77bf//ve/q6urDQYDZEblVwR+M5xnqAYJZbbBOKGh0Lp163r27HnRY14dCIIwderUwsJCj8cDEVX4vTzHR19MK4dA98VsNsPANBpN586df/3116Zx9+tg+/bt27ZtYxhmzpw5TdYtbaI4LiTG4RaLojhp0qSbbrqpV69e9cchieLejz6K/n4x9njbXhlOjRFH8DaETI8+POWWWy78YkJIbm7uihUr/v3vf0NpFSSMYBqd84bggC4VTfFATdzcuXOHDx/eHH4yxYkTJw4fPvzUU09VV1cDgwB6tNQ5sYApoNqDMCOpyjnDMCNGjBgxYkRjxSBsNlt+fv6yZcvmz59P6W4N4TJBqothGJ1OZ7VaBwwYkJaW9vDDD6elpTVqAHVQU1NTXFz8r3/9a9euXbW1tSAm4HA49Hr9xo0b9Xp9Y4nMTcwD0EwqOHlwnO/Tp8+kSZNuu+22OpHjU19+6V3wqd7PBWMBYJ9EVtqqs/7znzFTpjbwXbt27Vq2bNmiRYsgAw9sLfA3zvl6IpP2ho1NEASDwTBz5sy77767sVWwFMXFxR988MH69esrKyvhzGoymZxOJyh51T/jgqsDdkmlUsGBmBDy4IMP3njjjampqY319f/1r3/t2bNn7969sLDBXTknL78OaHwJIWS32/ft26fX66Ojo5tJGv/b3/52/PjxPXv2oMApgqYvMca1tbX9+/d/++23G7XvND0TDAdHCGNRVUd48DNmzHjmmWdQYKso/eQT19cL9R6P1Oa15GqMOUJWC96sV9+4auI1jX37ggULPv/884qKCp1O53A46scWIXvq8/kIISAQIhfrlCTJ5/Olp6f/5z//6du3L4RfLvyNhBCfz1dQUDBv3rw9e/YATwb+pNPpnE4n0CHrjwQHJN/glRzHJSYmTps27f/+7/8aNe8lSfJ6vcePH584cSLN0cIPZxo+qFQXvQo4cqSkpDTfIYTYw/fff/+3v/0NutwCdY+e0OA+I4QMBoPNZjMajQcPHmx45rhZZDiaSqRpbWC8wKDffvvtLmlpAwcMcGxYX/r4kyYJi8FQhfAT8p29dpHDveiP31kV261798ZSqd57772SkpIffvihvgAtDlQkgUmkaj8oUMMB1XpA6vzwww/tdnt6enrv3r3rf0tFRcXGjRs5jnvzzTetVivQMeiNlbORqQaE/O2U4kEIiYuLmzx58jPPPNPYHXfnzp07dux45513rFZrWFgYjRpR5bz6Ac06gA6F995777Bhw0aNGtWob6+PVatWQWK7trY2NDQU7gYUHsI9h2M3bAo0RHHVVVctXLiwgV9x3jMApCrg2AR721lvO7sfNaWFyo9WMMSsHj2emzo1+qMFKp6X2vwkrMaYk6TvXc7FPs7FC6ExoVGdOr30wkv9+zauJJLjOKfTOWHChLKyMpjl8hYmYADhaEjnh3xGYlmHJYvFMnToUJvNJucAm0ym3NzcEydOoABVm8iqYEmAuU0fBExKKEKnU8HhcAwbNuyZZ55JTU1tbG3DmjVrPv3008OHDzudTnkNLo3w0I7ocDfAvaHxMToB3n///V69esXHxzfzjJuXl/f8889v374dJj29D/LZJZ+6RMZuwhh/8MEH11zTIIN/7lF269YtNzcXNnKgrdYnCcp3F3l4hP4Shr5n9+6lHs9sUTAHRRouAIKwpGVPV1fXuh3jx43plt393f+827lz5wZyzjQaTURExK5du44fP/7OO+8cPnz42LFjRqMRDDGo2sMykCsIyX/AgYaNQKw457fQaYTOfsA4UP8OdE4ia0SAMfb7/Z06dYqOjl68eHFjSWN2u10QhJ49e4J/T+nH9NthW2UYBtY2rEyz2ezxeKD4G96VkZGRnZ3dWE2e+rBarceOHZs2bZoYaPxc/z4A6nuAMCdhg7iwVqcc514A995779y5cxFCtHdfExjYsCh5UWSrrUjFtkyT1MaDwYgjxCdKohpr1Tre6wsxmkoKi2+++ebk5ORrrrnmgQceaLiXnJmZ+dFHH1VUVBQVFd18880wAyi1uE6ctKUugVoPSlyDqeDxeAgh69atE0WxsfyigoKCH374YevWrVu3boXg0vmOKNTroBVt4OdASeR99903dOjQwYMHx8TENOca9+/fv379+u+//764uPic/WMaCLiE6urqBr7+3AsgLCwMwghut1sK9Ktp7FAg/KzRaASBQ6o2ypKeC5gnhNGwPpEjXi5Ea2Cw2sf5XC5Xfn7+/Pnzv/zyywkTJjzxxBMNf4QxMTExMTFHjhxZs2bNyy+/XFpaCiwJ6gK1bGqcCXSdoUEP4G689dZbM2fObMIHjh07trS01G63azQas9kMtHCwZnVcF+pkMwwDDFY42Ljd7oSEhIKCgosSYRqC/v37+/3+yspKs9lMD1RNDhlhjO12ewMTHefe10eMGHH99deDzC9CqGkdxulRHWOmmfGv5gEjJBEkYkk0GY1+QXL6OEaj02rP9J5wuVyLFi3q3bv3HXfccfDgwYbPXb1eP3ny5F27dn399ddTpkyBsqkWLFaiIIHeiT6fj+O4e++99/vvvy8oKGjU7Pf5fFu2bHnnnXf0ev3x48eh/A2eLBy45ektCnABOI4Dgp0kSSkpKTfffDOIRoJcStMuymazrVu37tFHHzWZTBUVFXa7HXwqoBI1pwZIkiQo82/Ii89rqWtra3v27AmsWgh+NWEcLMt6BOGuqMhb1FqTIAZFHFcg5FNH7RJBsIuCWqUW/bzKYBZ5jvd5jEYDTCwabJEk6cEHH+zUqdOMGTMa9WglSdq3bx/oHsPKp8mB5l8FOP0sy06aNOn2228fOHBgo94uiuJXX321cePGNWvWwP5K4ydY1t5GXoJIzpZm0Ov1lZWViYmJr7/+es+ePVNSUpp5RW+++ebmzZsPHjwoBhpCUpFgmGmNFWClURkY8L/+9a9Zs2Y15I3nndZhYWG7d+8eOXIkaNvTL2h4Cv0MO4ph3KKk0gTRAiBCCEaIISpERJWGYIEjhGi1GrD78utiWfbjjz8mhDz11FNvvPHGrFmzaFz/wmAYpm/fvgihkpKSp556avXq1R6Px+Fw0JQtRI3o0wXbyAYad8N0lPN25MS15OTkkSNHPvfcc42tTRFFccOGDXfddRewOei2SkNJ8hgixHZgscE2DB4dxrhTp07r169vZm0KIcTv969cufLxxx8nshbwKLDeaLkC/f1FQbkeoBENsTiWZa1WawNHdZGz2vHjx6+//nqv10vpfqAE0fDdkZOkGyyWR80WFccHzwLYFns9otbE8S6WkTg/1ukNknghuVw46kVERNx5551XXnllY0ljNTU1v//+e21t7euvv44CRB16fq3DncSBfkHwLGE2QH/266+/vkuXLnPmzGkUUVkUxSNHjjgcjokTJ2KMIyIiQF6lvhknATkziPHTlsMQ9wSbM2zYsBkzZjTq8utAEIT9+/fn5OQ89thjDMNAn5jmnxwAMFRQSIdjekJCwrYG96S7eLCiurp64sSJ0OcVvEa57M9FwUnSrRbLvWazmhOCtgDstT/4fR6kVqklInEM1vO8eNH7T+1pWFhYjx493nnnncZKkkiSVFZWdurUqdtvvx3i9JBakWQC4rR4CiItgiC43e7o6Oi33nqrV69esbGxjeUvrFu37v333z9x4kRNTQ0wmkA+kWbQ6lwjSDPQTocQDiovL//oo4/GjRsXHh7e5DavgGXLln399ddHjx61Wq0WiwViqQ3hUzQEIBMGFZVUYGLdunUN73LZ0Gjdhg0bFi9e/Msvv1BeZEMXACHTDaZHQywsH5wFwBOyNTG+KLtbQXnNH6t/ZRmEiFqj1Qu8/8LvhdwT8Mm0Wq3T6YRC1V69eoWHhzdhMPv27fv0008dDockSWazuaamBqJ1cXFx0EZJo9EMHTr07rvvbsKHOxwOrVYL3bkhUEOPN2BbSKAauA4IIdBpGF4wcODA5OTkN998swljkH+m3W6XJKlHjx7gzIBhgagxNTLN+QoApEHAVdNqtUaj8bPPPmuUuW5cuPrXX3/9/vvv//zzTyBdNeQtPkLusYTcYjDog3QI5gnZGBc19t334rukrVm7duUfy3/6YRkviBr1RUwAdQ+ohA6QbTIzM2+++eY5c+Y0k8vO8zxIHRoMhuZ8lN1u//LLL7dv3/7bb79FRUWBE0+1BC88zwghUBQmSdLIkSNvu+228ePHNzOJW1RU9O233+7YsWPz5s1QpEYpAkTWV7xFLAAKSHu4XK7nn3/+yiuvbKzscaPzNdDg7bnnnluzZk1D1oCPkHstllsMJp0QNAuwOS7qqvfeT+rcGSEkCILVap0797HNmzfUF0KjoKdDcISoxaMkqNjY2Ozs7I8++iiIJR21tbUvvvji2rVrnU4n+ACw5UOHGBBwp+dp+aXRVcEwjM/nGzFixEsvvZSSktKc4CNg7NixENOEO0YP9Chgl2jCoaXOAAihQYMGzZ8/H7puNva9jX6DRqNJSEj44osvdu7cedNNN2VlZZFAG2RwMYExQtkskiQFsVwSIyRg7GVYNlCYr1KpoqOjv/tu4V9//TV+/PikpCQoYKW6UbTvFTwq+IEJdPuhLNzTp0+vWbMmJibm+eefz8nJaam2qg0BIeTYsWNPPvlk9+7dv//+e9C2oEqa4LlBPIcESuApvYLqIMHh+K677ioqKvruu+/S09ObPPv9fv/evXvnzp2r0+ny8vJsNhsKnKBgSsBIKIX+fM5YHYj1+o7RSBGkLyIjIx955JHc3NzFixdHR0c3LQPT3Ix9ZWVlbm7uww8/XFZWRrvAUsas3+8XVaq7LeZb9UaDSMQ2j4VqMK5EeEtKpxmffBIREVHnr5IklZSUIIRGjBjh9XqhRh50U+iSply3cwb1wSkCuebU1NT77ruvVS+H5/k//vhj69atn3/+udFohMVJAuTTOsMjAU1SyGFRvqrH40lJSXn00Uf79u0LZ4Ymw+FwLF26dNu2bb/88gsTUL8ymUzQsq45n4wCTDuVSgURKiCbQPlLly5dHn300QEDBnTu3LmZ39JilJUNGza8+OKLp06dglbMECrVarVuQbhDr7/NEqIPyiEYocOSVNAt497/fs1ecIdbvnz5W2+9derUKehkCtkihBA0obBYLPW1PQA0mAMRicWLF/fs2bMhpPnGYtGiRfPmzYOxUZYK1J7LBQblA0OBRsVQmWA2m0NDQ19//fWRI0c2fzz//ve/33rrLUiVUrceYwxbSTPnFYShQVSL9uTVaDQhISHfffddly5dmj/+M1/UgqwVURT37t2bl5f32GOPQcqGYRi7z/dgVOQtuuAcghlRzMOInzppwvMX7x0iiuL27dsPHDjwyiuvgDwoWIBzakac+fxAFxNKJrPZbFFRUQ8//PCQIUP69OnT/EvYv38/QmjKlCkejweyAeDJQLUACZQm13dgwGGA2YMxfvXVVyMiIiZOvHiv2AuAELJnz57Tp08/8MADUAIFBA0omgPOmFzysTlQq9UulwtkhSwWy+TJk4cPH97M8ddHSy4AitLS0kWLFn300UdOp1NrMc/WGW4zGoOyADAvnNZr/dOmXvW3pxv4FkJISUkJOLWg6wRkWPZcHXDhYAdOLYgyAKMGWsqNGjXq5ZdfbrKqc1lZ2cMPP5yXl1dTU0PDJmq12mazhYaGwsJzuVyUlV3n7RDeIYTcfffdjzzySHh4eDON0v79+//+97+fOnWqoqJCr9fD0qIJbDbQTLbhIfILA+QrfT7fk08+ee+99zZHtv4CaJUFACCELFy48PNvvhlaWnqb0RSsBVBu1FaOH3ftC43uHoUQevvtt5cvX56fn0/5QqgeQ50eNCWZ1ixQCViWtdvtKSkpX3/9dXR0dAPZpjU1Nbm5uf/4xz8OHDhgMBjgKEICSqzgaAE/pU6oin4CDGnIkCH9+vW79957G9u7pQ6qq6vVavXAgQOtVitkgWjdMw0JwC/B+204FZyc3foOy6qsRFGEhn/33XdfqyrwteICAPCCsHzGzG4niw18UBYAX2Iylg8fOu31N5r2CTabbcWKFYcOHZo/f35UVBR9QjTsCGfN+v1DKUB932w2/+c//zl16tSUKVPi4+Prv6yysnLx4sV6vf6///0vKL2dL6xBN135AZFGriRJGjNmzKxZs8aMGdNMaqrH4/n+++8/++yzI0eOGI1GKMa9QPy+4VMfyxqQUTcSZDgYhhk+fPhdd901YsSI1qDW1h1Jay8AhNBff/+7ec1aY5AsQKlWWzli2NTmpTZht+vfv391dTUJCAJAvS9taYgDdYPyNzKBJjQ0fhcSEpKQkABNgeDFsJCsVqvD4ThnK7j6AGsDB1yXywW1kX6/f/jw4a+99lpycnIzsxMlJSWvvvrqmjVrKEHDaDR6PB6aFWnOh6PAGgZ6EihIQzB3+PDhkJFos+xKWyyArc8+G7lmjYEX214WBXO8Vav+FCF26JBZM2elp3WOiGiiRw44duzYwoUL161bV1RUBOae8opBJK++CCYEB5lAI1F4PUwjCJ4IgUbnVOvqog+Ffiyw3Lp27dqrV6+nnnqqmUKlkiQdP378+eef37hxo0qlMpvN0BGZMjeZc7VyaRpwoM+i1+tNS0sbOnToE0880eQ2bU0fRmsvAKfTufWF5zO2blNzQtsvAMTxXp3+83DLj8eOiRJzRe9uV/Ts+corrzXzU0+fPp2Xl3f77bfX1NSEhoYSQi5QNcGyLLgoMJPoAkCBNpLU94WAZkNCKPCZ4FmtWLFCo9E0k6MviuL8+fPLysoWL14Mw4BAJJz+wYhRFeHmsxggA82yrMlk+u233xiGaX5Ev4kjae0vKC8/zXr9LEFN8H9wS1TRMwwSJAJuxuHDhxd++3VycsrPPy9zOp1NfpDQMuPEiRMHDx4EwSkI2NXfGjHGUD8O/jrEJWmjFHDfIXsITjCw1i46AEmSIiMjFyxYkJeXl5GR0eTZD3dgyZIlsbGx77zzzpIlS2BBwpCMRiMUQxqNRiITwmnad9VBQkLC559/fuzYsbS0tGDNftRMefSGgGVVDCEMQQ2aa5IkCQKj1SJCCKtGUZFExTISwS4ncTqbVGlLECIqFavX6zmeCIKAiKBWae699z6MpXnz5vXv3//KK69s9KcGkJycvGHDhtWrV//++++//vqry+Uym830oEz5MJS0CMKGKFAhAL0hwA7QKguq4i8PvIKV4DiO5/kXX3yxR48egwcPbqajvGHDhq1bt3799dcgLUglHijX3e12Q+SRCoyeMx0uBdoc0WgYtWn0mAu3gud5QRBeeuml7OzswYMHt0ZYs7FodReosqpq7+uvZmzfqfadQxqRQQQRJPICwYjRaAgibFamnef9IgqfPCll2jTi9yFJ8h47XvTUU0a3hzk/fe3c4Di/Xv9ZRPiSY0cFiUGYw0hARCMRrNWoIFo/adKk2bNn9+rVqzmX6fP5Kisrd+/efdttt+n1epPJBHs8ZfzDsY/uoPIVAsZBrVYD8xQ+ECrIoFUZLVV54YUXJkyYEBsb28zwSEVFxZNPPrlt27ZztsZpLOAgiwJlXLT2jfJiIA6mUqmeeeaZadOmRUVFBbVG/Cy0xSF483N/j129VsdLZ3GBRJEXRKLVIBVr7Jqljo3lq6q1XbuG3X0Xe664de2WLdUvvaIqL8eN2jY4zq/XfREZ+dOxo7yI6QJAiBUEPyRT1Wq10+nUarVbtmwJCwszmUzNnF6PPvro/v37IZQJcUlaWk4CMoOU3cXIVKggsgQfQpcNxjgrK2vixIn3339/M7f82tragwcPPvbYY8XFxXq9HhILzflAOlS6tiFlAccGi8Xidrsxxt26dZs8efKdd97ZZi0UGo62WAB7n3k6ZOVaC5E4P+fheTYsVBBFU2aW8aYbaysqJIwSr52oiTtHaLwOhJMnT1w3TSNJqOETlOcFveG/YeYfCwq8HKELgCCGwWfozSTQsM1ms/Xr12/8+PFTpkxJT09vziVbrdZt27YdPnz4vffeg4I9yseUzzn6MxX9Ay8ITg4ajebOO+/MyMiYPHlyM9skejyeRYsWLVy48OjRo+B0AYenRSyAnN4sybo+VlRUzJ49e+TIkddee207aSdVH22xAA589WXZDz9ipzO+f//0KVN4m53neHOvKzRpnRHQ0xs4oQnhdu8tvvc+FWpoYT7hOCY09EMGLTl5kpO5QAQxGjULOVS9Xu9wOBBCZrMZ4vparbZLly7Lly9v5uSA7XDjxo0PPPCA1+tFsgUAGzy8DCYNCigpQX3Myy+/PG7cOJ1O18zyFI/HM2vWrFOnTtXU1ID3RVNOLcjIZwL9tOESCCHx8fHbt28HwZWW+pbWQFssAMHvE3w+IohqvV7VzGY4omhd8Jnjo4+QSoUaMDsJx+GQ0I9Z9NPJYk5i/3cGkDDDIIzPEvKGR0gJ9FVVVffdd991113Xp0+fFtnAVq5c+ccff4C0zpEjRyorK2HjDA8Pz8jIcLlcXq83Kyvrvvvua/6ubLfbi4qKli5d+vbbb5tMJtCug70ZZNMtFktL1TBAKhc8yYyMjCuuuOKuu+46pwBwO0RbLICWhWi1npozB5WUNiRGSjgOh4Z8iNHPp07KFwBBDEb/q7GgE06ehIIfeJ4fN27cmDFjpk2b1oKtrPx+v9vtBs/HYDC0rHP82muv7d69+8CBA06nEz6ZOmBw9qDVPw0MucpriyE2Jcn6cTAMAyVpq1evjo6Ojo+PbwMKQ0vh0lsACCHfsWOn/v6sqqj4oiuAcBwTFvohRkuKizlyjgVwkbcHNGogKP63v/1tzpw5qAEtUtoehBC/379169ZZs2aBjkOLPFnYEWDqg0IWDdHCqV2tVnfq1OmNN94YNGhQ87+u7XFJLgCEkPvo0dJ5z6hPllx4KoIF+JhhfiouauwCUKlUHo8HqgLALwJ28SeffNK5c+fs7Oz2490eOHBgy5Ytr732GgR2aTC++Z9MAq0QUSBBAaYAWGt33HHHiBEjxo4d2/wvChYu1QWAEHIdPFT61DxdTTUSxfNdA+F4NsTyuQp/d/KkT2QatQAkSTIajTU1NRaLhVIV4E8hISHp6en333//uHHjWvSaGo2SkpKnn3563759oK0ppyW3iOwCcJxAugJiBiCa/9prrw0fPjw1NbU9JLOag0t4ASCEHLv+Kntqnt5ai86XIBMExmBcqGa+KS1xC7ixCwAI9+BdQEIXvgWqXkC8bceOHSzLQj+V1rjG+iCEeDyeysrKoUOHAkEN4u4gwUCrclskyCMIApwi3G63VquNi4vr2bPnJ5980vxPbie4tBcAQogrPnX6gYfEE3mswVD/SggvYJNxkZpdWFLiElBjzwBg/Wn2itbIg5gm/IbjuG7dut10003XXHNNY1sUNgG5ublr1qxZu3bttm3bQJ2JFo9TPqlcZLOZgDVvs9mmTZs2YcKEq666qpl9ANobLvkFgBDi8wuL77qTra3F9UPmgsAYjD/o1J+eOMGrdILoYbBIJLVEMMsgqkRLgyQX/iJyfp0pQojFYhk5cuSTTz6ZlJTUEpd1DkyaNKm8vLyiooKGWRpeg3JOUOULSteBTAUtbBAEwWKx7Nixo5UqEoOOSyZcdQGoOydHPvE4MpmQeK5NXcVwhKjOEC3P6OcwmIHgBuSDztccpQ4u8BqMsdPpXLp06aBBg2bNmlVWVtZSUXaPx7N79+4333xTrVYfOXKkpKSE6niiZod6aBmn/KPA4kVERNxyyy379+8/fvx4WFjYZTn70eVhARBCotNZ/vZ/fL/9xgoSYv43TSWOM8XGbcxIe2fXroPH8iIizQwWOT/CjErF/k8YHUxBi9DcxQBuvfXWzMzMG264oclNzEVR/Omnn/78889ffvmFZVlgLsHxo1EC3RcA7PdgAyHW6fV6LRbL66+/3qdPn2Y2tb4kcJksAISQ4HAU//3vqi3bEMYksEFKHGeOjz82akTm7bfXWGun33S922WXRJVGo3e7HSjQ3gtq2JufvoGsEKSHKOvh0UcfnTt37gXcp3Piiy+++Oijj2pqami9GHgp0Ky3pYI88CGwtARB6NSp08cff9xMYuylhctnASCEfMXFJ17/l3bXbuivixCSOM6YEH909IhuN8+M7tQJIbRp84bqKuu99z5gNOrkBbstUupKCW20tJdhGNDzefvtt0NCQvr27WuxWM73do7jcnJyXC7XzTffjAPNT6E/tlarBb4NTb42c6gUXq83LCxs2LBh3bt3f+SRR1rqYy8VXFYLACHkLioq+ccLxpwcEQRLeN4YH3fkyiFdb5sdKzubnjx56ssvv1iwYAEhhNaCULmH5twTOk3pmZIWDTMM07t378jIyOzs7LvvvlvOL9qyZctPP/1UUVGxf/9+p9MJ7GLKqocdmhZM0lqCho/qfPbHZrO9+uqrU6ZMCQ8Pb0GixyWEy20BIIS8xcUlf3+OOXBApdGIHB8aF3No6ODM2+fE1otRulyub775Zs2aNTt37qSHPPCIaGckCIlcQEf6nDjnhKNLSxRFj8cDqQOGYWpra6GTRf23kLOVcxoFuvxoqBTLGjD27t07Jibm448/voR4O62By3ABIIR8RUW1/3nXt3atxLDh8XE5w4ak3zY75vzRyV9++WXp0qVr166lSk/47G5oLRhZbzOQgHwQJWCDsmy3bt0eeuiha6+9tpmtXy4PXJ6rX5eSEvPSC9ru2YjjEEKSn5Mu2Ol1ypQpn3zyyV9//TVo0CCaE4CpA/MGAjttNPoWglyxEAaflpa2YcOGP/74Y/r06crsB7TLBUAD0s2Yc0xISPSz83i9zkMknmEuunVrtdr4+Pgffvhh586dU6ZM6dKlC+0MAJS4dsgAvTCoGDrG+NZbbz18+PDq1au7d+/eMX3986HduEAwDJhkhJyj2OWcv7zwR3o8xQs+LdvxlzB65MBbZmkbw7mvrKysqakZMWIEhF8gFtlSXX3aAKBDwbLsL7/8wvP8JcpVbgMEewE0qsC3sWtAFFGzs0ULFy5csGDByZMn28tO0QCwLBsSEvLaa69NmDAh2GNp72jrBXDGq8G4oXXAddCoBdMSCwAF+gYcPHjwxRdfhEac9EBMRU2ANNrMEOoFIC/pookLeUIAKtMJIXPnzk1NTZ0+fXprDOPyQ7AtQKuihRYARUFBwaZNm5577jmQVIB5D54GMOahV3MLfiOABJogwT+hXQqsAbnwzuDBg+fPn9981aAOBWUBNAVPPPHEjh07Tp06BSQiCBlRUZPWAMTvweDQ5Bo0hExJSRk0aNDcuXMvM6Jy20BZAE2E1Wr97bffDh069Omnn0JVO2SaWul+UhldSAyDsmxmZua99947adIkJabZZCgLoFkAjlpGRgZUIbZs+1s5aPNThmHsdnt6evrHH3+cnp7ebgWnLhUoC6Bl8Ndff/34449bt24tLCyEYnmaiKUl6hfl8NTRaEEB9gT8xuv1pqSkdO3a9YknnujevXvrX1OHwCW+AC4cGG3DBQA4efLkyZMnZ82aVV1dHRsbC70l4WwgbyQqXwkk0DWaLhX5W2jjGUmS/vjjD51Ol5mZecml5NozLvEFgC64Btp8AVDU1NRMnjy5tLSURmmg+sxkMoG2Ar3t4NuATCfEWGEN+Hw+rVar1Wr1ev3DDz8MekQKWhyX/gK4AAQBNU9Ys5mw2+0ffvhhRETEa6+9BgLiVCtTzrQjgYYxCCGv1ysIgsFgmD17tsViufbaa7t27Rqs8XcEXM4LgIgiDpIFqIPc3FwIWT7zzDM7d+6kOlOlpaUqlSoyMhLKXPR6/V133XXXXXeVlJRkZmZermW47QqX0QKo5wsRUcBsMC2AgvaPyyhleA7+XDCGoeCSwmW0AOpBiZYouCguuwVACLpsnDoFrY/LbgEou76CxuCyWwAIQeMXn81GWqDLsILLHJfjAkAIYVyak8PV2oI9DgXtHZdRGFSBgsbjMrUAChQ0DMoCUNChoSwABR0aygJQ0KGhLAAFHRrKAlDQoaEsAAUdGsoCUNChoSwABR0aygJQ0KGhLAAFHRrKAlDQoaEsAAUdGsoCUNChoSwABR0aygJQ0KGhLAAFHRrKAlDQoaEsAAUdGsoCUNChoSwABR0aygJQ0KGhLAAFHRrKAlDQoaEsAAUdGsoCUNChoSwABR0aygJQ0KGhLAAFHRrKAlDQoaEsAAUdGkp/AAUKFCjooFA8IAUKFCjooFAMgAIFChR0UCgGQIECBQo6KBQDoECBAgUdFIoBUKBAgYIOCsUAKFCgQEEHhWIAFChQoKCDQjEAChQoUNBBoRgABQoUKOigUAyAAgUKFHRQKAZAgQIFCjooFAOgQIECBR0UigFQoECBgg4KxQAoUKBAQQeFYgAUKFCgoINCMQAKFChQ0EGhGAAFChQo6KBQDIACBQoUdFAoBkCBAgUKOigUA6BAgQIFHRSKAVCgQIGCDgrFAChQoEBBB4ViABQoUKCgg0IxAAoUKFDQQaEYAAUKFCjooFAMgAIFChR0UCgGQIECBQo6KBQDoECBAgUdFIoBUKBAgYIOCsUAKFCgQEEHhWIAFChQoKCDQhXsAShQ0CoQBKGoqGjv3r1lZWVer5fneYwx/N5gMMTExGi1WkmSJElCCBkMBoZh8vLy7Ha7TqdjGAYhpNFoTCZTp06devfuHR8fD29XoOBygmIAFFzy4Hn++PHjq1atWrdunc1mYxiGEOJyuTweD8/zCCFCCEKI7uCEEPgN/JJCkiSGYTDG8C6VSsUwDMdxCCGLxWI2m3U6XUhISM+ePW+99dYuXbqAnVCg4NIFpitBgYL2D7fbfejQIYRQfn5+Tk7OmjVrCgsLOY5Tq9VqtVqj0ahUKoQQde0xxgzD0J/lXrzcBtC3sCzLsqwoiqIoIoRYlgVzQgiBD2FZluM4t9vN87zJZBo4cOCVV16Znp6empoaGxsbGxurHBQUXEJQDICC9o7Tp0/n5uauWLFCkqTCwsIDBw6IoigIgiRJarUaNm7w1tHZWz+q5/vXPwQQQjDGsL8zDKNSqViWJYTA58OBQJIkURTh8wkhECPiOA6MBEJIFEWNRpOenj506FBCyJVXXjl69GjlfKCg/UMxAAraFwRB8Pv9kiStWbNm3bp1W7ZsKSsrYxjGYDDQucowDMMwoii63W6NRqPRaGC/pn+inwZevyiKdfx9dLYxgH2f53n4apVKpVKpYOtHsqMDmA0IEKnVahSwHxqNRhRFnudhJIIgwA/Tp0+/9dZbIyIiYmJiMMbUSilQ0E6gGAAF7QJlZWXbt29PTEz8888/P/30U7/fL4oiBHbAHyeEwJ4LuznEdsAMgKtOPXTq2sMnyyM/55vt8JlqtRoCPpIk1Xk7fAVCSBAEeVyIJpZhAIIggOXgeR6CUT6fT5Kk1NTUgQMHZmRkpKampqSkdOvWTYkUKWgPUAyAguBAEISysrJdu3b997//JYRYrdaqqiq67+t0Or/fz/M8y7LBHmnLAKyFSqUKCQlJTk4ODQ0dPXr09OnTtVptsIemoONCMQAK2ghut7u6utrlcq1fv37jxo27d+92uVxqtVqv14OPD3F2CMGDB82yLARhLhvAeYLneUIIhLDUavU111xzyy23hIeHd+rUyWg06vV6OOsoUNDaUAyAglaEJEnHjx9ft25dXFzcunXrVqxYIQgCCkTqIdoOvBrKwKF8mzr528sGNO2MEGJZFmMsCAJEimJiYrp3756cnJyVlZWVlTVw4MDL5gCkoH1CMQAKWhgej6e4uHjz5s1fffWV0+l0u90QphdFkWVZrVbr8/nkAX3KpVGpVBqNhud5iLNflgYALlav18M5AP4J10ivlBKcwsLCQkNDhwwZ8tBDD0VERGg0miCOXMFlCcUAKGguqqqqTpw4UVVVtWvXrm3bth04cEAQBLVardVqYdOnuzkkTmkGFd7OsqxarRZFkZ4DKJf/8puccPQBCimwTlHAKqjVaowxx3GQZKa5bkmSXC4XQqhPnz7Tpk2Li4vr0qVLbGysxWLR6XRBvh4FlzgUA6Cg0YD49V9//fXLL78YDIY9e/YcOHDA5/NBKRbENJCMiS/35cEAIFkkhHJpAOd8V/MHTKu96MfWKfKqQyWC11C7RWsCWmow8jIF+Qjp99JvpLcIMiUIIYvF0qlTp5iYmOzsbIgUxcfHN39gCjogFAOg4CKAlCzDMGVlZadOnfr1118XLVqkUqlcLhfDMGazGewBqiexENRRnwVJkoCBAyF12O5psgEF7AE1EhCYIoTA8YXyTUVRbA/XBTccyp7hxGAwGHr37v38889DKbJWq6WXo0DBBaAYAAXnxYkTJ3JyckpLS48cObJv374TJ05Q0QVJkiAkDQF9qJzy+/2wz6LzM+6DAkg406AKbI5y7xt+qLNj1ikbbj/7KdRAQMUZy7IajYYQ4vf7PR4Pxjg9PX3ixIlxcXFJSUlZWVkREREmkynYQ1bQTqEYAAX/AyGE47hVq1YtW7ZMEIT9+/c7HA6tVutyuSAtqVKpYCcFDxri9SzLCoIApwQog5KHgNoPYN9EgZAOrRym2g/wz/pyEe3tQuAEAG6+3+9HCNGnQCWMIPtisViio6O7d+/es2fPoUOHZmRkBHvsCtoXFAPQoSFJkt1uP3LkSHV19dKlS3/99VeEEGz0LMvq9Xqfz+f1evV6PYgn+3w+hBDs8jRUTVXSICLBcZxer4cPD+7VUcAkp5I+EAiiEXa/3w+HGPlRoE4IpV0tE7j5QBaCccJTgDQyhKrgcYCphncJgqDX69PT059//vnU1FSe56OjozUajaJO0ZGhGICOiN27d2/bti0/P7+oqKiwsLC6uloURb1eD5R8CONgjH0+H0QYOI6Tpy4BkEGFYDTkCWiEHX5o1akFHy7P2cpByTMMwxiNRlEU09PTR48e3bdvX9giYVuERGtqampERITdbj958uSOHTu2b99eWFgI7FWQ9wE6UwMHVie7i1qhoAGOJnCTRVGEmBuVo4ALpDcByWimYPDcbrckSXFxcVdeeWVCQkJ8fPyAAQMSEhLCw8NbaoQKLhUoBqBDgOM4j8fz5Zdf/vTTTzzPW61WUDQLLqDQF7xymoBFgQ0OpNMgfytnwkD0SavVMgzjdrvBW6cxekJIWFgYy7Lp6el///vfk5KSwsLC6IZ4UW+XBMCybG1tbVFR0YoVKz777DMU2MdBqQI2WZoZpjUNdPMFgQf4q1arpdW/qJ0FlOhoQ0JCOnfu3LNnz6uvvrp///7BHpeCNoJiAC5D+P3+2trampqavLy8qqqqZcuWbdmyRZIkk8mk1WrbzxOXMy8hBA8FAfADFMfC8QI2fQhMQfSDEnVEUUxMTOzXr5/JZMrOzu7Ro0d6enpYWFiLj/bo0aM///xzTEzMxo0bt2/fDlJFIFsEZwUYNu0rAL/RaDQQpocLaT83HyFEaU40sgc3X6VShYeHz5s3r2fPng6HIy0tzWQywTlDwWUGxQBcPqiurt64cePx48ePHz9eWlpaVlbmcDhgkVPfuSFecJuBBjFg08QYwwaKEIKIPGz09ChAd3y32y0IwtSpUx9//HGdTmcymaKiorRabdtsUi6Xq7y8vKamJjc3d9u2bcuWLbPZbAaDITQ0VN5JBgXKDuDEAElyGpZpD6BpfKjCg2ge1UOFA43JZOrcuXN0dHRCQsLEiRO7dOkSExMT7IEraDEoBuCSBOyDIJ3vcDjmz5+/YsUKSGZCvB7oOkDL8fl8DMNAILtdldfChg4KEODXcxwH9gmcazADEN4xmUzR0dEWi2XcuHF33XVX+5FLEwTB5XLt3Lnz3//+t0qlqqmpqampgVtNuxGgABW1Th4luGAYhud5yHOAlRIEAQd6qEFhNjwdMMxOpxNjnJGR0b9//zFjxowePZrjOJ1OpwgWXbpQDMClBBDULC4uzsnJKSkpWb9+fV5eniiKOp2O7pWU5QJGAiLUddocBvs6zoAW4tLTCXRW8fv90AAgIyNjyJAhUVFRvXr1Sk1N7dSpk8FgCPaoL4LTp08vX74cY7xjx469e/fW1NT4/X4wwDSZEewxngEdD00jQ2IDngslyEKACGhgtAQBwlxarfa+++4bPHiw1Wrt3bt3VFQU0AeCfWUKGgrFAFwCOHny5MqVK3NycnJycioqKmivc6qdSUuxKEkf/kSpO/B7KN0KVgiiPj0GziiQCoZKAnA877nnngceeECj0ZhMJr1ef4k20vJ4PBzH+Xy+gwcP7tixY8mSJaWlpXVamyEZR6j+/WkbEFlrTBDjg8Q1jQLRSJHP54OIHJ1XMLUgzBUdHR0TExMZGTlx4sRevXp16dKljS9EQROgGID2BdgHIYZgs9lee+217du3Q6hE7trXf+NFGSby2tcWAXiLEBygwglyq0MCEhGwg0NIAY4jsONjjPV6fVRUVGpqqkajufbaa6dOnXq5+o8QnTt+/Pj7779vNpsLCgp2795N9eCo9w1WHAWKuVAgdiRPjYAn3kqDpHaozlcQmYhTnd+TQH01XCM0VjMYDN27dx87duzYsWMxxlFRUVAdoqBdQTEA7QI2m62kpOTIkSNHjx4tKSnZtWtXeXk51U+G4GxLiZG1COQjgQoAtVpNzyWUaw8NHWGOgQvpcDg0Gs2VV1551VVXderUqXPnzuHh4fHx8R1N69jhcGzfvp1l2bVr165atcpqtZJAtRrspPTEBnoP1PZDcKz9HIlonoOWIMC81Wg0YObhNddee+2wYcNsNtuIESNSUlLASAR77AoUAxBUHD58+Oeffz569Gh+fn5tbS2sbRIoqgJKBuyqWq0WtF/alQ0AN18evoDwsdfrBckgoHKq1Wqj0ejz+R577LFbbrlFr9frdLr2lhENFuh92LVr1/bt23/55ZfCwkIIsuOAgB10ysSBNsgtfphrMjDGHMchhEwmE1CJYMySJAH5lQ0Aksx2u91oNMJp4Lrrrhs2bFj37t0VgmkQ0V5m0mUPQRC8Xm9ubq5KpSorK3vjjTeOHTuGMabBVojjw14Ap37qPUGktf1sl9Tpg10JokBA4IE/QaPHpKSkbt26QcvDYcOGtZPBt3/4/f6SkpIffvjBYDDk5eUtW7bM5/NpNBoI0MN+2n64pHA0kesA0hAWTT5R9gGMHHIGkOo3mUzp6elXXXXViBEjVCpVWlpaa9RwKDgfFAPQuigvLy8oKNi+fXtBQUFlZeWxY8dsNhucl0HOFwR2YNOEt9BQAGz60PQDqJztZA+FYfj9fhAi5jjO5XKJomgwGCZMmDBy5MjU1NSEhASj0RgeHt5+SEeXInw+X25ubkJCwr59+5588kmn0+n1ehFC7cdrpnMS6qJp1RvU9NHyDp/Px/M8FJTxPA/MKChBgIOjWq32eDzDhw8fNWpUWVnZuHHjrrjiChC8C+r1XeZQDEBLQpIkj8djMpn+/PPPpUuXHjlypLCwENJidEOnoVJ56gzeTlnY4CIxDOPz+QRBUKlUOp0O8oStbAMwQXU+nyBMEEKY4DP/RAghxDAqSSLR0VGdO3e22axz584dM2bMJUrXubRw9OjR3Xt2r1u37tjxYw6n3ev2icL/+koihBGiT6rtljalIIMfQ+cqDlQgQvLf6/VSXwcOuFCeQqumEUJUpAQih5MnTx41alT37t0jIyOhLqGduEGXBxQD0FzwPF9bW7tr167w8PC8vLy33nrL6XRSiRt0LkJFQ1CHHdhSxA+CCcGESETFshghv59nEGYwSxBWsSrEsiIhoiRJiCCGYVQsJhIRRQZhgeNEnteqVeGhYT2vuOLKYcMRQleNGJ6Vldn8USloAgRBsNZa161dazQaTxScmP/ee36OY1kNxixBCCGCkChJZ3j9VCpO3hMNyRI5FJTfCd/SUvsDOY943/lWBx0k2BKdThcfH3/FFVcMHTo0LCysZ8+eiYmJLTKwDg7FADQRBQUFBw8eXL9+fXl5eVVVVVFRkZw0TQIyBlqtFtQ0W4+613AQjBCDCcYSIUQQGITUKjWLGHAaBUESeIEQpNVpMYN4gccIe7wegkiI2TJj5s0jRo7s3DktLDyMZVmj0Rj0y2kkCBIlJEoIoucYIUSQSoXY9hJLaQ5EUaysrAgJCf112S+ffPBRba3N4XYJokAQYVVnOgzD1g9pJ0jeUmNAkzfgX/M87/P5VCoVVeZoD4BlxfO8IAhdunTp27ev3W6//vrrR40aBcUiwR7gJQnFADQIPM+Xlpbq9fpVq1atWLEiNze3rKyMEEL1Z2goExYbDgjKQ+hTp9NBYCfIl4GRIEkIIZ1Oz/n9gsAb9AZJEAWOwwhBbxeMkMfjye6ePXDgwKrq6gcefLB7z55tvNcTnpdsNsnjkXgegSeIEEKYMRk9Gze5fv2FK68UfX5JFGhdLUYIByIecsVq0eslbjeDMWYYhBDGZ+IiBGMJIREhgojI80ivZ0NDBYKIWm1MiI+/525tVpZkdzRouBghVoU1asZoZENDUfsIghUXF+/bt2/v3r35+flQPe52uxFCtOO8IAgQZqQ+uFzSDkicDRfBbgNQlUD4J4zZ5/P5/X6TyTRq1KiRI0d27949JSVFpVIZjUYledAQKAbgvOB5vqSkZPny5SkpKUePHv3kk0+gSgshpNfrgalN+RgqlYpS9+gCA1er/fhQiCCMMCYYE4IQJgwiGHGCnxCk0+v1Bv2woUOmTJ4sitKAAQPbTPNLcrncf673FBaKPM8QotKopcoq7uAhoaZGbgAwnahntnyM0Fn5iqbNY3nPl//Fzhtp8AhmGI1aFR+nzc5mjEYiikitxjod8vuJ12uePl2TGbRWXJIkud3uPXv2WCyW6urqJ554oqKiAmi4UGqg0WhoiS8tJqdM0/ZzzqsTlaIbF/0nIDIyMisrq3fv3iEhIQMHDuzTp0/7uYR2CMUA1MX+/fu3b9/++++/V1dXu1wuh8NBReoRQkBL8Hg88gUDvj+teqUTjtLg2skUxIQYWK2KsG63m7DIFG4Jj44aPW7ssCuHDRowAGSNW91vkiTHou+cK37jT59GkoRFgiSJCAJqP2aypYFVKsQwiGFYk0m0WtmoyOh33tFkpAdlMKCyt3Xr1nfffbeqqur06dNWq9VsNoMoNMdxGo0GGAegzNF+QivUINFentT3AlIpx3FmsxnKEfR6vdfr1el06enpHo/nhhtuuPnmm00mE3DqFFB0dAPg8XgOHTrEsuyaNWvWrVt38uRJl8uFAidNuDlAaON5Xt7uHI7StCwTOrLKLQH8QLVumj9U+qTk6TsgF8mzzXLNALpmCEJIIiIvXD1+/KDBg2qqqqbPmJHapXPzR3U+SDY7X1oq2mqxRsMfOepc8jNXWSkJAkMIlrnwHRdw+YSYJk0yTb5WcjqIz6eKi9P27NmWd6a8vDwnJwfoarW1tTt37qysrIS5rdFoKG3/fClcFJh1VK9CrlbSsmcIWhlHkxkkIIQFrDmVSuX1eqHagOM48M8g+eH3+4G1PHTo0DFjxqSlpUGTg6ioqPYjKxsUdDgDAHmkvLy8r7/+OiEh4cCBA6tXr4Y8LURF0dndw9vP/aFq8nTfR4EyHFofRFkcIJrPMExYWJjJZJp07aQbp9/o9/szMzONRmPrDdKzdatjyc9YksTT5cLp05LXgyQIupOOvuM3AIzFosnKlJwuw4irQu+6sy2/Gij8J0+eVKlUDofjhRde2LlzJ3g8QNjHAbFokPRAgVoESi6C6CiViqMmgdRrJhpEwJBUKpXJZIqLi8vMzIyKiho6dOjo0aM7JoP58jcAMC+9Xu/Bgwe3bt36/fffV1VVgYPjdrt1Op1Wq3U6nSC9UEfGvV2JrsARRKPReL1ecHlQoA0hbZ+CENLpdGFhYQkJCddcc83AgQN79erVSuORPB6sVksuV9VT83x79oBL1krf1WFhmjQp4h/PIp5HDIPbXC6poKDg888/P378eElJSVVVFawI2NBh9wcdCPjBYDBA7Ah6y0BRSLtyoShgUVOuNq1nnDp16v333282m0NDQ1HglB/ksbYyLlsDYLVaN2/eLEnSpk2bdu7cWVpaCsdDnU5HAiqVwHKjYlvQX0Wv10NIsV15Lkim3k5VoCndSJKkOXPm9OvXz2azXXXVVbGxsdBipTWG4d25kzucg/V61/LlXG5ea3yFgrpgGF2/vsYxYySbTTdooDY7u42/32q15ufnl5SUFBQUlJeXr1+/vrCwkGVZvV5PFetomIhmxeC9TauDaSXA0QQ0i2hvZ4hcwe8dDodKperatevAgQO7dOnSs2fP2NjY+Pj49t+Iomm4fAwAbOV79uz58MMP4+Lijh07dvjwYdroTqPRgG8C3E0gO9fp2UQPAdC/W6fTwbE32Fd2BqAPTEvtIyIiYmJibrzxxuuuu87r9bZ2NNP+9TeOr75m4mKl8nKx1tZ6X6TgojCOGR3x7N8Zs7ntvxrobS6Xi+d5r9f7yiuvLFy4kGXZkJAQaDdN3Slws8AStDcDQEvu4QQDOwAkkxFCsPxBsgLkymNiYqKjo4cNG3bzzTdfZjmDS9gAQDdEaM26adOmH3/80el0arVavV4P2mRUSIfjOCDjwx4qr3ukfQepkgmNeMIhIOgsCBgwVEJGRkbGx8cPHz68d+/eGRmtyywkoiiUlmGVii88UfPP14TKSnTJTpXLFdpuXcPnzdNmZQa3+ECSpIULF65bt85qtVZUVNhsNo/HIwiCXq+n7nY7sQFwdKaxHXlPOviZ9jOAvBoK9L1ACEF9nEajmTRp0v333x8SEmKxWIxGY5s1o24NXHoGoKioaNeuXREREatWrfrtt9/sdrvf7we1HHDkIVQCz4zKlKN6GV25UIn8nzAPwCNoCItfzv6kn4YC5Ad6HIbQDQSXIJpPRTRpPY6cOwFOVlRU1HPPPde1a1ebzda3b9/Q0NC2cUD8R446Fi70btsuOZ1t8HUKmgNdv776AQNUnTrp+vVlw8ODOBK3211aWlpVVZWbm3v69Ok1a9YcOHAAVAIhJgneN7AtcEBLnMZaIY5Ed2faWoA2GmqpcdJ6HUqio66hnNhNDQOSSVlAuhviB506dRowYEBSUlLXrl2TkpK6dOkSHtT73wRcAgZAEASfz7d69er//Oc/oaGhRUVFNTU1Go2mnYxc3tEJBUgRNFdGCy/hnEGFP8EzgglHo0zAwk5ISEhMTHzrrbeSk5PBPLSZ9+TZsKHqb08TQrBKRQL5PQWXBhhGZJiQW2+J/L8Hgz2U/zlbfr/f6/V+/PHHn332GcYYuPlarRa0oKlgHMxw4FvTUzhYC/iBqsi1k1VPCAGTBplFoJyGhITExMQMHDjwiSeeuFQKDtqdARBFsaamxm63nzp1qri4eP369atXr6bmF9g7MDOCPdIzoG4C3abpIYCeLuW9Eilxk+d5jHFISEh2dnZMTEynTp369euXlZWVnJzcxpcgeTz+ffttn3zizznSxl+toCVBCMEYGY1hd8wxT742uKeB+pAkae3atZs2baquri4oKCgpKXE6ndTlJ4HSemgtB+p1sONT/6n9FNXL+3NQQjbQMaDtnSiKgwcPfvrppyMiItRqdWJiotFobIdWoR0ZgJycnJ9//rm2tvb48ePFxcVOpxOmBRQl6nQ6mBk0MBfs8f4P1N+RT2Up0KudZVnY6yGgVFtbK4piWlraiy++2LlzZ4xxSkqKwWAIVnLJueRn+3//K5RXXMa1uB0NBCHGYjGOHRN27z1sRESwh1MXHMdZrVa3252fn19cXPzHH39s2LABiKRGo5Fql6pUKjgoUGWtYA/8LMibOFHdJDADVFvJ7/dLkhQSEpKZmQllB926devVq1dCQkKwh38GQTAAYMklSfJ6vTzPL168+PXXX8cYQ0sphBAEPWDf12g0Wq0WIQSFWhCDo350O4E8nUBDimAJYOuHGnRQKXnppZeAZRx0CGVltgWfeTZtkuz2YI9FQauAYGy5+66Ie+8hoogZpt3W4sFe+cMPP3z00Ud6vb6mpgY01RFC0EgAYu7BHuYZUL0vWvlMhwppZPkmQHPLlGuu1+vDw8PT09PfeOON2NhYj8cDYpHBuZY2MwAcx50+ffr06dPHjh0rLy/ftm3bjh07vF6vyWQyGAxwN6maJjlXfTlNIlHxg/YA2Poh2wwHVavVihCKj4+/8sor4+PjU1NTofQ8NjY22IP9H7iCAudPS1y/Lic+X7DHoqAVIWGMTEbdFVeEz7ld12pVgS2LnJycTZs21dTUHDx48OjRo5WVlQghStiD1+BgN0aWp4URQvSgD2aACojhQIsnOcsDXEa73S4IQmZm5r333hsfH8+ybI8ePcLDw9uy5qDVbyIhZN26dUuXLq2urj516lRVVRUkP2lIhLrP9PVYJqZGQ+eUydOCY5N/LO29DlYajiNgeMDk0CoBOIjQYUPmyu12Q6++gQMHgmFnWdZiscCsbcExNx9iZVX1m//2bt6MAq2XFHQE+HW60OumRs99GF8iTHbQMZUk6dSpUwUFBatWrfrxxx95njcajdBjUqvVwuqTb7jgd8tbHdDO1XCMaHHfkW5QdLOS/6b+a1CAIggGA/YcKO/PzMyMjIxMTk7u06dPv3790tLSWnao9dHyBgC6GFZUVHz55ZfLly8/efIkbJ1qtZpW3raTcB6IRkG/IWjOTmU+6cRizujInwnqUeUT4CqEh4dnZWVFR0d36tTpscce07R5sX5jYf/8C/tnn0s8jySp3QYEFLQKCEGsCusNEU89YZp4TbBH0xRARnDjxo0LFiywWCyHDx8uLi6mwRZ0djaOBhXAb3O73dA3pv3wR4By6vf7gdhCY0oYY7fbrdFooqKiYmNjP/jgg06dOlVVVUVHR7e4N9mSBqCiomLVqlWHDx8+fPjwoUOHaFgc9lbqOLfU1zUfoihSRiZlICDZOQMeCeR5OI6DvHTnzp1HjRo1fvz4+Ph4nuezs7MvieJAyemsfONN9+rVLC8oW3+HBUFINBrDZs6IuO/eYI+luSguLt67d6/P59u9e/fOnTvz8vJgtcJ6lB/fgVBETUKwB34GNFUABckgvwpVqzSZTAix2+0IodTU1NmzZ/fq1Uuj0XTr1q2l8ogtYABEUfR6vcuXL3/ttdc4jqupqWEYJjQ01Ov1SpIEbFkSqAtH7abFBJwKIdqDMYa7D/wzdLaYM5QET5gw4dlnn42MjDSbzSgwvS4V8IWFzp+Xulb+IVmtyu7fwUEkSZ3cyTRhgmnKFFVcXLCH0wKAcoGampojR46sXbt24cKFEGcGhj4UlOGzm9G3H9DoAs0kU68UYkQQh4DjglqtjoiIMJvNM2fOnDNnTgt8e3MMgCRJ+fn5Cxcu/OSTT3w+X1hYGAwRClxpr0QYOj3dtAfiKaQfaAkxwzDQDQNuNOguTJo0Caq9b7jhhvYWx28ECEEI2f77VfX7H7Bnt9BS0GEhSYSwbNTfnjBPmYy12mAPp4UBu82hQ4e+++67+Pj4rVu37tixA8mkc4M9wDMALxO4jlTQF7IF1PtEAb0KMHKwtYKaWUxMzIMPPjhlyhSLxdLkMTR9O7Zarf/9739//vnn/Px8KISjXZuBHguxcoj8wNYPtjcoJ4Bz5pbp+ctmsyGEBgwYMG3atMTExLS0NIvFkpCQ0E4OK80B4fmKf7/p/vU31s8r278CCsyyUa/+0zBmdLAH0uqw2WwnTpzgeX7lypUbN24sKCiQCwPDa+pzTOowUOjP8heg5tFSKEcInUuohv4GaEU+n0/es5Oeb9LT02+88cbp06ebmyQO2EQD8MMPP7zwwgt2u50estoyvEO7OsBtomUjSFaXiwL6oPAn2OjhT36/X61WWyyW8PBwr9d79dVXP/zwwxaLRXvZuUIIIcnprHh6nmf7DvbSN2YKWhymqVMin3s22KNoU4iimJOTs3379oULF9rtdp/Px/O83++HwwGwPEAZXqfTqVQqqEBSqVRarRaEjGDzhU0PwjUoUBtMAlLzbZZpEEUxNTV18uTJU6ZMaYJAZKMNgMPhePXVV5ctW+Z0OuvsuW0W3oGHBDwcaOaFAnecPhX5wDiO8/l8arU6MjIyLS2tb9++ERERGRkZo0aNaj8ZodaAd9u26lf+KVbXIEFJ/Co4BzqgAaAAP7KwsPC3335LTU3dvn37okWLqqurtVqtxWKhtBxa3wMRJLrdww+UI05fQ/eftqlcg12X5/l77rnn9ttvT0xMbFSMq3Fbdk5OzuLFi1esWFFSUgLZdjiegP2EWFXjL6GJoH1R6NEMsucg5QpJf2j1NWbMmOuuu65Lly6ZmZkIIaPR2H7igK0K17o/K56e9782vAoU1IO2Z4/I555Td04N9kCCDJ/P53Q6Q0NDd+3a9eyzz5aUlNjtdmgeyfM8xA/qCPciWVUwuKFarRZ69kHusw2GTWNTXq/38ccff/LJJxvFT2ncEI1G46effsowDNSqEUI8Hg/G2GAwgHJDWzrUcAKAnDMV3kEIRUVFde/e3el0Xn311TfeeKPBYOgg2319YEIYSVI8fwUXAF9aSvz+YI8i+NDpdCDWNmTIkD///BMhdOLEiX379n3zzTd+v9/lcp0+fdrtdiOEQIqYyKRf1Gq1Xq9HCIHCTVuSTSFFwbKsz+cDnbHWMgA2m23z5s0oIOYDVwhJCaqJ2janHrj7oL0HOrFms3nChAlz5szx+/1GozE7O/syyN+2BIhyFxRcABJCSKX27trFRoSz0dHBHk77QufOnTt37nz99ddLklRVVbVly5bw8PAdO3YsWLAAIQT0cZCxAXoL7dlnNBopu7+1ARudIAgWi2XlypVut/vOO+/s3bt3Q9/e8KANtH+z2WwGgwHCLBBpgeI62PrbwO4BRwqKD6ZOnXrDDTd07949OTkZEjWt/e2XFtxr11Y9NS/Yo1DQjkEIVqs1WZkhs28zjBoV7NFcAoDtXqvV/vHHH6tXr/7zzz/Ly8uBkAInA5qSbBsflBoAyFWEhoa+9NJLkyZNauDbG7FjVldXQz8Hyuak/aBRG2a9nU7nxIkTn3jiiW7dusl3fGX3rw9Jad6r4KLAGCFGKRFpIKBGFyE0YcKECRMmIISOHTv21Vdffffddy6XC0RlQHSobWpFIQREU9BAUmr42xu9acrJsEEp6TKZTOvXr9+yZcvQoUNDQkLi4uLmzJkTGRnZ/nV4FChoh8A6nWXmzYarhgd7IJcMoJPBnj17NmzYIIpiXl5eRUUFxliv1wMjhtZwtTYwxlB3ZTAY/H5/ZGTk5MmT09PTG/4JjTAA7aGCFwWOPF6vd+PGjZABfv/99yVJ6t69+7XXXjt48OCBAwe2cSfFdgsmLDTYQ1DQvoExUqtVSZ3QJSVt0paASiPQH/3uu+8+/vjjiooKEGmg7Sp5ntdqtZBDpu3E20BzApgvhBC3211TU3PHHXf84x//aFQw5tIzALQEDooyaHf148eP5+TkEEKMRmNiYuLDDz+ckZFRVVU1ePDgttTXVqDgEoKEMBEl1C5WdjsCz/M+ny8/P7+goECtVi9evHjNmjXQshuqw2DrB39fq9UajUYoO4XCI9oBsG1GC9F/i8Xi9/s5jmtU48nGhYDqFEMHC1CgodPpQDGctpCGogSe5wsKCh555BHIUvTq1SsqKspgMMyePTslJaWddONqGxhHj1Z/+03NP1/1Hzka7LEoaH+QCKtT67KzGIM+2ENpF7DZbDk5OVu2bNmyZYvf7y8uLrbb7SATaTAYwMcHNR4UqAUDJWcwGGAY5NIRbTBm2AwxxvPmzXv44YcbG3q69BKnJNBoFxqwGI1GOG2BfBIK1AnD3RcEYffu3QghjPEPP/wgCEJCQsLVV189ZMiQgQMHYozbZ6fmFgPG6i5dNBmZ/mPHlZa/CupAYFDItOujnngi2AMJDkBpWZKkgoKC7777bvPmzaWlpTjQfxgI9RA8gM1dr9e7XC6MMZgBSkOHIITRaEQI0ebALXgCoKJDRNZfDFiX8E+LxdKzZ89+/fo1gQjTCBroww8//MsvvzT2C9ohIG1iNBoTEhJ69OjRq1cvk8k0ceLE5ojqtXM4lv1S9co/GaKUBShACCFECGIYHBMdctutoTfdFOzRtB04jnO5XHv27CksLEQI/fLLLwcPHqTbPe1Hf769+3yaca06ZpA8oH1jaEMtUIgbP378nDlzBg4cCBaosbj0TgDNByh18DxfVFSUl5e3ZMkSrVb7wQcfREVFGY3Ge+65B5p8BXuYLQmJZQW1WsPzWJJIOwjiKQguJIyJVhv/3HP6QQODPZa2QHl5+f79+yG2U1NT4/V6IV4P/wUFeIilaDQa2k6yPur/vlV3f/D0wTjp9XqqtgD9a00mU9euXe+///4hQ4Y0+Ss64gmAggrYySWsHQ4Hz/NxcXFjxowZNGhQ7969jUZjWFjYpZ48EG220ofnCkePMUosqGNDIkTXo0fYXXdq+/RmmuQ2tnNIklRcXOzz+Y4fP758+fJ9+/ZVVlaClBuEd2jbXtq8BCEEy7+N87cXBkR44IBChXYIITqdbtCgQddee+2YMWMiIiKa9RUNNwAPPfTQr7/+2pwva2+gmz7P87RnEIT2QAMWuL0WiyU9Pb1Hjx5Go3HWrFkxMTHBHnhTQERRKCuzfvaF+7ffLmcFVAUXACGEEONtt4bPmqm6vM64bre7trZ27dq1hYWFPM9v3LixuLgYAuU6nQ6a/YFYJLQIpuIFoO8Gcpaw9tuVAYCRQ+/4oqKizMzMu+66q1+/fhC4boGv6MgnAOgLBo8c6gZoQ07I89CbQ/XmDAZDZGSkxWKZPXt23759ExISjEYj7UDQ/sHl5jp/XOJYt47Y7ZfGiBW0FCRJFRNjHDvGNO16dUpKsEfTLEBgRK1WHzt27K+//lq1atX27duBgA+bO7j2CCG1Wg3kSLVaDc3JfT4fmAF5jxAUSNuSAIJ9iQghBMW9QFSJi4v79ttvIyMjW/YrgnMCILI+OzjQO562kESB4AzV4waVJci8Uz3uFhkJHQ8KHLjoP2meHcZQR/4bjggmk2nYsGH9+vVLT0+PiIjo1q1b0/rytCWIz8cdP25f/IPztxXspdDOXkEzQRCSEGI7JYZOmxYy42Z8aYqmEEK8Xu/hw4cdDsehQ4c2bdp05MgR6ElFiX+iKMLO7vP5UEAehvJn5NsO/Uz4AdoX0l2opQwAWBfQi67/7bDDAHGTClxCeZNardbpdJ07dx4+fPg111yTmJgYHh7eGl5mW58A4C7QDpHQOpg2DSay9sfgmKPAOYjyq+h9bOZIWgr0qeh0uvT09KysLL/f/3//93+NKsgOChwrfq/699vY6WDah7+joDUgYYQjIkKuvdY0YYImrUuwh9No2O32srKyJUuW5OXl2e32Y8eOgQsPipCwXcB2T1Wagz1khALnCYyx3+8XRdFkMkEKF2qVEEJgt2gwCowBx3Gw4/fv379Tp04Y49DQ0FaNLgThBAAlcxqNBu4F9anpzg6/gSILhBDP81DxC08dDGbb6E43BNR0QZwOjpxut5tl2bCwsPvvv3/YsGFmszk6Olqj0UA352AP+Qwkl8u/Z49z3Z/uHTtRbS1uN7dUQcuAYXBYWNjchy0Trwn2UBoKv98PrQb37Nmzffv2jRs3Hj58GLYL2BPMZjPHcV6vlxCi1WrBNaQn+Hay+yNZ21pwduF0AkOFa4EtIjk5OSMjw2q13nDDDePHjw8NDW1j2YK2NgCwxcONgP8CKRPKrGH3p1JK1BLQCAzd99vPk6aBIyhGg99ARgGCj/DPzMzMXr16paenZ2RkpKSkpKWlBXvg/4NYW+vasNHx3ffCiRNYkpTmkZcwIHrJMLqePUJumaUfNIi5FHRQfD7f8uXL7Xb7kSNHtm7darVaPR4Pz/NQYwXRYPCcIDAAGytwN8BThJ5csNsG+2oQCoR06MCoRAQoF8yaNeuee+4pLS3t0qVL165dgzjmIJwAwOuHEwDQmxBCGo0mJSUFY1xRUeHz+fx+P9gG2FUhe0PjaO0t4wrGTKfTUUIR7VoMMxh+Q5vUh4aGxsbGIoReeOGFwYMHB3v4/4Pz95XVr/wTcTySxHaykBQ0ApJEVComMiL6pZf0/fsFezQXQUVFRXFx8YcfflhcXOz1esvLy2GXhGWiVqs1Gk19eh5sF/ADbP0QN4eXtZ9JC3sU7GMajcZoNGZmZj7wwAOjR49GCMEGGOwxIhSUHAA8NtjlNRqNRqMBT3/48OEzZsyAVga7d+9et25dTU1NaWnp6dOni4qKoLsviC61n/gPChQH0uZwtBMQ5DYg8AcBLipjB2cglUplt9sdDkd4ePjs2bPHjh2r1+uTkpIsFovBYGgbOdlzQJJ8Bw56du50798vHDmC3W5EkHImaM8gGGGdTp2Squ/R3TBmtK5v32CP6BxwOBxVVVUcx+3bt2/Pnj1//PFHWVkZtJOCTRwWSJ0jPnXztVotRFGAHkJBY+jgUDZWDb9lAQEMYG326dOnf//+Vqt10qRJ/fr1M5vN7WTHr4PGGYBly5Y108bC11EXHh6qKIo6nW7w4MFz5swZO3as/PUul8tms5WXl9vt9hMnTrz77rsnTpxQq9Xh4eEQQYLEgFwlAyEEJ0Fo5azT6cCVAJcBZF1pDUhzruWcl4ZkQSHqlcj/RHPd9Df0JoiimJqa2r1797i4uOzs7KysrB49egSr0Q0RBL642Pbfr7zr1gucn5EkBuP2EndTgBAiBLEsUanMM24KmXodGx7GGI3tzVQ7nc5PPvnE6/UeP378yJEjtbW1NChKewhSxgdVOKCkD/CWwDDUWUoU9PeUNnIBwAtgx4DWLvSNNJMnHwa8mIagYZEihCB/CQuc4zhok2632x955JHbb7+9vLw8MTHxkigYamsDgGXCRijw8OBJX3nllbfddlsdA3BOVFRU3HXXXVar1efzVVVVQfYfuvCAgwCPBHJEPp9PkiSIw9DoPCRkmnMhLQuYeWCogLOMEGIYJiwsTKfTPfroo9dddx2cJ2BStuVRV/J4fNu225Yuc+3apUYIi2KbfbWCc4KwLNHrjAMGWKZO1Q8ehNpHRBQWlCRJp06dysnJee+990pKSvx+P2ys7SRpV8eKUN8RAjVUZB7SDBzHAT8FiEZ+vx8ceXgNwzBGozE0NHTQoEFjxowZN25c0E7tzUAjvMtWCrHJJ0cDPz8mJmb58uUIoaKiok2bN7s9nuJTpwpOnMjLzystO00I0ep0SBR9fj/LMGDnIeRCCAHiKWo30tYAuAlgohiG4ThOq9WqVCqr1SpJ0gMPPDB79my9Xj958uRx48ZpNJrOnTvHxcWFh4e3wbmSMRgMY0YbxoyW3G7u2DF/YaFr+w5++w7E8wiMQbu5jZcnYHWwLGM264YO0WZmatK66Pr0xZp2UcNRUVFx8uRJh8Oxb9++vXv37tu3r6amBhhx7Y2xDaD0E4QQbPQIIY7jwBjAAQXWINBSOI4DM6ZWq91u9/Dhw4cPH261WkeOHJmenm42my/FfZ+ircMLNABCWT209K4JcyUlJSUlJQUhVJKTs/v3322hYVK11e/jT/P8Eb/nqL22sqaa9/u1DGPQaKi1B3FXOIS2E8cEglfQQog2HfX7/X6/X6fThYaGmkwmnufXr1+/detWl8tlsVg6deoUGhrat2/ffv36DR48uGlagI0bpNGo69tX17evZdIkoaqaMZvcK/+omf8+VixBawCmplrN6PXazp2NkyYarhrOhoW1E3+/srLyhRdeQAgVFxcXFhY6nU6o1xEEAWrjKXVbvuG2B4CgJgqIQNCiYgjvQIQABuz1esFC+P3+9957b+rUqVVVVRERES2iwdBOEJz4Mt3r6Q+QPm2ysyA5nfjI0fj8vESRmDEjEMRYzK7Y2FKjyWG27Pd5t5ScsouCwDACxoJOx3Gcn+PY8+u+tj2wrFKRClcZjUZBEIA6BqvL5/NpNBq/35+fn8+y7M6dO3me1+v1ISEhI0aMuP/++yMjI0EivPWcL6zTqTslIoQsM262zLgZIeTbs9e5aBFfUSlUVxOHQ+J5RAhuN2v+ksCZ5JhOx5pMTHi4pnOq5fbZmi7BL93iOI7jOLvdbrVad+zY8dprr9lsNgixwixFCIGDTIk68FcqrNJ+Vpk8k4wQgrgx3YJg8GFhYdHR0bGxsZmZmUOHDh0zZgx9e3JyctCG3jpoXAio+d8nT//S0wDsfSCu0OTPxWoVixidJBgk3sdzoscVwrIRDMv4uSs16rsTEgWMy1l8nEg5Xt9xn6+SSD7MOFwuzuNhEGqIKaDHxiYO8oKfTNPjlOFAbxEtlqYHF8hEwUoDJduampolS5b89NNPPM/369cPyFSpqamZmZkgc93iY5ZD17ePrm8fhJBotXL5BVx1NRZFMS/PuXSZ5PG06ldfkqCmEWOCGazXaeLjNP3763r1UkVGaLp0YdpBa4q8vLzc3NyKiorjx48fPnw4JyfH7XaDcnJYWBjQbyCsSgjR6XSCIADvGSEEcopycZcWR2NDuFjWpQvOJeDyw7bDMMwdd9wxePBgv9/fv3//2NhY6DTVGiNvV2jrEwDcU9joaUIYBQqjm07wJwRL4HISCSERYYnBEkKCJCJJRAKPEVIh1AmhFIyvESTBYrLGx1QmJvxVY91VWMwzTHFlZY3DrmZZSRAQQrDhwpBgirAsC+UIECUEGdGWmtxy7gGd2XLGFP0iuRGSF0XTE5VWqz106NChQ4cEQQDpOr1e36NHj8GDB48ePToqKqpFBnw+sOHh+gHhZxoMSlLIPXcjScI6HUKo6u/Pev5c36rffmkAY6JWqxMSjFddZZ52nSouTvJ6MctijaY9hHeOHz/+2GOPIYTKyspsNhuSeSdQpEp52LCNogD9EQWcaBSYtPKZ2SKg/jsEl2iSFpYnDePQIDN9PUIIyspgyUAxgU6n8/l8P//889ChQ71eL2TdWmqolwrauik8TBTYSSHbDrMHfAd4ME0AFkTGz6slwhBEECIYEYTk844E/isRwrEYuVzhx50Jx/KHqTVSaJgtLnZzVMxBp4MXhXK7vcDpqOR5L8/zooh4Xq1SGTQaiRCv1wtFDOCDg4VA7aYsmYaPEEKgd+jxeE6cOGEymQoLCxcvXqxRa0ONIf369rllzm1xCfE6nTYhIQGCnq0yIIZhZNHS6DffoD/7jx51/fKLUF5BvF7MqpBKxZ88KZSWksslcEQYBhPCWCyazAzMsAgjxmxhzCbDiKv09dp3BEWUnxDidrsdDkdZWZnX692yZct7773ndDp1Op3ZbMYyody2H9v5QIXCaGsUmL3gilGCKUT5wa+HSBSIxMXGxiYkJCQmJqampg4ZMmTAgAH0k9sghUZRW1tbWFhIQ77wS1EU9Xp9p06d9Hq9ug0lGtva4sHjgfMjPC1Ks92/f7/Vaq2urp45c2ajE+sMQ1SsiDHBGCOCz9796wBcZQFjByEOkUM1FYy1YhijHqlSSyrWoTNYzRabRlMtCHvdnt1ej0OrrnU6eLtDq9VKoggc0zpM/+bckxYBDhTFgPq5z+cDWwUJAyirZhim1mVfs2Hjlp1/+Xz+mNjo4VcNU2tUWZkZAwcOjI+LDwkNaZvRart21XbtKv+NcPo0X3ySSBLhOcwwiCDfzp2ebdvE0+VEEokkISJ7poSciaL879Zj+ufGGpALPTxq2+H/DCa4bjUEYzaH3nO3JjNDcjgRQohISKXCer3kcLIR4bpevdpbbnz//v0HDx4sKCgoKiqC/3q9Xo1GYzAYYOuRRyPbD1uaHjtwoE0KOvtADEJh0NwJloDP5zMajc8++2y/fv04jktJSQkPD297vV7IoBw4cGDdunXh4eHbtm3buXMnmBw4owDLKCwsrGvXrklJSX369JkyZUpISFssxiAUgtEjpFqtBuk0qAOA8xfP88DfHzZs2IMPPpiQkBAdHS3P25wTp/7atf/Tz4xHj6UIgplIXp6Hw2fTx4kQYjDS6SSzmQsPO4rQZpezDOG8khJrZZVKpUIYiZKEzqaxBhfUFZI7bvBLMKgczyOWIZjx+XxajUbFsB63R6dWqVUsz/FGo/GK7j0HDxk04dprMzIz4FjdHmxbHUgej3fzFr6oSKyq8ufnc5VVAueHamyEGYwhCogwwtQUwE+BQyEmCCGMEIbTm0QQHBsD/8XozKaHMWIwo9booiO1yUlMWJiudx/DqJHtbUO/MICQgzFev379U089xTCMw+EADxrYxgaDAfQWUcCNoML6JCDV1a4Au4FarfZ4POA4QwAZVqJGo9Hr9RqNZuHChcFS5IXYgM1mW7NmzerVqzds2ABeIwrom1FyEUIIKlUJIeCowW86deq0YMGCLq1PAWhrA4Dqaf1DTR0c0yCQRytKXC4XxjglJWXQoEHQvd1isSQlJdW34SXbtu//7HNTbm6yIJgIab4BQAHH8ExkXaVShVrYmFiX13fM6cwNCztYU51bXu4jpMbj8XB+FiGMECSTm/OlzRpwgL8MSTlqCf5XdscwhMEEIwlJRCQqzGo1ar/XRwTRoNcTggSeF3hBIpLRZMromjVpypSU5KTwiIgrevXStL+NQME5IYqizWYrr6jIz8/HGP+5bt0333zjdrtNJlNISAisNdgo5aESmCd0J4UEL2VMthOAv0yFgT0eD8Y4NDS0c+fOKSkp6enpMTExffv27Xr24bLNUFpaeuDAAbfb/fvvv+/du7empgbcWa1WC0OlWtD0QmirAJovgddYrdZXX3315ptvDgsLay9y0C1lAGA/otOLxqxpdA9+oIXg4JJAly6DwZCamhoVFZWamvrYY49ptVr4zLKjR3e//IrlRFESISZCfEILGAA5MEKYEPAMGa1WExLmZ5hqBldoNWVGU57Pe/R0qQuhKperorYWI6TCmDkXa4jUawrR4qBZOBJorgCexRnCBiYEE1EQVQzLYCwIgkalZhmVIIq8ICIIqjKMn+c4gdeodZjBIRZTdrdueq2uW1bWqFGjUlKSWzuTrKAJEEVx48ZNO/bszjl6pLyqqqKszF5VJfACnK3pagKvEzZ68A/AaYAFCJ0RKZOHZrnaBtRZoUtGvoLoz06nk+O4+Pj4119/vWvXrlqtNiwsTK/X63S6NhsqwOfz1dbWbtiwYfny5WazOTc3t6ioCJITOCARhhACNxeOWeDsy7PowJSlQW/YEuHgNXbs2H//+9+t2o08CAagRQCC2hjjAQMGPPnMM6Feb/F//xtSWJQigQEQWtYAyEEQkUQREaLCjJZl9WoNq9H6tRqHwbCfxXs4v0MQ8mpqCmw2RqUSBIHz+ym1X6fTQbyP6ptS0idCCHwx6hRA6AacBdRUNsXF2HIwAc56DUFUXR0jdOavGJ3pTK1Wq7OzswcOHDh69Og+ffpwHGc2m9thoOAyBuySbrfb7/ebTKYlS5Y888wzKpXKx/kxxphhJElizoTD2hcoP4dyQEDBDSGkUqk8Hg/LsgaDAdYItVKEEK1Wm56eHh0drVKp3njjjfDw8LYfvCRJUO9WXFy8ZcuWDRs2bNu2zWazGY1G6PcCyxn0JMjZbWLPySCnr6d/osWq8Jbx48e/+eabigE4ByA9BQk5N8clq9hRRsMIo6m7RmeQiJ8XRERaNVYLH00IIURCCDGYYRDSa7Uand7Nc6fDw6sjImxez9Hq6j222hOSVGW3E59Pw7IqhkEYkwDFQl4RLZemkp+QSECXqj1AHibWaDTR0dFjx45NTU2NjIwcM2ZM23thHQccx1mt1vz8/AMHDmi12jVr1vzxxx+gQ24wGOq47e0nNYUQoqkpUC4BXjXEvn0+H90cgV/n8Xj8fj/LstHR0VdccUW3bt26detmsViGDh2q1+vbfvCEkIMHD+7cudPtdq9bty43N9fn88EWL29XQDlIYAAaQqAigfaIKCAzR9N1fr+/c+fON99885w5c1qVoXRJGgBKz4e57hOlRL12mMU8XK3thRiLKHGESAiRYIwUgzEnSJQkUeDZUAub0InEJ5Q7HTtLS/Z4vRVqVZXLVXryJIOQCrwhUUQBYgMNEEFuHBwijDFUpbeHm08CotZAOiIBQVaVSpWYmKjVajMyMqZNm5aZmZmYmBjswV4O8Hg8a9eu3bZt2549e8rKyoDfJfcMQJ7M4/FAaS6lwbRl9ObCIIF6T6qzplKp3G43z/Mmk4nWD3s8HkEQ+vTp89JLL6WkpERERLABtPGAnU5nTU3N4sWLFy9ebLFYKisrwfenJxKwZDSCLa9haviOChUMwIDX6XRwBoK38zw/f/78G2+8sXWu73+49AwA9UCBRIQx9nKcWaW6wmAYr9UOwThCIm6CpGCPE2GEET7TAFMUkUqlMZl0YWFsaKiD5wurqw8Y9Ac87uMlJW6M3YLg8fkwIYgQBiGGZWmCSB7TD/IVIYQC9x90tuH8TstwwHHDGDscDoZhkpKSevXqNWrUqIEDBxJCUlNTlUjRhQHnv/LycrfbHRIS8sUXX3z00Ue0qlar1dJgID0vQvie8rVgtkCgGXzSIF8SQgghiOdABgKcXAh8A/d0zJgx0B/poYceauOGiACO4yoqKrxeb25u7q5duzZs2JCTk8PzvNls1uv1cM/haEUCItJgZXFAQ4KaN7nK0EWrROGeyGtLBUHQ6/XXXXfdPffck5yc3Abr5dIzAChwx6n+s8SyEQzbR60erdP2V6nDEfYGcurBHmkAkPslBOJWiGFYhtFHRPhUbKnXW2mxFKpVx12uoqqqAoejlucJxzEIadRqFcP4vF6JEKPRCGavPdx/cIWgE7der5efA2BVgGoFvAYWjMlkuvHGGxMTE30+30033RQRERHsi2hHcLvdpaWle/fuPXDggE6n27Zt2759+6CQGwgRsFPQIxdVBJFk7VMAcLfloeR2AtgfXS6XWq3u1KlTnz59QMdQp9N169YtKBFOURTXrFmzdetWh8Nx6NCh4uJi6NNL4zCUn0ITchDbQQEqI7yGStrI2agN2VeBbSUIApBxMzIypk+fPnLkyNDQUKPR2DYHuEvSAMD9BYoLwtjp9UarVENM5qu0uj6sKpwQThIlhEg7GOr5gCF1gBCDsVajUavUPoyqvb7arIyK2Jjd+fmHT50qdzpdksRxHJIkzLJAHwvusCmAIS5JEhxg6byn/hFN8aGA90QV7qB5U0ZGxu23356dnZ2RkXHOFNllDHBcKioqlixZsnHjxkOHDtGzP91fIM4DkxwCgODXY1mHcZorovQ52P2prGyQrxMhhBDDMKBpOHDgwKeeeio+Pr5Vs5rnBN0xampqqqqqFixY8MMPPwCHELZg4MjB/QTvngoZUU4O/J5SM4hMw4by2ulMvvBkBl6QTqcbMGDAqFGjhg0b1qlTp7a4EfUQZO0LyvqiFlUQBDjVQmQT7i89TMFrKKENeoeyDMOwKhFjASPpEmlaJWe6+fx+r9/PIBSFcFLBCaakdAQhzvjEaoulAqPTHk9urTXfbi/j+WqPx+vxaLVaJEmCIOgCM7jOPaRF/NSJgB+gV2WL7AsQa6a7Ep339JhCc5J0APC9wHsTBGHfvn07duyQJCkyMrJHjx6DBg0aMGCAXq+H4G/zR9jeIAjC8ePH7Xa7wWD48MMPf//9dzldhG4rNHlIKZi0f6wUKDxEsqAzJYnB21t264cpBEdtaualQP8sUABlAjIMoAYKRQZqtTo5OfmWW24BVdpp06YFRWbH5XIVFhbW1tYeOXIkLy9v+/bteXl5UDtG2UcIITkPR14QJ/8rCnQBo08HjmVwJqCFFChw8+EQBqkyYP3xPJ+enj5lyhSe5zMzMwcPHmw2mymRPVgIwlMBN5AKdLAsC1v5oEGDxo8fP27cOJ7nN23a9OKLL9psNp1OZzKZiKx/G1QwggllWVYiROJ5QeAFUSBEgxFuvBZAMAHHFBg0h5Df50NeL4OxzmZPIiRZpRLU7Di9nkvs5AsPK0TSrurqPdXW3OpqTpI4jtdqNFqt1ufz0ZQg3BwIGQGdDrZjyNy2YCJBzs6u88tzX6nslbCQQH5LEIQdO3Zs27ZNo9HodLouXbpAq4NHH330Ui84sNvtpaWlwBckhBQWFoLwDuSuqC4WxMoggyIXY6AIVvoHrAtsfNRThr51VI4NJh5CyOPxdO7c+eqrrx48eHCvXr0wxjExMUE51XEc980332zevBn6yNpsNtijwZTSflDnezu1rHSGy+naYIZhQ+d5XqPRAD36TEAioEgBdpHn+ejo6KuuumrGjBlJSUnQy7b9JOdRG4eAMMbghAJZEG4lWEiDwTB8+PBZs2aNGjVK/paTJ0++8sorHMfl5eWVlZXRmwvvhWeg1utjdLor1OrhGk0/VhVJECe29xDQxQGqBQgjQoAlKiGM1Cq1XmdJ6lSD8d6KysOisLO2tthuZ1hWRIgXJVEUcEBHGiY9bPpAV4CTU7Av7CxIAYAxgGwneJ0ej0etVnfp0mXmzJlXXHFFeno6EAfbZ3NtgMPhYFn26NGjv/32286dO48cOeJ2u0GcgGEYqFyhSogIIVBRhv0UWmhBw+p28phoWA8FBBgQQlJAjdxsNnfu3BliO3feeWdUVFTbd0qBgAHP86dPn66urn7nnXf+/PNP6u6AoaW+Jl0LF/5MykpCCAGtUwqIP9JHAxFOcPzhYyHdZTabw8PDjUbjwIEDhwwZ0r9//3Z+nG3TlpCEENj6KVMN4sUQO6MJFjmSkpIWLFiAECopKTl16lRZWdnx48cPHjy4fft2l8sF5cF+QfD5fALGklqDEMaX1AngvCDwH9AgY0DOmhEl5HDbjxzDktRPpRoZFTknpXOBIBTxfIEk5fv9xfbaaqcTSs9osBjCBXQltx95LzggI4T0ej3P85CCowkD2DSLi4tfeeUVSZLMZnPXrl179eqVnZ1tNBpHjhzZlgqOFwDHcdu2bbPb7SzLfvHFF3/99RcJ1HszDGM2m+EohgNdEiFaAtdOw81AiySEGAyG9pPtp9FtGqrSaDQ9e/a899574bg2dOjQYOVvN23aVFhYWFBQUFpaevjw4VOnTnEcZzKZTCYT+BNw2xmGgdvu9XrBfbzoh8PmTsNuENSCp0kCRbwQ+/L5fA6HQ61WT5gw4cYbb/R6vWlpaVlZWW2s6NkctHUIiFJ32ADTEeiDQOq/wBsTExOBVw7Lw+v1+v3+ffv2Pf3002UVFZIksWfc23aTJ21pEIREjBCLEUIMy2JCXOUVKknKYHA8q4pj1FldOkfeMC3fYV+3d2/+0aMejwchBPFZmlMhZxcoBhcejwdCCjQYggJa7WASgHANzHeO4/766699+/YZDAafz9e5c+f09HSVSjV37ty0tLQ29pqrq6sLCwt//fXX3bt3syx74sQJu90OGwRsHD6fDy4HhDYhUwLWjoaS4QfqaUJUAaph2YDUfhAh3/r79u07bty4ESNG9OrVy+v16nS6oNin2trat95668CBAy6X6/Tp0+AogIOvVquBQgpRGr/fDwcvr9cL86dRx1/Y7uFwBpYbKEA01CMIQnh4+EMPPTRjxgz4JxRhtObVtwoaEQKaO3fusmXLWuArA71DKWcWIcSy7JAhQ2bPni1vwNZwVJWWzr/1tiy3q5eEItFlEQJqAAjGOowZjB2E5IliocWi7971iltu7TNoEELoyJEje/fu3b17d3V1dXFx8YkTJ2hQSB6+l/MWKFmCJufPfFEgzcucLcPbTDABSW2w/XBmp8uMnsRhu4FfyhPOEEYHxzk+Pv7mm2/u379/YmJiRESE2WxuQdVfSZLKysp4nj906NCGDRt27dqVl5cHda2widMaTsq/ZM5ujQLXSE9g8nwvjSzL7+1Fb2+dp4bO1vw4J6uqztOkJlOeeYYIbXJy8rBhw1wuV9++fadMmWKxWIIis+NyuYC0U15e/s477xw8eBBjbDQaYT6AwhXcNHpj5VEaOqnorEaynuR1JpJ8hssrb6gQWVRUVJcuXcLDwwcNGtSrV6+uXbsGpWShxRGEJLDc68GBOohmnphEj7fvwEHs7t3IbkPS5XoGqIszc5YgRpJYzs/U1oiVlbzPhxDieb5r167dunWbNWuWz+errq6GzjBbtmx59dVX3W63Wq02mUwQ34Q4JjAR9Xo9/Aaic3AWpnXXcFyjvJRmIlCtgSlBSM5TomdtefUTOnsjY1kWZNPdbvf777+PEAoJCYmMjMzIyOjWrZtare7du3dmZmZkZGRjB+x0OtesWZOXl6fVar1e7++//37q1Cmq0UTJG3V2eTo8epytc41IVtMnrx2V70EXBXwaCZBBUb0m20yg17mcsAhrjUqPwSuh369arTYajePGjXvggQcgJJWRkRGs/O3SpUtzc3NPnDhRVVV1/PhxOCZKkhQaGooD1Ht0NtOJ3m1wGkigWB3qbOFnJIs8S2ersNB/wudrNBqXy1VVVaXX6//v//7v5ptvttvtCQkJ8fHxcBRo+9vSegiOAThD32RZeVVFc07xos+nOrOisISky9zzlwHanyEGMSoGM1gQOFalQoFzFUIIYwydhoBo3Ldv37lz5yKEcnNzn3jiCbvdXlFRAdoser0eB9hvJCAILIqi2+2GrR8UDdtJgIKCjgSKNl0ul9/vr6io2LRpE5gTi8USGRlpNBohJhAbG5uUlBQdHW2xWARBgKJ/u93ucrmgCaIoij6fr7Ky0uFwQIQKIQRB/HYSPZMCSmpyvQeaO0EI0bwC3f4kSYL0ssFggJdB9HXs2LFjx44dNmxYTExMUK4Fsh3l5eVPP/30oUOHamtrgVpTp7KhgdsukRVII4Tg8cEnQPMD4BfQgD4tYieEQMIgJibGbDY/9dRT48ePvxRDOo1FWxsAMLb0UA962TQK1OSWkFqtJjzUgowGrd2OJYlcHnnghoEgJCIkEMJLkuDnXE4nCnDRLvCujIyMX3/9FSHkcrk2b94MSra5ubn79++HXQNWC2wlsAnWIUK0E4C3C/QhEFTx+/2w2cFpxuFwuN1uVE9bmLrPlI9ADyLgksMslWSirUG90P8B8gcwMBgbmAE4ydETADXhLpcLDHyfPn3Gjx9vtVr79u07dOhQg8HQ9pQql8sFkna1tbVlZWWffPJJcXExxthisWg0GhxoagTxQNjHYYNuiM8BniX4/mAd5Q29aZEEnITgM9PS0nr27BkaGjpgwIDMzMzU1NTWLlmoqanZvXu3IAhJSUlhYWE1NTUlJSVerzcuLi47OxvO5a06ADna2gBASA6a60JmkpLMNm7cWFVVZbfbb7jhhsaes/xut/30ab3dzkCRgdRRwkBnREkxK6g1foHz2exUnaqBn2Ayma6++uqrr74aMpAVFRUsy+7Zs+epp54qKyvT6XQhISGUoAWsZ8oIbA+AQ4nFYoF9H3ZACBy5XC5Qm4E8YZ1TJhMAvJhKEMtfBvRZmKjgYgf1Wv8HGrgjAcovjQvB7gbXq9FoIiMjb7zxxlmzZhFCTCZTZGRkUAbsdrs//PDDgoKCkydPWq3Wqqoqf4CrBj1PMMYgLkIV88EwQ7IQfgnnngt8C9UopBVYQMjx+XxOp9NgMAiCUFtbq9PpnnrqqcmTJ/M8HxsbC3rmrTelYUh79+795JNPwsPDjx49euTIERzIsSOEYGCEkMzMzC5duvTt23f69OltUy/d1klgGv2ELR6quhBCwNIVRdHj8bhcLovFMmPGjEceecRisUBZ04WT+Cd37Diw4DNjbm6KIJgl4uV5CbcnLaDWgYSQFmMGIzdBJwQxj+PsGA/858ujp04hLSQFU1FR8c9//rOsrOz06dMul8vpdF50EbY95Clr2DvUajVs2bD1A0MD9hT5/k6rEMAM0BfI65lhDwLT0rKVdM1BncuhFCOLxRIVFaVWq0FgoHfv3m3fAheSfCCUX1hY+NBDD8Gx0mw2w/3EgVIVFKjqh80awsLwNMH00oLnBh49aVqYJhqBAxoaGpqSkqLRaJ5++unevXu39h2AXpVWq7W4uHjdunWffvopNNKAOUmfFw3iwezS6/Ucx3k8Hr1en5GR8f7772dmZrb2UNv6BMAEOk3TdJ/RaKTPG2KUUPr7448/fv311yzLZmZmjh071mw2Z2VldevWLTIysn69CSYEqxiMCcJnFJkvrXrgpiHQkwAxhCCRI5xHEIgF/tRCe3RMTMx7772HEKqqqiopKSkqKiosLDx+/PjatWurq6tVKpXFYqF7aJ1MJhW0kSRJTsag679FBknZGnQrhAkG7iQ9DdTZuOVfDVsMeM102BAooIX+er2+4UnaCwAGKZ7d4Qd+SR35Oi9GZ/dRoYMkhHg8Ho7j9Hr9Nddcc8MNN9hstm7dumVkZEAorJlDbSysVmtFRcVff/3l8XgKCwt//PHHmpoaqI2i/c2pxZICQhd0JgAlxOfzcRwHCRtasVXH1MlT6HRSweeAbpLf79dqtcOHD+/du3d0dHT37t07deoUFxfX2o7LyZMnN2zY4HA49uzZc+TIkfLyciD16nS6Og2gaMKZ/pOeb6A28NChQ8uWLZsxY0ZCQkKrpp3bepbUf35UfAMFzgf0eAur7tSpU9988w3E7HQ6XWxsLPBbpkyZkpKSAh+rj4sTfT5RlAiBtt4dAiTQ6JxgRBiM1Co1kjRNzaNcGFFRUVFRUb1794ZtEcQnjh079sADD5w+fZoJdKBEgUg0nNwZhtHpdIQQp9NJdQ68Xi/LsiAj2nwzIOfhkHPRH8/5y3OCrrQ6LJ0WjPxQxQ4ogoEqVti5qP9LX8wEevbC2GhJB5yVQ0ND33zzzeuvv14MNJtrqUE2Clu3bl21atXhw4fz8/OBXQbUe4xxXFwc1D/LL0rOSoLfUIcd0jCQepFfONwZv98PnGA4n9GHgmWKygzDvPfeeyNHjoQSPDag1NZK1w6lfGvWrHnjjTcsFktpaWlNTQ0hhFIwgCp6TqNFLxwCVvRIR/2PDz/8sLCw8PXXX2/VWFCQxeDOCfB0JJn+FCUziKJYVFRUUFCwYsWKN998EyHUv3//Z/7xD53T6fV4jURiMIMx6VBJYIQQQQhWgwoTjuda9bugHBSSh4MHD963bx9CyG63z58/32q1QsH26dOnIY8HJCKMMfRygkVrNBrBQ2/Vxdk+wQYk4Gn3XZ1OB7Odhj7qFGzDLhYbG5uamhoSEgJKO926dWv7/C0Y8sLCwoiIiAMHDjz77LM2mw2O8kCNxRhD4xTIZHo8HlC5uOiDhvIU4OeAxBAKVNsKgkDFUDUaDfjUcA+jo6OhPtRgMDz44IOpqamtevmiKNpsNpfLVVpaWl5evnr16iVLlvj9fujIRi+ERrcuCkrhBW4SCIBDDhzsPTRwblW0RwOAzj4Uw2/ozaJBQ5gHu/fsmXDNNV00mjFm85VaPaPW/M8x7gDABGGMCUYMZhnECEj89IfF1TExwwcN0ul0bcZZDgkJefbZZxFCDoejurq6trY2JycnJydnxYoVJSUl4I7RmC8VSmwn8fS2hNzLg7OUPO2MA/LOLpfL5XLp9frbb7/9+uuvd7lcWVlZMTExUJPRxmMuLy8vKChYuXIlz/MnT57ctm0bDdhqNBoIbnAcR700GtFFgdyeFNBJPh9IoJgOfpBLyTIBLQfIP1kslgkTJvTt2zctLS0xMTEyMrINxHb279+/cuVKl8uVk5Nz4sQJh8MB5xUIVUFiAwUoA1hWmHbhj6XJD71eD3lgyuzy+Xypqak9evRo7VBeECqBLwoqXYBkclTSmc5aIoQLoSIJJg2HcQrLjtDorjIZu6u1eknqUElgFmOPhE74+XyOq8biGs53WBAsKhVC6IYbbrj++us7d+4cExPTUmnhxoLjuNLS0nnz5hUVFQmCUFlZiQKCYuDidTQzQHd5MaAiCX4uqEckJibqdLrnn39+xIgRwR3nb7/9tnLlyp07d1ZXV4NXy5zdzB3S4yRAFIaqK3isKlmDYiKrOr4A6FewLAunQzAtGGOz2RwaGvrcc8/169fPYrG0qlsDowVx1sWLF//rX/+iVw2JXEIIMAtoZB/ieBCFA18eNYyGxwSkluAt1CXSarXR0dHPPffc1Vdf3XpXCmiPBgD4GHBP62d+mLPbX0iEuPz+FJYdYzQNMxiz1RpDhzEABGM1IViS/BiX89JxH5fPc5uwUKhizSoVMAogEJ+WljZo0KDevXsnJSXFx8d36dIlKMbA6/V+//33tbW1J0+ePH78eFFRkc1mQ4HDfkewBDhQywp7JWirZWdnh4SEDBw4MD09PTU1tY19fNh5q6qq9u/fn5iYuHnz5jfffJPSNGhLHwhtU5YOQAo0oAceC2Vb1XH5LzrZ4AWQDtHpdElJSWlpaenp6UajccaMGa1NXYXKwcrKyuPHj9fW1kKbMOCeQsk3DTohWScGcGLA/oEJR/WEJS6MOnQJURRra2ujoqKuu+66G264oUePHm0gd9jWISB53oPWZMOfaIU3KNpDTBBeBgEyRia3AufKMy6DSoUxBk3RAAuojS8rOMAIEUkikkRYVsOQcDWOY1VaH+/2emHKarVaOEidOnXq5MmTP/30E8/z8fHxw4cPV6lUPXr0uPrqq9uyK4Ver58zZw5CCHjZPM8fPnz46NGjy5cv37VrlyiKERERsBLkPmOdJidwxJYzNXGgLweRNWyi06OlTIuccILO1uEBXxg2dHCKIcUNk5bmctVqtcvlcrvdBoPhpZdeuuaaa7xeb3x8PETM29gkS5J08uTJnJycZcuWOZ3OkpKSkpISn88Hx2tJkqAsqw7Npk5Yg94NqLkDTxYOATqdDuQIQZiTnC13AU8T7qHdbvf5fBEREffdd1+/fv3S09PNZrPJZGrt7Y8QsmrVqiVLltjt9urq6pKSEqAqYIyNRqP82lHgNANbFsSf4YlT34VG9lBA0BDmIQ4QjuWcLhSgwguBpvCgqv3OO+/ExsaKotgeW0K2rBgc5dhRXjCS3Rr4E+1qAolHetPJ2ZKWHCFxDDNEoxltMl+h1Zol4uH59tUTuJWAsUoUkSj61OpyUTjB+U+Kwmq/P0eUTOeaPeDE4UBXBkmSvF4vIWTcuHE33HBDRkZGRkaGJElBETwhhNTU1Lz77rvHjh3jOO7YsWOwfVCrDx4ZDZuiQF89KPWE4Dg5uyqKruEWMQCMrOsTjIEJ9ACh5Bzaop2WYoEHExMTk5qaSgh5/vnn24DcfU74/X6PxyNJ0tKlS3///ff9+/dTDhJsNyD3BJX5cFdRA5qL0Vg/pahSlVNaWc0GpDSBnwqLOi0tLSoqShTFV199NT09vVX1k2G38fv9EL5///33FyxYIEkSrYWmVQhyUuKFwQQEoOiEhEkoBdqcoECFF0iTUuMBVdlhYWFms7lHjx79+vUbOXIkSB23PYJwAsAYA6cTkkhwx8EDguUNQv9QwIkDwtw8z0NkkHID6GcShFQI6TCjRphBuENRgAghiBAJIa8k1YhChST4GawmLMbnEOzEgS5UNLZmMBhYlt22bduff/4J+1S3bt0yMzM7d+7cuXPnQYMGtZklwBhHRka+/PLLCCGe5zdv3gwCdnv37j18+HBVVRUOtFIB1Qc5oxSq/CEhhAO6CCRAKaaU82aCWhfY0ai4PwmI+IOn4vP5IFh8zTXXXHHFFWFhYenp6RB5a/4YGjtgYM2tX78+NjZ2zZo1y5Yto8kz2O9gz5LrHpOAdD7VVLjwt8B2D1UXsDblmmtAYQIpjtDQ0OTk5F69el1xxRUsy06ePLm1fXyXy1VcXFxUVHTkyJGKioodO3bk5eVBXCEsLAwKRGCnhikEzvhFPxZmAlh6KmsGJz+qcAy/gR0MY1xbWysIQo8ePaZNm2Y2mzMyMjIzM0NDQ4MuKdrWBgBuEPUXRFEEDS9BEEaNGjVlypTRo0e73e6NGzf+4x//oDUv8GDggVGZJ/nHEoQkQiTU4QigCGOEMcaIYTBhMCcikSB8HrlmML0QqYB5CTsjsPUlSbJarTt37tyxYwc4Kd27d2cYpkePHnPmzImIiGizyQqFrCjQzEClUuXn5584ceLzzz/fsGGD2WyWE4VpQghOABAtRAixAQ3IlgLMRsppoRFLURSdTqff7wdNzc8++2zIkCGSJFksFhhVC46hIfD7/bm5uZs2bfruu++AlwkKaxCg4DgOPCrw8cGjouELyrmga+2i4we7C/xFuZQ3Qsjn8/l8vvT09GeffbZnz57du3eHM2hrN0sRRfGTTz759ddf3W630+l0uVywaeBAuRk9iIgBHW/UmEbKOCBoD6YUBwq72IBEK7gCVJfihhtuePbZZ8HaQaI4KBm4c6KtQ0A0B0CNJPhuer1+6tSpM2bMGDBggPz1xcXFH330EcY4JycnPz8f7jg6e4PzE9KJYYZptCNMpp5arRGkIFDHCQFJbo2qUOAP+D3HBHE/L5ZLRHOuS4fcCb3tEKCQAgWK4F9Dx1qEEKxkMAzAAxkwYMDUqVPT0tKys7P1er3FYglKS2tBEBYvXrxp0yaGYRwOB/SEYlnW6/VCBAPWGMQ32IAWZotEgcC6gGtssViGDBkSFhaGEEpOTp41a5bFYmn+VzQBdru9vLzc6XSuXbt2/fr1hw8fBuVLnU7n8/mIrLYIIQSOKpYpidKbQ2T6BOD7iw0QfQJP3+12g4vGMMyYMWNiY2MRQvfffz/UgrXetfM87/f7gXnsdrvffvvt1atXE0LCwsKopGidbA0kmSitHAWyO5Sa1ZDvBcOPAnLltIw8JCQETntdu3bNzs4eMmRIeHh4611+8xEcLSB6+8BmwqKaNGnSrFmzBg0adM43VgeQl5e3d+/e33//vaamRq1WG4xGvyQlYma4VhcwAFIHMQAEY40oEkJcGnU+EQ/6vCe8/v2CUErI+WqEaJYFJj2NBaGAhwvONV0zNJBNAm3Bobg/MTExPT09OTm5c+fO119/fdsLD6BAu76ysrKCggKtVhsaGlpZWblo0aK9e/dWVVVBDoAKA8DeRDcjch5SLLhs4NxhjMGLhzvTr1+/mTNn9u7du6amxuFwQLgsWBcuiuK+ffv++OOPuLi49evXb926FeJ7JCC2IaejyNPmKNB5DWj7QG6hr6S/gQfNBgTb6wMH9DYIIeHh4dnZ2SNGjOjfvz/GuE+fPq1dpAatAg4dOnTw4EG73Q66C1KgszSlJ6GAPiicfeUyRPACCEGDADU6u6MDOrvrjvyfKJDU5TgO6pyvvvrqmTNnarXapKQkUJdrz52r5QjCCQDJ/HeaUlOpVOPHj7/11luHDRvWkM+BSOX+/fvnzZvn8PtDXO4+HDfCZO5QBuDMCUCSPGp1MSFHOf6k37eV8xeIgv5syZ06ND7oUwjKyTRfKt/xL/a1Z7I1YBuA/zd48OAnnngCZn/bXH1D4PV6PR7P4cOHN27cePDgwYqKCsjI0QgATRUA8bxr166DBg3Kzs7OysqCZHjbx3DqAzZxm8127Nix1atXf/vtt7DzXuBJUWahdHbHmPr/pOx7eXKOXjWdGJSwB1EjhFCPHj1mz56dnZ3dpUuXtrkDdrv9lVdeWblyJbSPBpoAJGAg7nfRhwWXA6F5MAwkoDxKWfnUH6KWUgzIU8OpSKVSRURE+P3+O++888EHHwzKObilEIR+APRnGjujD6PhnwMJzCFDhmzcuBEhVFZQsOiW21ielzoAl7wuCGIIIn4f9noMhNEyrCjyLpdLp9PBXaWuHHjxYAmkQLdFKaCN3nAmIuwaoNALpfl+v3/lypU//fSTKIrJycnXXHNNWlpat27doqKioPVKa9+D80Gv1+v1+quuuuqqq64K1hiajFOnTgEzfePGjXv37j116hQE6GDHufDDgj0Ry4DqnXuwLGEuBlrEgFHUarWgvaNSqRwOhyiK8fHxt912W1RUlEajue666ywWS6sGsr1er8vlOnHihM1mq6mp+fDDD3NyciA1pdfrgWcFRosqSjVkPHDQoQxXaEkCOQwUoG8ClctgMNDGEmq1Oi4uLisrKykpKTs7Oz09HaKgrXf5bYZGGAB6nGzO99Gwo/wD4eRFmWdNAHG5Mnv20B45QvgmfsIlijPmDhOkYdVEE8aoZ8yc+emN07Vq9dKlSz/44AOIZiCEqJox5E4hagk/Y4yBuwIO70UPhTjQMJKqgdKeYgihqqqqb7/9FpZNaGhoUlJSYmJiVFTUY4891gaFLZc04GGtWrVq5cqV0dHRO3fuPHHiBGVFg9ODAvGHi36afH+ngX6570/9ZVo8AUQ7hFB1dbVGo7FYLFlZWf/5z3+io6MrKipSUlJaO+RVVFS0Z8+evXv3HjlypKam5uTJk5Dh9/l8RqORtu4C/wPmM7jk9Jh74RsCxz64CrBzJpOJ53m73Q5ZE47jIHcCEia33nrrjTfeaDQak5OTjUYj2J5WvQNtjEY8zgba2AZCPh0hYw4ttpv2aRLHwce11PAuIRBMCEKSSARB9BEhJsSSmpzMMMzcuXPnzp0rCMIvv/yycePG3Nzcmpoaj8fj9XqtVqtOp9Pr9X6/3+v1qlQqo9EI3hBqsJQ0LCcoNmZZFjpK0pQyQkgQhOrq6rKyMvC55s+fz7Js7969//GPfyQnJ+v1eiBjBCWM3h4gBSThCgsL8/Pzf/nll6VLl6pUKoPBACaZOu+0tA18/4YkKpmzhSdRICgkDwSByQdiKOywPXr0QAhlZ2dff/31Xbp0iYuLox/YGpE9URRtNltYWJjdbr/77rt37doFzgptAWYymYBZS8UEWZaFHiGQ/hUDne+kQJ/LC3wdJDnA/YfQv8/n83g8GGOz2Qz2NS0tzefzPfzww9ddd12rHnHaCdr6BACoY0uoh9IiVI0OBYkgRDCDMcsyrIplRQL7Kb29KpVq2rRp06ZNg0Lz4uLi/fv36/X6jRs3LlmyhOM4qIXx+/00DNqQ76UvA+MNwSUaX5bnFUGTDhwrhmGOHDkC3VYTEhIGDhyYkpKSlZWVlpaWlJQUrGZVbQxCyJEjR/bt21daWnro0KGjR4+ePn0a8pAWi4USTIGSD28Bkj7EoGka/6JfhM9WGEaBXRL+CilQr9cbEhLy6quvQjXy8OHDWzuy4XQ6rVbrtm3bfD6fzWb77LPPoCVkSEgIJJOoRw/8WhBMpdkaaCEFP2s0GvgTyIUCje3C3w5hH0IIVL3p9XpoCZmVlZWSktKpU6euXbt2KI8kyDkA3GDdjIsBI4xIu+nY10YgBJpKIIIkCSGC1PiM1lj917IsGxkZGRkZ2bdvX0LIDTfc8Oqrr2o0mqVLl86bNy8kJAT4DDRbcLFvPpM7hXM05Y0wgYY/JKDKIAYkz2isLywsjBBit9tXr14NEW1JkkwmU2pqalpa2vTp0/v169cKNyuYgGTJokWLvv/+e71ef/LkSYfDQQLiz0BSqpNrBX8WNj6olYH6MnR+mUk5TeWcgA/R6XRxcXHdunW74447Bg0a5Ha7WzugjxDav3//2rVrt2zZUlJSIklSbW0tFPdA00pIV1DCEp1CsL8DYUlOXaPTDJLh0ELgnJNW/ns4TICA85NPPjlp0iSz2QzqI43NQV42CEJHMBSYqXS600Nuk+NrnMBzHG/BiMWESBLuGHLQEkIqlmEQEjDGDCIsw0tE04DGIBhjjUYDOrq33XbbbbfdhhBavXr1tm3bysvLKyoqTp06VVlZCedriEHX4VBCNZlarYZzNJysaXkBkhV8IJm7Kn/6YBsgBQ2lBlVVVXv37v3hhx94ng8NDX355Zezs7MFQYiNjTUajZcQ14LjOLvdDgVZJ06c+O233zZv3gzFLnXYgXLdY7p9w6KA/Q5WByUs0YUDbF05cRMCRODbYhnDh+O4iIiI3r17syzbq1evUaNGpaSkyMnptF1XC8Lv9+fn5ycmJp48efKOO+6orKyE6CIYMLgu+BlGy57diofSMWnxHf0TGEU4vsCxFQ5G6OxTEROQjAQHJSUlJT093WazzZ07d+jQoS1+vY0FxK8g8gZPMyQkBIKobWyH2toAyAuv4UFCyYnX692yZcvkyZMh59PYj+VZNqRTot5qZcorkNQhdv8zAPk7gjRIbdFp1QaN3+/jeF7deHGxcePGjRs3jhDicDhqamoKCgrUavXGjRvfe+89yPcaDAZ4cJCCg6M0dDqlJbtIll286DECThvgCcI5AALfwDy5++67JUkKCQlJT09PS0vLyMjo3r07FB80+W61KhwOx+bNmyGgn5OTA12UIagNkhtMY7qFyM/HtGoPVgf8ANu9y+XCsmYptMzb5/P16NHj5ZdfhrK1zMxMkKNpvcu3Wq1lZWXLly8XRbG6unrFihXl5eUYY6iVk6f36jCRGvj5tFwRPBK4seA4UnYDBBuBxtOvX7+rrrqqe/fuERERkZGRqampwfXxi4qKjh49evDgQZ7n3W53cXFxbW2tw+GAE0lmZmZKSgrG2O/39+vX79prr20b/nEw5aDBzaFaQOAj6HQ6nU43adKkMWPG9O3bNzQ0tCGJh+qTJ2vWrkWbNmtz8xi/H/Yecrmf6SSEdJhhMXZLQhHH5/p8lUjs/+prV0+f3uLftWvXrvvuu0+r1VqtVqBhIBmrGnZwSKxRt7QhcSTYFv1+PxTsAPeO4ziwKwghEHqDihsg5yUmJiYkJMyePXv8+PEtfpmNhSiKDofj3Xff/fnnn9VqdW1tLQk0JaZa+WAXqTzcRXdhmkunARBIn8j1joRAp2UwA3DbzWZzUlJSv3797rnnnqSkpDa5AWjLli2//fbb1q1bCwoKII8KYXoaimw4R/PCoIchGgViAjKrwOM0m80+n2/evHmjR48ODw9vJ0fG1atXf/XVVwUFBadPn0aBowl4/RAAhKcMPDpBEICdoVarMzIyxowZc+utt7ZqYU1bGwBK3YW4MOUdM4E23GJAahW8zuTk5H79+o0YMSIuLi4iIiItLe2chpE7ebJ61R+ODZtQYaGO51lRJAhLHcAAaDFmEPJKpIDzFgh+Liqq73MvDB03rvW+FFh6VqsVXN38/HyPxwOiETChqS2/6JrHgeJVEBOuEwiGNB3MEBqlpVQlUDHjOO7xxx8fNGiQ1+vt0qVLRESEyWRqvWv3eDzl5eVWqzU3Nxe83YMHD8LYQEiACYgUQYwCBZKWdJ03sM4OBdplA0tHCPSmpxI9kBZOS0sbNmwYwzDdunXr06dPYmJia5dceDyeDRs2aLXaNWvW/Pbbb6D2A643PXlAFhcqCeCM2CJ5PlrZC9cOh56uXbv279/f6/XecccdaWlpLXGJTQfw63JycsLDw/ft2wfKhpRsTbVR5UQs+qypSaMKRfSNt9122z333JOYmNgaZ4JGGIBHH330559/bub3QQgIGoVD8JeWKVGVEiSrtwa2LxiDmJiYrKwslmWnTp161VVXyVseCqdPV61f7/zzT3I4R+vzswxDML7sM8JnOoIh7CFSAec7KHBlBmN1bNz9zz13PkWNFgSU6lRXV4uiuHPnzueff97hcECkqIGhBijHBVcAIUSJHLT9A+yqsKXCVgL1TcAVgVpNWsofERGRnJyclJSk0Whuuumm3r17t8iCcblc5eXl3333XUVFhc1mAzYtxB8oaYoKLbCBfin0AETzW3BFDXGEJVnjEfg0+vkMwzgcjilTprz88suwOmJiYhrO3WoaKioq8vLyFi5cSAiprKw8cOAAiJ3RqA6NU8FypqYa/kmbgDZnDBhjt9vNcZzRaBwxYsTIkSMHDx5sMpkgi9sSV9l0HDt2bN++fZs2bSorK6uoqCgvLxcCzUukQEM0JFOThT/ReCDcPZjtkkxSGwW0p1QqVd++fa+77rrx48eDyFILohEG4LHHHvvpp5/kM5v+qSFRGgBsDfL2ofRMJ48g0/wwzCpwIlDACwA3UK1Wjxs7dvyECf0GDDBqNIbCQutvv/lWr1HbXZoQC2JZiVzmJqCOAdjl8x7ihVzCVPl5yeuRELnnoftvnDnDYDTHREczLKNWqVs7sFhUVPTAAw9oNBpIJtOQ9zmnB10MNAtKj4OU7kKXEE2KokA4GKYi/F4INNeF9QPRkpCQEIxxRETEwIED77vvvuTkZI/Hc+EJD7oCa9as+eKLL3JycsxmM8TxoWSantxpRJ7mY6n7BjOcdgiQ06VoUhfJXD/61fjsDiRg6oxGI+iaRUZGDho06J577mnt/Q6cepVK9euvv65cuXLHjh02m02lUun1eloxTq0yjJMQQvXuJZlUKvTzcLvdtGtK/ej/hYvaJElKSkpKSEjgOO7+++/v3bt3REREcEuxeJ53OBxGo/Grr7766quvbDYbxP3gYukJDx4lvVdioI2VVquF7UseFqM/0xlFxfgoPSwmJubFF1+cMGFCy15OIwzAvHnzfvzxR7gF8qlMzVqb5VhoNBDyB4IkXZGdPbFr134OZ9TxXKayUhMWhs6vY3XZgBoArySe4LldPt9BgT8qoVqENYgIkujhPP7/b+9Lo6O4zrTvre7qXa2l1ZJaCG0IsWMsm8XsmzeMTbydGXNyfJI4duIsJjNxHM+ZGZ+ZjCf2OeNZEjtOxokJNrGTSfD6eQGzgxAgdoFAC0Kgfe1W79XVVfd+P17XTSEwCJDULfo+v5BodVdVV73r8z6vIhtNptLSCRW3Vkwsmzi5fHJBQUF5ebllCGShG0FDQ8PJkydjsVhtbe2JEydqa2tBNAIeAPZsUN0KF2bT4YvTM//Y27Lg49Io5KsA9ghW3zgcDojHL/tKQRAikQjs5gUhoGuNW9lkNSO3sLK1fsQaHmzgUFEN8GMoFKKULl68GAgRZWVlEyZMyMvLG2l6fn9//5///GeTyVRZWXn48GG4DnBUV/5D9kXozRnSAl72X5dW8JFmJfWhMbzMZDItXLhw+fLlkiQ99NBDiR0QoZRGo9H29vZdu3Z5PJ79+/evX7+eXZZrNXpDj5X1fwJ/ZTabn3/++SeeeOKa/vzKuAa+zdq1awkh69evBz/GSvYY46HXN4cFbOoPdpBG4vFAR2enFOs3GDIJsTscYEVG4UiSAXDFKUUUY2wQZVkOqXGrCQtGwSrarciKEepub/+0td1gEATBYLHYcnJyzGbz2rVrH3vssRESZ4f9YkhLYyVJ6unpgcJob28vm2gF0w98cHjSoJ3Ayv2DAotBVmYogPdnnbQr2HRCCHAQrvrKr/ogKHyrqgqroCDQA9sNK1MEnXA8lMjZRgFJkp577rl169bBn8BFGLkHihAC+3Y2bNhAKe3v7+/p6UEIMdkJPfH3ymeNdF8H1a3N0Rt69rZ6wVEwHdA2yM7OXrhw4YoVK1auXAk+IOFiO1VVVbt3796+fXs0Gg0EAl6vFyEEg2nXHVxe0xeKdUPghJC2tjZVW0V3fZ9+mY+4pru8qqpq3bp1AwMDcHOzQ4TJbIhrhuvIrgCqzQFSSmVZDsXjEy3WlU7nHFEsNxjSKKKqmiIsIDPGRoQlqtbJsb1R6aiinCUoaBBEEWFK1HicyKoRY6NgwFhQCUUYG0SDKIoxWYY1JqqqPvTQQ08//bTNZnO73bCLdaS/R6/X++KLL8qy3NzcXFdXBywgaCSyW1zfH2N/eGnlJHlAdYsuoGsFbgzKuNCuYKO8GRkZHo/H7XbbbLa1a9euWLFipA8vEom0tbXF4/Ht27fv3r37wIEDwWDQYrE4nU645lRjUhq1LedQyx7KmzODyKJ49l/sbeGmgrvOZrMtXry4sLAQ+L4TJ04c0e79UBAOh8+fP280Gt95553PPvsMRtWgmc9ITayYMzocTaTrFQuC4PV6//mf//mZZ54ZRoLTtTHuZ8yY8eKLL7766qvHjh3Dmswk5NeQNYNXGGlAbAJdJoSQaDRio0HBGAH78Mth95vc+l8MDCviKVGRIBCkxqQ4FrDZKFpFiyIrikIQRYLBIBgEQkk4EgFZf6vVajQaKysrt23bZjAYsrKyQJVh2rRpZWVlFRUVGRkZI3G4WVlZ//Vf/4UQ6u7uvnDhQjweP3LkyKFDh8AqQSeZtVX1Rj85TT+AxbMgsCHLMhuXCwaDPT09Npvt0UcfvffeezHGJSUlubm5LpdrpH1tU1PTb37zm+nTp+/fv3/z5s2sN2s2m+Egw+EwJPQsg4fxMawThb7yWbMODeth6ss+4Beh2GU2m19//fXZs2c3NTXddtttiTX6YLhOnTr14YcfFhcXV1VVffHFF1BUACYCSO+Fw2HWoaXasOqolZf1CRajAg/n+1/rExUOhzds2LBp06bm5mbm281mczgchilzPAQC+A2Cagsf4LNilJaYzUtstvkWaznGdkVFlFKE6c3uAnQZAK2LRffGIscU5YLRGKAoLkcJJQYkGLERIwEbRSzAfleCKVHiMXDeEJxCIgVRKozLQ+MdJr/Wrl27bt260cntEEJer/fcuXMvvPDC+fPnDQYDCFQgXU2ZgUWayeMVwBQybX1CSFpamizLL7/88gMPPDA6IjOxWKy5uXnHjh2vvPIKlI8Z8wIhZLPZYPgOajIQt0WjUZamQHFm6BGuvkkDkRnzIhApFxYWLlu2bOXKlQsXLhyZM742KIqye/fuLVu2fPjhh5FIhGVsbMCC9fPByMC3Bjx9oLpeuXE97ADnqqpqV1fXW2+9tXbt2mF88+s01vX19Rs2bNi8eXNfXx/SLUoVLtYghEeU6DZMDeOhs6BDIqTEYlnqcMw3mcsRsqsk9RwAqZNje6ORo3G5GWE/QogQ0WwyYKzKsqoqgtEkGM1yXBEQNSIaV2Q2UEo1ChYLLqB2wb5BWZYHBgYwxgsXLvzmN7+ZlpaWl5eXn58Pw+sjeoLRaPStt96CvY+HDh3yer1slQc8Eoxjzo5W0OmND3pKBzWTL32G9R1mdsdSjX6GtfksJj6MdCUpuJIguFRaWgqL4KdPn75o0aKRNhZ9fX0nT54MBAJVVVXV1dUNDQ0wXM2iMXg24bD1K4DYaTLekaptuNUH8ki7nmAKFW3lMmThUC8C7pAgCFlZWatXry4qKiKE3HfffR6PJ+G1HWg+qar64YcfHjp0yO/3B4NBQRDgwOC2ZyE2+2bZRQA7A379mnYPXBV6T3nZS808DXyJAwMDL7/88ve///0b/+i/HsN1G2VVVX0+3y9/+cs//OEP+isFgQZ00ljSBJVQSK+GPV6TKc0xGufbrPfb0yZjwRiPp84k8MUOIHpMkZsoDQuiKBijUpgQ2WI2iqJRllU5RkSTxSAIlBKErieBpZq2T0ZGRkFBQUZGBmzGWLp0aX5+/nCf3EUIh8N9fX0Y46NHjx4+fHjbtm319fVQn2XrvdhIOdYYYmyfF9Vtu700hWdKMnCv6p9zg7bmG14paPJ2CCF4WSQSgbnl73znO3fddZfD4cjPz7fb7bC5fkSvyeHDh3/5y18WFRUdPXq0vr4eIQTKxnrtzCsDJmyA9AlMTQiEYWqJ+QMm2sP0fNgTDRfNaDR6PJ433nhjwoQJ7e3tJSUliV2IGI/Ho9Ho3r17N27cWFRUBCQ0yHSTJ1lEF89/MR4U+z2MyFBK4Q53OBw/+tGPHnvsseGNuobBHLe2tv7nf/5nZWWlz+cDej7WaHBUt4iZ6ij/w3Hkf4WsqoVGcYndvtRmm2QwmBWFkJRzAGdkaW80ejyu1MflAMJmo9lsEQVBjcvRWCyGsdFsslEkUEopUdkimesA1rTJIB0GoovRaLzzzjtfeuklm80mSRIoto905BsMBl999VXQWYvFYn6/3+/3sxSeDZQghNgGNKJbgA6HLehki5jqMuNu44slKoF7lpOTY7fbTSaTzWb7t3/7t6lTp47oaTK+UE9PT3t7+yeffPLmm28SbTCYnSNLjOA0h8LhgRYLK2tA0UPVrYZGWt0ZIQTXCl5vs9msVmtJScnixYvvuOOO6dOnj+gVuDKAPIYx7u7u3r9//xdffLFly5Z4PA4aq0A+hrCAnUgCj1YPQVOsY4ka0OEQQrClA3Q+FEXJysqaO3fu9773PVjYMIwYtni8rq6utbXVaDRu3LjxvffeAzIf1JThJJEmcc4EI4cLMqX5BsMiq/Ueu32SwSAqhBCSUg4gSslZVam127pcWdW9vSdb2mLhmNVqMpkxUeNGowFjIyUGhAVE0XVnAAxY2wgG0R+zHcApKi4ufvzxxx0OR15e3owZM1wu10jrE4A6wrlz5w4dOqQois1m6+vra2xsrKmpaW1thbCD8U2j0SjbtQJWkj0C0PkAdhlkA1arNS8v75577lmxYkV3d3d7e7vH41m4cCEsix/Rk0IInTt37uDBgz6f78iRIydOnOjs7NS3BFlBBiJ0GK5EulmEqzYqWREVvCa8j6rbE4cQAoYoIaS0tPQHP/gB7MJdtmxZVlbWSI+SXBWNjY379u2TZXnbtm2nTp0KhUKSJJlMJiDjoovFVg26jfCJPexB0BtDVl5DWvkEIfTAAw888cQTs2bNGokJuOEvyMCSHYTQhg0bXnvtNRaeKIoC45FsrHfYPpHSElFcarUtslrLBcGqpqIDaFLkjvHjMubPL1m1umRieTQaeevtt3/+0osWs0FVVYPBJGAToUjAgiDgG3QAYB/ZlCPz8VA6UBQFhj9tNpvRaMzIyJg+ffqsWbNWrlw5efLk4Tr3KwNKQLIsQ+zMjhlr26d7e3u9Xm84HEYIwbKanJycgoIChFA0GkU6HgsEvKMWNlJKP/vss1deeSUnJ6exsbGvrw8uKRu4Ab611WpldS3WfgCpDLYs96pPmarJ8SJtXAOsJ6UU5tEyMzNnzJjxq1/9yuVy+Xy+zMzMUaM/XhZgWz7++OP//d//zcnJaW1t7e7uJppgDCR5WJPbG3RNBkmaJwP0LTfWAwDyWFpamsFgWLBgwfPPPz9hwoSRO4YRZ+xEo9GtW7ceOXLk7Nmz/f397e3tAwMD9FqWT10VEqVlorjCap1tMZcLRjuhKegAzsbl9sL8rEWLb3/4EU/ZRP3LDhzcv3Hj29FIrOlcc2dHlyRFCFHx0Eh+lwXcrBBkQcbKJt0hbIEypX40BKyqIAi33HLLyy+/nJOTEwwGQbfnBi/C2IWqqoFAIBKJgDLwBx98sGnTJmAfglgW5CLQzECacgZcZCaGrKdC6TnjaAjkKBYRgyNJS0srLS01m83l5eWLFy+eMWPGqEmKfhW8Xq/f729tba2trd26devevXuj0WhGRobNZgNVD+Ay6NsVzA1gjYHKNDn0BIFkACPgQQPA6XRWVFQ4HI7Jkyc/+uijOTk5ozAKN+IOgEFRlN7e3v7+/vr6+s7Ozp07d1ZWVkajUeAaQjDCvMIgg8JYH0xrBeJNQRAIpVFVnWgyrbDZ5pgt5YLBRlIrAzAgHKX0rBLrLByXvWzZ9AcfLiwpvfTFqqp2dHT29/efO3euq6tz586dO3fuBHMDpHt4bKBRDxqWIHIJZWXojrJaiiAIsJmPrVJiqR4ra+odDKtdUEpBtj4nJ+f+++8HrfY77rgjPz8fhONTAUeOHPniiy9ALunMmTMdHR1Q/AXmCRgvvY4C0a2I0cslUW39CzwLTIubddrgfy0WC2wLkGUZAnz4HgOBAEKooqLiueeeA4mh8vJyeB4TeHEopfv27aupqcnIyHj//ferq6uBo6yfDYRXMpU9fZeRkTgFbQmdnmBDh2+Gi8WvrMQELXTYjARfATw4YMcgBWFyhyD7IQjCrbfe+i//8i9utzsYDM6cORPWwgzLEQ7pLBLSFmdXR5Kkjz766PXXXxcEoaurKxKJQB2WJbCCpv4maKK7MFJvtVrZdImM0ASTabnFMs9qLTeIdkIJSZVJYAvCCAsBAdfG5Y6SosmPPHzrnXdlu91X/kO4/uFw2OfzffTRR6+99prNZhsYGIAJAIg9YSiXqTWwr4ONX7C+KCStgibeiXTF5aseBkAQBJvNVlpaOmXKlOeeey43N3e4LlGSQFXVSCSyfv36//7v/zYYDNFoFJoNoILAJJJY9WaIJgCuHngCYNlBciBo47hMPhrKOxAsO51Ot9t9++23/+M//uMIDfpdK/x+f09Pz+9///u3337b4XBA4Q48H1wQWZbR0DYhjzSwNibGNuIxMg+wqqLRKOxvAMYw5ME2m00QhGg0GgwG3W731KlTZ82a9cwzz7hcrpHgxVzD6SQJL4oQUl1dfebMmdbW1rq6usbGxt7eXiCowSg2MzcsJqLaOhGJ0lKjYZnZPNdiLReMDkoJoQShm34OgCJkxlhGuJWoTXIsNHnS7U89OeOO+fbr2iBRV1f38ccfB4PB06dPNzU1Aele0HTtkW4WF74CNinDqkDgBqBmjYYge8JSCv17QvV54sSJP/vZzyZMmNDT01NRUQEzmWMFsO68t7e3ubk5FAp99NFH27Zti0QiILMB1pnV3IFwCUEuoype+alkjBG41Ox7QReLSMOkqyAIHo9nxowZbrd72rRp06ZNKy8vT6y8miRJHR0dPp+vrq7u7Nmze/fuPXXqFEtrwGhSjXoP24fsdvtI8EeuG1g3YKHfbQlfCjt+oEV4PJ6lS5c6nc6SkpLbbrtt/PjxCZewZkgWB8BACAmHw+FwuK2trbu7e+vWre+++y4sygE1FTa0wvJBiZCJZvNKu2OOxVwuGFKnB4AwNhISIeQ8FlowtS2aP/+p7xROniLcAFuAUjowMBAOhzs7O5ubm7du3bpp0yaEkN1uB50DcLpMFAVuepZ9Q/YGhPSrdvtZKwgiX0FTWoZfQpkbeshZWVlut3v16tXFxcVJmx9QSrdu3bp58+a2tjav19vd3Q1OFPiI+uoZ0pXs2SViU0hXtXFwzZm4AsSYrCEPAzqEkNWrV7/wwgs2mw1jnJ2dDXumRvoiXAEwivXpp5/6/f729va+vj5IVuB7Bx0B2H4DxhRSFqoJySXwyPVgjgqIBuwrG6Tgr6rqvHnz/vVf/xWklvLz84Gzm+jDH4ykcwCXBaX0wIEDP//5z2EeOhAIsJhRUZRQPD7BaFxpd8y1WMoNqeQABAHLckSJ95jMNXJ0xte/vuTv/h4PNzkPQvvKysqf/exnLperra2tq6uLSSVjTYIfDBAU6JxOJ9VtJ/8qGHQ74FjkC7EVG7jVtxPg3x6Pp6KiYs2aNXfddReE1aMvEA9HCIIKsiz/x3/8x69//WtBEDIyMsA0M04U1ZQYICtCumYJ0pgqwMORJAk4nVd1AFSbyGM9YRgUSk9Pz8nJueeee775zW8mlu0OJW9VVfv6+vx+/69+9at33nlHVdXMzEyQ0tSvi2HjTmwKgQUZIEkNuVECT+dSwCmAA4bDE0XR5XJBbWfVqlUJ758PEWPDAehRX1/f1NTU3t5+5syZ48eP19fXR1W13GpdaXfMTbUMQBBwTI6pqt9pP6XI4x98aOkPf2hMG1nSfU9Pz+effx6Pxw8ePFhTU9PV1QUVW2AQkmvRESM63X8gQrB8AqpPgrZFhDkACJOhhg4h7VNPPTV9+vS+vr5Fixa53e4RDXJDoVBPT09jY2NdXV00Gt28eXNNTY2iKA6HA5qrgyQo4DdsPottuWEXR2/y2AzzlR9J1jyjlJaXly9fvjwrKwtWihcVFY30yMWVQSk9duxYY2PjuXPnYCzr3LlzhBDIgfSnwKq4wsUrH+AfbLgEqouDUqXEAoIS2FA9depUGP8uKysrLy/3eDwjur93JDD2HAAD9B69Xm9bR8fJnTsbf/vb+Wlpk41iqjmAqKp40+wNiuJYuXLJ957OLhiPRyXThAZmIBA4derUrl27Nm7cyDSQkSZjAhk9uAe9jgo89oxcxPZn6eP9q5bCAUBeSktLy8jIgCjY4/F8//vfnzJlynCd6cDAwBtvvHH48GGv19vf3x8MBllPkjWx0dUslL5qzJq0gm71K9Kp8TDSFPwtfJAsy9FoVFXVJ5988sc//jF4XIvFwnrviYIsy6+++urBgwdlWW5pafF6vfDNshY0W/6DdKnPld9T/+JhBPM94HeBaAu3kKCTsUMIGY1GIGhCAgd/Bcqgjz/++E9/+lOQWrLb7UywdixiDDsAPbznz7et/3304EGnz5eWSg4AxeQoIf3pzqP+geLV993z3E9MWYnpL0FV5PTp06+++qrb7a6vrz969ChjZEOdh9VJWcOABXqsEIx0Q5tDIUgwQXJYW2gwGEKhEJukt9lsM2fOXLVq1dKlSx0OR39/v/rVa4swxpDRHzhwYNOmTdXV1RBrC4Jgt9vxcMhYsZI3/HgpvxYSIJZJ2Gy2rKys7OzsoqKi1atXr1ixIuG2HlQ3ent7fT7fK6+8UlVVBZUQuESgrwmmnxV5mO9P4JEPAph7vbYg5KBIJ4GnqqrD4Rg3blxOTk5hYeHixYvvvvvuZCtG3SBuEgfgO3ny7J/+L37kSKbXm0a+fIBSwQEIsVhMUb1WSwNCHR5P3pLFZXPnFJeV5Xs8iX3e/H7/kSNHMMZVVVV79+5taGjw+XwGg8HpdDKRGahlQ7lfXw5iLeWh2Fw9aRL6cqz4jjS3BIUpQghrhOrZR3pNBZg1BecB4aGqLemmw6EiQLVdRuDtmGYDeMF4PO73+0VRnDdv3t13352dnT1p0qTc3Fy3251Y3YWurq6jR482Nzc3NjZ2dXXV1NR4vV74pkAbDjoiEBFTTRuV8VOHTmwdaUBUwYj5oIPEbhtVVf1+vyAICxYsWLNmTWZmZllZGaxtSLjuxQjhJnEADSdOtPzl/+zHjrv7vWZFRV/SQJPinhtBCAKSYqqqxuy2BmfaLiVe1dXdK8cMRtHlcs+Ze/tdd664f/UDiT1GFsWfOHGiurp6w4YNsEkCup0QEbPwkPE9WGuUBctfBXgBJBPQFIWknlWTIGRmNojZfeZgVN2iWkbFoZqOIXyEPlS/7ksB5WOYjmbDvRhjUFgLhUI/+tGPnnzySZjbuu5PGUYEAoEXXnhh//79sLESqiLQeIcuKGyKhy4IXDcYRIDvF77NpKqQsHwUad0U4DHbbLZYLPbEE0/84Ac/gDwy0Uc6ShjzDkBVlPMXzp+u3Gc6dMjV3Ozq7zcqKh15NVCMMcIIUYQg0hy5T7oCwAEoatxpb8x27SZkf1t7ezAQVwjGBkIVjBSjEROi/v3f/eS++x7o6ektLy/PznYlNiIjhLS3t//xj390u92nTp36y1/+AobDYDCABAJblY6GMPvDBj7B4kNwjbQhA/YyPcvo0jI0Y5QhTZuFzTMzuz/EnsRQTj8ej2dmZpaXl5eVleXn5y9fvnzWrFmJtZKRSCQUCp07d87r9fp8vv/5n/+pra1FCGVmZsJIIFOKBq8J3wso0ME8FLvskFSB7h5CCOb8k8HOYE3IVlGU3NzcadOmjR8/vrCwcP78+RUVFcnjpUYTY98BqOqFCxfq9lZa9h9wNzVnDPgQ1eK3YQHGGCGBUkQphp8IQaoaD0dkWaaiaHSmGyxmqsQRRZhSgRKK8SglH4KAJElVVSXNUZ+VtYuQgx0dXZGwQiiigqLIgqCKoiDLsqpQjEWEhWnTpk0sK4tEQg8++GBFRUVeXl5iueGxWKypqUkUxZ07d27fvv348eNQKQJPoB9C1ltt/bMKCYQsyzCZCf+mmlYdexOkG2FjPw56N6xTi2SpCRivGwkJBUGQJAlmstasWXP//fe73e7i4mK73Z6enp7YYPPs2bMHDx48ceIEzKw1NjYGg0E4JBhSY4NmLDeCljVcGVYZ05N52FVlvxxG23odnRiMcSwWi0ajlNJHHnnk4YcfzsjIKCoqstvtDofjJqvpXytuBgdw/vz5un37xOpqV3NzVn+/UdUygGtaCwyXYdBfEEIoJZQSk4mYTYQiRVWx3W4qLEqffbutcDyKK0pfvxoKGUyiYLFIZxsDB6uFYNBICB6FtAAcgKIqTkejy7WLkoMdHe3BgKwQARsRJggpGIH6vwFRA0UCRhjIh1iTFC4rK3v++eeXLl0KDduEFx/OnDlz9OjRTz/9tK2tLRgMQq0ZaUMAes4o0m3+umxcP/Q0gmqztcxnDPINep4Pq9uwAQj14tVRSBOzAkPf19f31FNPfe1rXxvEhhxlwHmFQiGDwdDS0vLTn/709OnToIwtjPzyhqEcm6Bt04TvFy4m+7rBLbHdjVTbccb6NCwXJNq+2MzMzMLCwlgs9vjjjz/88MM3ax3/RjDmHQDgyL5K32efOGpOufu8JkVB6hWbwJRQgtCXQQrCGFGKqEKIqhBCkNGIjUaEMSVU9Hgssysss2fj7OxYMIgwVlUiOJ3Wcfm2/HzhktiBhEKB48f7P/lEqtwnBoImuEFH7rRZBuBwNGa7dlN6oK29PRSQ1a90AIgihChQbJBm10KhUCAQcDqdTzzxxJo1a3p6em655ZaioqLEEk4IIV6vd8uWLdnZ2XV1db/4xS+gOgSztXqpd72hB0+gL/gwAuJlazhYB0ZW0Z848ytgiWBgFSEEkwoGbf0vlK1EUSwuLp4xY8bUqVNdLtfChQsTPhAUDAb7+/sPHTokSVJ3d/ebb77Z1dVFKYV+uKBbh5BAwPVnfpe5W9aeYcQwGKeAzANUIqBdJMsy8E1LS0tvvfXW8vLycePGVVRUFBcXp2ZtZ4i4SRxA76mT5//4rnrocIZ3wIEw3Ef6E9PdApTGFVmOy4TGRVG2WonVjI2GrFm35Ny5wj5tumC2kFiMhCMIY8FhF5xOg8OBrjFPD1RXS7v2Dnz4gdDXZ0pLG6kxdkFAsZiqqord1uRyVWJ8qKvzvH8gIisGQbx8BoCxgDHGX4oAE0KYHA3SzSVlZGRAdejRRx9duHBhQUFBYtV4QN7AZrPt27dvx44dO3fuvHDhAkTTg2JG9idY28+OENIrdjFzQDXmH9VkZ2A8FaY6WSzJ3hPsu8lkCofDQNoxGo2RSAT0DL773e+uWrXK4/Hk5uYKggCiqqN+nf6KEydO7Nmzp6qq6ty5c0BmBTVQQdPsI8NaKL1BgIlnBTdWrGM9fKJTuoZmA3C0YJ09Quhb3/rWAw88kJub6/F4BG1XWmJPakzgJnEAvvq68++/F62udnT1pKkEqSpCGJlMgs2G7TYqGolK46pCJFl0u10rV6atXCF4chHGJB4nkoRFURBFLIrDOUJFSPxcs/ftjQN/3mQ0GQSDEQuGYS4LCQKVJEoozkhvsNv2qPFjPl9TIBCKxb/KAVBoZuC/7mNg6TNrogJnH4RXw+EwIcRms1VUVCxZsmTJkiU5OTnp6enp6enDeSLXjmg02tvbu379+oaGBkqp1+vt7Oz0+/1IJ/gOpkTfutRbPeYPWK2fzR4DVwdptFSklX0wxqIolpaWZmRkWK1Wu92+bt268vLyBF2DL0EplSSptbU1KyuroaHh2Wef7erq0osoUG2yGtokoVCIEGK329ncWWKPH13cj8HaRhc4PFYIgvvTYrHIsgyqap2dnU8++eTSpUu5rb9u3CQOQAr4fefPhzo6pL5eEomqiipazFmlpa6SElNmJhZNRJIoIbA4VbBYoMgzCgdGfQPR/dW9GzbET582CggN7+dqDkDIyqyzWndI0cN9fS3RsKTSryoBUUoxoqJopJQoykX0R6YdzzJr+BB4JvWbZhcsWHDfffeFw+Fbbrll1qxZjNSYKMTj8Ugk0traCgTT9PT0np6eDz/88Pjx48FgEDrDwWAQZpSA1aMf+2QFIqbhA5I+iqIoijJ+/Pg1a9ZAj8Tv98NkWXp6esKbJT6fr6ur6/PPPw+Hwy0tLVu2bAmHwzANx+wphNUIIZDUhSIJHDl83clg/ZGOpEt18xlws8ViMSj7TJo0ac6cObNnz87Ozp46dar7aprnHEPBTeIAvsSl55IE9zeNRGKn63x/+INUWWlQ1eHkCAkClSREqJCZUWez7pCih/v7LkQiV3AACCGMEKUqC42pprbIFoxAAQR+Q7RFFqwUSy6WwYKg+LHHHlu1alVJSUmSLHWhOiAt2CeEDAwM9PT09PX1BQIBoIVABczhcLhcLrfbDazHyyYKCT2hv2LPnj3btm2rrKxsbm4GwVSz2QxFPIiRwXWB9WQiB6xxLQgC7NICnlVSPf5sJZEoijC453A4vvvd765YsaKwsNDhcAwvoYgD3WwOIGlBaay5OfjZ5wM7tqO2dqM6TE0BlgG4Muqs1h1RyACu7gCusBN4iDQ7KJFDsVWWZdgkYzKZJk6ceMcdd8ydO7egoMDj8YwbN44/sdcNSqnf7z927FhOTs7hw4dfeuklSZLYmBXLuq6JasnK68P74FPdgiD9pDfrqLO4Xl/qQVrbCWuyUcuWLVuyZMnZs2cfe+yxmTNnDuMRclwW3AGMHogkxVpa+j/+f8Gt20Sfz0iIcEmz+trwZQZAcFZmg9W6Q5Kq+3pv0AFcFVRTMA6Hw7CngRFyYJgeVvTJslxaWrp8+XJFUebPn79ixQoQz7ruz00ddHd3nz179k9/+pMkSW1tbbW1tbFYDNQpwIwmVSBMdPt89K6FZR6g7wT6HHotDRC2s9vtc+bMWbJkyYIFCywWS0FBwZgT1BzT4A4gAYjU1fV+8FH04AFDW4eRkOt/lnU9gEa7dZckVff1nQ+HIio1jJgDQBo/DyoP0BsY1Cdgum/QewTGHqX0wQcffOSRR4qLi0tLS2GpHm/fgZKdwWDYvHnztm3bduzY0d/fjxCCYr2eG4N0pNXkeWzh62aFRH1nBag4bJoPTiQ3NzcnJ4cQ8vTTT8+ZMycvLy91dBeSEEl0J6UUKCGhmpP9H38U2fqF0NNrNogGmw34+ZfpZHwVBAHFZESpkOZotlr2xuXqgYGGUCigqMYRdgBQ8EEIsbFbpv2CtN4j/B64HFB9jsfjsVhMFEWPxzN16tTbbrutsLCwuLh41qxZqeMJIITv6OjYs2dPWVnZnj17Xn/9daaQCtV8pq/A5g+wph2dbA4AnBOz9UAfgEMNh8MIIajd/83f/M3ixYtbWlruv//+goKCRB81x5dIojspBaEGg9GzTdKRo5HNW6Ujh0WzKFgsSBTpEFUnBYHGZEqpIc3RbLXui8vVA76GUMg/wg4Aaa0Cxp9h5p6t8WKvAZq8w+EAJWGEEBN/BqplTk5ORUVFLBabN2/e448/brfbb8rpfFVV29vbjx07tn79ekVRent7Ozo6GPMK1m2CtA7QeCKRCEKIbXJHOqpuUjkAiN9BNBs4BbDazO12r1y5cunSpcuWLcMYOxyOhPOmOC5FEt1JKQown919oe07fR+8H687IxoN2GBAgnD1L0YQkCwjSrHD0WKzVinywYGBM4HgQFwxGUwUqVdwAIN6cfpxp6vWlxm/nvX9qG67LwxJQTMQhmZZYxAomIx+DokCk+1UFCUUCgHNdNWqVZMnT542bRosOzSbzTdyjROCaDTa3d0di8U+/fTTXbt21dTUBAIBhJDNZmPrccDWw2ojcJ9QNAcyD+umsvzAYrGwLsuNHyGr3ZOLF5ld4fXwD6ybjmZL22fMmJGfn48Q+tu//dtJkybl5eXd+BFyjDS4A0gWkFBYOlPne++98JYvRKIKGNOrPuQCRnKcOYADilId8J/0eX0xxWq2YoESNaaqMsbIaDALghiTFYSQaDAg/CUfA6juMP+lN8cJ7DFiTdpTEASn01lcXDxz5syysrLi4uKlS5cmVrruqqCU1tfXf/bZZ5MmTdq+ffsHH3wAS4PZbPAg5iVzwwk5WnAqQBtFmqgROGkmyEo1WT1I8qC8A4JCdrtdluV/+qd/WrBgwYULF+bNm5ckJGCOoYM7gGQCpVJ9/cDHH8cOVqvNLZioWMBXGmUQBApFlays8w777phU2dXVGpdDCpGlOKGKwUBFIzYYBFlW4zK1WG0YYyUeV1UFYwqqEKwgE41GoRyRPCIBWJtVhqwiNzdXFMUFCxasW7cuKysrSbS9JElqaGjYvXs3LMUMBAIgk8ncGBMvS54LC7js+BXWtlGyfzNZf/gr2I11zz33LFq0iO3tSeBZcNwIuANIOij9/eFTtQM7d8j7Dxi8A8Z4HCOkGi7XIxUEIkkCxo78cZHy8guevCZE+gTc4w/0dvXWnj7V2tocj0tmkygazZQaCMUYYwFjKAGxBiPRlqCyakBSQW+YEEKKogSDQYTQjBkz7rvvvpKSkmnTpqWnp7tcLrvdPgrH09bW5vP5ent7q6qq9uzZc/LkSUEDO0hGfWEKE1i3Bn0UDnIoYOkIO3LQf4blaNFoNB6POxyOe++9d/z48Rjjr33tawUFBQlXAeEYRnAHkKSQ2tr8e/cGd+5ST58WI1FWDLpoilgQiCRhAdvz8vylJR2lJcr48TMWLc4ZN06SpO7uHp+v32g0vP7r1373uzfjMnVlu202m4CxKBrYig+srSRk6xgTcbqXh571yAyTyWSC7YPQTqCU2mw2t9tdVlZWUFCQn5//jW98Y9il6yilR44cWb9+vSiKtbW1Fy5cgNo31uaEmRoovB4K9zBNDV4WRCaSqn/LOvYw/g3rlJkW3m9+85tbbrmlu7u7vLw8sVKAHCOHJLodOQaBKkqsr7+vap/viy8Mtacd4YiBUMWA/7rn4EsHYLDle/ylxR2FhfK4/JmLF+cVFl32DTdufOeNN94QBNzV1Qm1fkmSoF5hNptZp3H0znBokCRJFEWHwwGLZ1VVhToVNEuRFskyBTGMsdVqLSkpueuuu+bNmzdnzhyYQoD5NVgDe9kPopQCURWcSltb25EjR7Zt27Z161bQjQB6EptuBQElVVXT0tLYrAPSKldMppSlAslG4AG5BbPZ7HA4MjMzS0tLp06dunLlytmzZyf60DhGCUl0O3JcFpTS8Llzgcp90u495NRJKsdEhAUsUEGggkBjMQFje27OwPiCtsLxUkHBrDvv/CoHAJAkqamp6cKF86dPn/H5fFVVVTU1NQghk8kExlFfF2ZVYDbvgy6uHevrSGzPraBbn3KD544QYgPGwAUC1wUvYEfC5Dz16kZM1hSmlD0eT3l5+fLly3Nzc71eLyt2qaqalZWVmZnZ3Ny8e/fu6urqaDQqyzKo/AMln+VG+osDxyYIApAgYRJC0NbXMDq8/jiH5bIgXfeYNZYZcQg+kR3qpTyfcDgsy7Lb7f72t789fvx4URTnzp2bnZ09OgU0jqQCdwBjA1RRpLa2ge07wrt244YGYyRCjUZkMJBY3Ihxmic3UDS+pWh8JH/crBUrc4e2hATqEpIkhUIhhNBbb7317//+72DIrFYrawkwnTi9cCaLZ1k4TDWll6Qqcw+C3nAPYuMwzuVYaWmCP2Z7adgXBF4QIQT+D3wn89Nut/vdd98tKSkJBoMul+umHLngGDq4AxhTIET1+WInT4Y/+TS8ew+VZRJXjKLozMsNFha0FIwLjRs368678oqulAFcFdu2bfvd736HMW5pafH5fNFoFGru4BLYy/T9A6zb1MFsKL+1Rg76UQwYs4D0CzIV0JZIS0tLT0+HvKe0tHTJkiVTpkxJ9IFzJBe4A7guUPrldoEEhbqkoz28ZUvwk8/Cx2sMgpBeND5YWNgyLj80Lv/Wu+/xlJTc+EcoitLe3t7d3d3c3Nzb2wuruMLhsM1ms9vtYIBY1Iy0sSDE7f5oQd9bBuZ+X18fpXTmzJnPPPNMVlaW1WqdOnVqenp6kvBlOZIQ3AEMDSDRkzyVDUUh3V3Bqv2d770fbDzrHDcuWljYnZcbzXbNvvvuccPhAPSAmwRoLR9//PGzzz5rt9sDgQDG2Gw2Ax8GOsmKooD2Q2KnyW566AtW0COZPn36hg0bXC4XtB/4xecYClLeAcDp658WsPX4ihNY1/qeIwFVJbIcOtvUdeaMPODHTmfalEn5U6caR2tW9tixY++++y6ltK6u7sKFC36/HzZS2Ww2Nvc09HfjVaMrA6ptIKaUk5MzadKk3Nzc3NzcgoKCr3/961xmh+P6cFM7AG2WHSwylGvwIMs+csaa6XqORN5AyJcZSaIDPUppT09PMBjs7e09f/787t2733vvvVgsBuRCRolh7QEITvWKCPBLUBCzWq1IJzCJNV25sQJGzoHYXL+li50LUIOgam+xWIBrBAQnfUMFfoTuLnCWFi9e/OMf/zgjIyMtLS0nJ8dqtY5FiSSOpMJN7QCSASNUO0oaB3ApgIty4MCBf/iHf7Db7bCrHWvSbyAfDfZRkiSTyQRFJGDZwyYZSins/obJr0Sf0FCBtRUoQEIFxwZdWSDUgkaeLMswVwUnyOQuQIQHacV9jHFubi6ldO7cuS+++KLT6Uzw6XHcjOAOYGwiiR3AILS0tGzatMlkMlVWVtbU1MAeMYQQ8Ov1MTLSNpXr1ccSffjXBojZBymeMq4U0lj5MMIG5h5WEENDpaCgYNasWSUlJaWlpW63+/bbb3e5XIk+J46bGdwBjE2MHQfAEAqFZFkOhUK1tbV79+599913Q6GQKIqwnRySAIfDgRCCmWQ0plj5DGzOgPH09R4O3AOUg6LRKOwAePDBB5999lmn05mdnQ3jeJyezzE64A5gbGIMOoBBgDZAbW3tyy+/nJeXd/bs2WPHjkF7QD9cNrbuT9be0DcD9AMTCCGHw1FYWGi1WlevXv2Nb3yDL0TkSCC4AxibGPsOYBAGBgb27NljMBi2bt1aVVXV398fDAZBk+ey+jl6YYavwlBeM7xgkkSgIQH7fhFCkyZNWrRo0aRJkyZMmOB0OsvLy7nuAkcygDuAxOFGCEiUIkLQzRg8QgmFUnrs2LGqqqp33nmntbUVYwyCPFBbp5TCGgPWPTYajUx9EwJtKLZAS5a9ud4ZDLrz9cE7qClA2A46CkwHiaUm8FlIa3rrJXegAyzL8re//e1vfetbTqfT5XJx6XyOJAR3AAkFRYhShK/dDYADuIkygCujo6PjzTffzM/Pb2hoeP/991VVjUQiIMOJEGLL08FqQwsBfAYIw0FX+atGE1iiwDZcsiWXTNRIT+tkJR2kETdhPVZhYeGUKVNMJtO99967YsUKbus5kh/cASQHYPRs6CDkywwgxaxMPB4/c+aMoijhcLinp+e3v/1tbW0tISQYDIqiaLPZQJKTaZ9BHgC/0b+PflCZWXZRFKH7yvwE+Az2I5h+WFycnp4eDAZ/+MMfrlmzJhwOO53OzMxMt9vN+7ccYwjcASQThl4UIgQRigypkgFcFYqiVFVV/eIXvwgEAmDKKaV9fX0+n0+fAeiTANaqpdqqAAjngYPPGtGiKLpcrry8vGg0SgiZMmXKT37yk/z8fG7oOW4CcAeQlLiqJ4C6c8qUgK4DlNLOzs7a2tqenh6/3w8KRfBf4ANKS0vz8vJgKUpnZ2dbWxu4AYQQo+u4XK6ZM2cWFhaOoXk0Do6hgzuAsQlCKCVYSLkSEAcHxzAiaeQtOa4R3PBzcHDcILgDGAvgWRoHB8cIgDuAMQJVvcQN8ByAg4PjhsB7AGMKWnOYEoLRyAhNc3BwpAw4lW1MAWOiKKc/+9xqsRbefpsx3YlvxmFgDg6O0QHPAMYk5EgUU2q0WhK1lJiDg+MmAHcAHBwcHCkKHj9ycHBwpCi4A+Dg4OBIUXAHwMHBwZGi4A6Ag4ODI0XBHQAHBwdHioI7AA4ODo4UBXcAHBwcHCkK7gA4ODg4UhTcAXBwcHCkKLgD4ODg4EhRcAfAwcHBkaLgDoCDg4MjRcEdAAcHB0eKgjsADg4OjhQFdwAcHBwcKQruADg4ODhSFNwBcHBwcKQouAPg4ODgSFFwB8DBwcGRouAOgIODgyNFwR0ABwcHR4qCOwAODg6OFAV3ABwcHBwpCu4AODg4OFIU3AFwcHBwpCi4A+Dg4OBIUXAHwMHBwZGi4A6Ag4ODI0XBHQAHBwdHioI7AA4ODo4UBXcAHBwcHCmK/w/V5QDAe0IzVAAAAABJRU5ErkJggg==;" vertex="1" parent="9bB9l0TLLNUMmVkwr5hN-58">
          <mxGeometry width="32" height="32" relative="1" as="geometry">
            <mxPoint x="15" y="15" as="offset" />
          </mxGeometry>
        </mxCell>
        <mxCell id="9bB9l0TLLNUMmVkwr5hN-60" value="&lt;div&gt;Mahasiswa&lt;/div&gt;" style="shape=umlActor;verticalLabelPosition=bottom;verticalAlign=top;html=1;outlineConnect=0;" vertex="1" parent="1">
          <mxGeometry x="665" y="40" width="30" height="60" as="geometry" />
        </mxCell>
        <mxCell id="9bB9l0TLLNUMmVkwr5hN-69" style="edgeStyle=orthogonalEdgeStyle;rounded=0;orthogonalLoop=1;jettySize=auto;html=1;strokeColor=#0066CC;" edge="1" parent="1" source="9bB9l0TLLNUMmVkwr5hN-67" target="9bB9l0TLLNUMmVkwr5hN-23">
          <mxGeometry relative="1" as="geometry" />
        </mxCell>
        <mxCell id="9bB9l0TLLNUMmVkwr5hN-67" value="" style="verticalLabelPosition=bottom;verticalAlign=top;html=1;shadow=0;dashed=0;strokeWidth=1;shape=mxgraph.android.phone2;strokeColor=#000000;direction=south;fillColor=#000000;" vertex="1" parent="1">
          <mxGeometry x="631.25" y="160.62" width="97.5" height="50" as="geometry" />
        </mxCell>
        <mxCell id="9bB9l0TLLNUMmVkwr5hN-68" style="rounded=0;orthogonalLoop=1;jettySize=auto;html=1;strokeColor=#0066CC;" edge="1" parent="1">
          <mxGeometry relative="1" as="geometry">
            <mxPoint x="679.74" y="120.62" as="sourcePoint" />
            <mxPoint x="679.74" y="160.62" as="targetPoint" />
          </mxGeometry>
        </mxCell>
      </root>
    </mxGraphModel>
  </diagram>
</mxfile>
